<?xml version="1.0" encoding="UTF-8"?>
<svg xmlns="http://www.w3.org/2000/svg" xmlns:xlink="http://www.w3.org/1999/xlink" viewBox="0 0 1910 511.45">
  <defs>
    <linearGradient id="b" data-name="Degradado sin nombre 157" x1="1566.53" y1="353.36" x2="1625.44" y2="412.27" gradientUnits="userSpaceOnUse">
      <stop offset=".23" stop-color="#a7c8ff"/>
      <stop offset=".45" stop-color="#aacaff"/>
      <stop offset=".67" stop-color="#b6d2ff"/>
      <stop offset=".89" stop-color="#cae0ff"/>
      <stop offset="1" stop-color="#d8e9ff"/>
    </linearGradient>
    <linearGradient id="c" data-name="Degradado sin nombre 155" x1="1487.8" y1="184.45" x2="1704.17" y2="400.83" gradientUnits="userSpaceOnUse">
      <stop offset="0" stop-color="#d8e9ff"/>
      <stop offset="1" stop-color="#a7c8ff"/>
    </linearGradient>
    <linearGradient id="d" data-name="Degradado sin nombre 156" x1="1590.11" y1="349.53" x2="1601.85" y2="361.27" gradientUnits="userSpaceOnUse">
      <stop offset="0" stop-color="#a7c8ff"/>
      <stop offset="1" stop-color="#d8e9ff"/>
    </linearGradient>
    <linearGradient id="e" data-name="Degradado sin nombre 169" x1="1561.29" y1="360.83" x2="1630.68" y2="430.21" gradientUnits="userSpaceOnUse">
      <stop offset="0" stop-color="#a7c8ff"/>
      <stop offset="1" stop-color="#73abff"/>
    </linearGradient>
    <linearGradient id="f" data-name="Degradado sin nombre 153" x1="1697.87" y1="322.18" x2="1750.29" y2="374.6" gradientUnits="userSpaceOnUse">
      <stop offset="0" stop-color="#35ffff" stop-opacity=".5"/>
      <stop offset="1" stop-color="#35e6bb"/>
    </linearGradient>
    <filter id="g" data-name="drop-shadow-1" x="1679" y="311.73" width="90" height="91" filterUnits="userSpaceOnUse">
      <feOffset dx="0" dy="8.89"/>
      <feGaussianBlur result="h" stdDeviation="5.33"/>
      <feFlood flood-color="#1172d5" flood-opacity=".4"/>
      <feComposite in2="h" operator="in"/>
      <feComposite in="SourceGraphic"/>
    </filter>
    <filter id="i" data-name="drop-shadow-2" x="1690.75" y="318.48" width="68" height="68" filterUnits="userSpaceOnUse">
      <feOffset dx="0" dy="3.75"/>
      <feGaussianBlur result="j" stdDeviation="3.75"/>
      <feFlood flood-color="#1e85ff" flood-opacity=".4"/>
      <feComposite in2="j" operator="in"/>
      <feComposite in="SourceGraphic"/>
    </filter>
    <linearGradient id="k" data-name="Degradado sin nombre 152" x1="1517.21" y1="148.13" x2="1656.04" y2="286.96" gradientUnits="userSpaceOnUse">
      <stop offset="0" stop-color="#35c9e2" stop-opacity=".5"/>
      <stop offset="1" stop-color="#35e6bb"/>
    </linearGradient>
    <filter id="l" data-name="drop-shadow-3" x="1483" y="153.73" width="208" height="146" filterUnits="userSpaceOnUse">
      <feOffset dx="0" dy="8.89"/>
      <feGaussianBlur result="m" stdDeviation="5.33"/>
      <feFlood flood-color="#1e85ff" flood-opacity=".4"/>
      <feComposite in2="m" operator="in"/>
      <feComposite in="SourceGraphic"/>
    </filter>
    <linearGradient id="n" data-name="Degradado sin nombre 152" x1="1413.49" y1="208.12" x2="1476.77" y2="271.4" xlink:href="#k"/>
    <filter id="o" data-name="drop-shadow-4" x="1394" y="197.73" width="102" height="102" filterUnits="userSpaceOnUse">
      <feOffset dx="0" dy="8.89"/>
      <feGaussianBlur result="p" stdDeviation="5.33"/>
      <feFlood flood-color="#1e85ff" flood-opacity=".4"/>
      <feComposite in2="p" operator="in"/>
      <feComposite in="SourceGraphic"/>
    </filter>
    <filter id="q" data-name="drop-shadow-5" x="1412.75" y="210.48" width="65" height="66" filterUnits="userSpaceOnUse">
      <feOffset dx="0" dy="3.75"/>
      <feGaussianBlur result="r" stdDeviation="3.75"/>
      <feFlood flood-color="#1e85ff" flood-opacity=".4"/>
      <feComposite in2="r" operator="in"/>
      <feComposite in="SourceGraphic"/>
    </filter>
    <linearGradient id="s" data-name="Degradado sin nombre 152" x1="1481.48" y1="285.54" x2="1549.21" y2="353.27" xlink:href="#k"/>
    <filter id="t" data-name="drop-shadow-6" x="1456" y="281.73" width="119" height="93" filterUnits="userSpaceOnUse">
      <feOffset dx="0" dy="8.89"/>
      <feGaussianBlur result="u" stdDeviation="5.33"/>
      <feFlood flood-color="#1e85ff" flood-opacity=".4"/>
      <feComposite in2="u" operator="in"/>
      <feComposite in="SourceGraphic"/>
    </filter>
    <filter id="v" data-name="drop-shadow-7" x="1474.75" y="292.48" width="82" height="62" filterUnits="userSpaceOnUse">
      <feOffset dx="0" dy="3.75"/>
      <feGaussianBlur result="w" stdDeviation="3.75"/>
      <feFlood flood-color="#1e85ff" flood-opacity=".4"/>
      <feComposite in2="w" operator="in"/>
      <feComposite in="SourceGraphic"/>
    </filter>
    <linearGradient id="x" data-name="Degradado sin nombre 152" x1="1696.59" y1="128.34" x2="1786.54" y2="218.29" xlink:href="#k"/>
    <filter id="y" data-name="drop-shadow-8" x="1677" y="117.73" width="129" height="129" filterUnits="userSpaceOnUse">
      <feOffset dx="0" dy="8.89"/>
      <feGaussianBlur result="z" stdDeviation="5.33"/>
      <feFlood flood-color="#1e85ff" flood-opacity=".4"/>
      <feComposite in2="z" operator="in"/>
      <feComposite in="SourceGraphic"/>
    </filter>
    <filter id="aa" data-name="drop-shadow-9" x="1693.75" y="134.48" width="97" height="85" filterUnits="userSpaceOnUse">
      <feOffset dx="0" dy="3.75"/>
      <feGaussianBlur result="ab" stdDeviation="3.75"/>
      <feFlood flood-color="#1e85ff" flood-opacity=".4"/>
      <feComposite in2="ab" operator="in"/>
      <feComposite in="SourceGraphic"/>
    </filter>
    <linearGradient id="ac" data-name="Degradado sin nombre 152" x1="1413.49" y1="124.04" x2="1476.77" y2="187.32" xlink:href="#k"/>
    <filter id="ad" data-name="drop-shadow-10" x="1394" y="113.73" width="102" height="102" filterUnits="userSpaceOnUse">
      <feOffset dx="0" dy="8.89"/>
      <feGaussianBlur result="ae" stdDeviation="5.33"/>
      <feFlood flood-color="#1e85ff" flood-opacity=".4"/>
      <feComposite in2="ae" operator="in"/>
      <feComposite in="SourceGraphic"/>
    </filter>
  </defs>
  <g isolation="isolate">
    <g id="a" data-name="Calque 1">
      <g>
        <path d="M123.01,114.46h-41.07v-12.61c0-5.88-.53-9.63-1.58-11.24-1.05-1.61-2.8-2.42-5.25-2.42-2.66,0-4.67,1.09-6.04,3.26s-2.05,5.47-2.05,9.88c0,5.68.77,9.95,2.3,12.82,1.47,2.87,5.63,6.34,12.5,10.4,19.69,11.69,32.09,21.27,37.2,28.77,5.11,7.5,7.67,19.58,7.67,36.24,0,12.12-1.42,21.05-4.25,26.79-2.84,5.74-8.32,10.56-16.44,14.44-8.12,3.89-17.58,5.83-28.36,5.83-11.84,0-21.94-2.24-30.31-6.72-8.37-4.48-13.85-10.19-16.44-17.12-2.59-6.93-3.89-16.77-3.89-29.52v-11.14h41.07v20.7c0,6.37.58,10.47,1.73,12.29,1.16,1.82,3.2,2.73,6.15,2.73s5.13-1.16,6.57-3.47c1.43-2.31,2.15-5.74,2.15-10.29,0-10.01-1.37-16.56-4.1-19.64-2.8-3.08-9.7-8.23-20.69-15.44-11-7.28-18.28-12.57-21.85-15.86-3.57-3.29-6.53-7.84-8.88-13.66-2.35-5.81-3.52-13.24-3.52-22.27,0-13.03,1.66-22.55,4.99-28.57,3.33-6.02,8.7-10.73,16.12-14.13,7.42-3.4,16.39-5.09,26.89-5.09,11.48,0,21.27,1.86,29.36,5.57,8.09,3.71,13.45,8.39,16.07,14.02,2.63,5.64,3.94,15.22,3.94,28.73v6.72Z" fill="#1a73e8"/>
        <path d="M177.22,147.65h-39.81v-9.35c0-10.78,1.24-19.1,3.73-24.95,2.48-5.85,7.48-11.01,14.97-15.5,7.49-4.48,17.23-6.72,29.2-6.72,14.36,0,25.18,2.54,32.46,7.62,7.28,5.08,11.66,11.31,13.13,18.7,1.47,7.39,2.21,22.6,2.21,45.64v69.96h-41.28v-12.42c-2.59,4.98-5.94,8.72-10.03,11.21-4.1,2.49-8.98,3.74-14.65,3.74-7.42,0-14.23-2.08-20.43-6.25-6.2-4.17-9.3-13.29-9.3-27.37v-11.45c0-10.43,1.64-17.54,4.94-21.33,3.29-3.78,11.45-8.19,24.48-13.24,13.94-5.46,21.39-9.14,22.38-11.03.98-1.89,1.47-5.74,1.47-11.56,0-7.28-.54-12.03-1.63-14.23-1.09-2.21-2.89-3.31-5.41-3.31-2.87,0-4.66.93-5.36,2.78-.7,1.86-1.05,6.67-1.05,14.44v14.6ZM190.67,166.77c-6.79,4.97-10.73,9.14-11.82,12.5-1.09,3.36-1.63,8.19-1.63,14.5,0,7.21.47,11.87,1.42,13.97.95,2.1,2.82,3.15,5.62,3.15s4.39-.82,5.2-2.47c.8-1.64,1.21-5.97,1.21-12.97v-28.68Z" fill="#1a73e8"/>
        <path d="M285.63,147.65h-39.81v-9.35c0-10.78,1.24-19.1,3.73-24.95,2.48-5.85,7.48-11.01,14.97-15.5,7.49-4.48,17.23-6.72,29.2-6.72,14.36,0,25.18,2.54,32.46,7.62,7.28,5.08,11.66,11.31,13.13,18.7,1.47,7.39,2.21,22.6,2.21,45.64v69.96h-41.28v-12.42c-2.59,4.98-5.94,8.72-10.03,11.21-4.1,2.49-8.98,3.74-14.65,3.74-7.42,0-14.23-2.08-20.43-6.25-6.2-4.17-9.3-13.29-9.3-27.37v-11.45c0-10.43,1.64-17.54,4.94-21.33,3.29-3.78,11.45-8.19,24.48-13.24,13.94-5.46,21.39-9.14,22.38-11.03.98-1.89,1.47-5.74,1.47-11.56,0-7.28-.54-12.03-1.63-14.23-1.09-2.21-2.89-3.31-5.41-3.31-2.87,0-4.66.93-5.36,2.78-.7,1.86-1.05,6.67-1.05,14.44v14.6ZM299.08,166.77c-6.79,4.97-10.73,9.14-11.82,12.5-1.09,3.36-1.63,8.19-1.63,14.5,0,7.21.47,11.87,1.42,13.97.95,2.1,2.82,3.15,5.62,3.15s4.39-.82,5.2-2.47c.8-1.64,1.21-5.97,1.21-12.97v-28.68Z" fill="#1a73e8"/>
        <path d="M451.08,114.46h-41.07v-12.61c0-5.88-.53-9.63-1.58-11.24-1.05-1.61-2.8-2.42-5.25-2.42-2.66,0-4.67,1.09-6.04,3.26s-2.05,5.47-2.05,9.88c0,5.68.77,9.95,2.3,12.82,1.47,2.87,5.63,6.34,12.5,10.4,19.69,11.69,32.09,21.27,37.2,28.77,5.11,7.5,7.67,19.58,7.67,36.24,0,12.12-1.42,21.05-4.25,26.79-2.84,5.74-8.32,10.56-16.44,14.44-8.12,3.89-17.58,5.83-28.36,5.83-11.84,0-21.94-2.24-30.31-6.72-8.37-4.48-13.85-10.19-16.44-17.12-2.59-6.93-3.89-16.77-3.89-29.52v-11.14h41.07v20.7c0,6.37.58,10.47,1.73,12.29,1.16,1.82,3.2,2.73,6.15,2.73s5.13-1.16,6.57-3.47c1.43-2.31,2.15-5.74,2.15-10.29,0-10.01-1.37-16.56-4.1-19.64-2.8-3.08-9.7-8.23-20.69-15.44-11-7.28-18.28-12.57-21.85-15.86-3.57-3.29-6.53-7.84-8.88-13.66-2.35-5.81-3.52-13.24-3.52-22.27,0-13.03,1.66-22.55,4.99-28.57,3.33-6.02,8.7-10.73,16.12-14.13,7.42-3.4,16.39-5.09,26.89-5.09,11.48,0,21.27,1.86,29.36,5.57,8.09,3.71,13.45,8.39,16.07,14.02,2.63,5.64,3.94,15.22,3.94,28.73v6.72Z" fill="#1a73e8"/>
        <path d="M506.55,62.98h74.9v34.04h-30.67v32.25h27.31v32.35h-27.31v71.43h-44.23V62.98Z" fill="#1a73e8"/>
        <path d="M686.92,142.61v34.14c0,12.54-.63,21.73-1.89,27.58-1.26,5.85-3.96,11.31-8.09,16.39-4.13,5.08-9.44,8.82-15.92,11.24-6.48,2.42-13.92,3.62-22.32,3.62-9.39,0-17.33-1.03-23.85-3.1-6.51-2.06-11.57-5.18-15.18-9.35-3.61-4.17-6.18-9.21-7.72-15.13-1.54-5.92-2.31-14.79-2.31-26.63v-35.72c0-12.96,1.4-23.08,4.2-30.36,2.8-7.28,7.84-13.13,15.13-17.54,7.28-4.41,16.6-6.62,27.94-6.62,9.52,0,17.7,1.42,24.53,4.25,6.83,2.84,12.1,6.53,15.81,11.08,3.71,4.55,6.25,9.24,7.62,14.08,1.37,4.83,2.05,12.19,2.05,22.06ZM644.48,132.1c0-7.14-.39-11.64-1.16-13.5-.77-1.86-2.42-2.78-4.94-2.78s-4.2.93-5.04,2.78c-.84,1.86-1.26,6.36-1.26,13.5v62.92c0,6.58.42,10.87,1.26,12.87.84,2,2.48,2.99,4.94,2.99s4.18-.91,4.99-2.73c.8-1.82,1.21-5.74,1.21-11.77v-64.29Z" fill="#1a73e8"/>
        <path d="M798.06,93.66v139.4h-43.17l.74-11.58c-2.94,4.7-6.57,8.23-10.87,10.58s-9.26,3.53-14.86,3.53c-6.37,0-11.66-1.12-15.86-3.36-4.2-2.24-7.3-5.22-9.3-8.93-2-3.71-3.24-7.58-3.73-11.61-.49-4.03-.74-12.03-.74-24v-94.02h42.44v94.86c0,10.86.33,17.3,1,19.33.66,2.03,2.47,3.05,5.41,3.05,3.15,0,5.02-1.05,5.62-3.15.59-2.1.89-8.86.89-20.27v-93.81h42.44Z" fill="#1a73e8"/>
        <path d="M856.46,93.66l-.74,12.84c3.08-5.12,6.84-8.96,11.29-11.52,4.45-2.56,9.58-3.84,15.39-3.84,7.28,0,13.24,1.72,17.86,5.15,4.62,3.43,7.6,7.76,8.93,12.97,1.33,5.22,2,13.92,2,26.1v97.7h-42.44v-96.54c0-9.59-.32-15.44-.95-17.54-.63-2.1-2.38-3.15-5.25-3.15-3.01,0-4.9,1.21-5.67,3.62-.77,2.42-1.16,8.88-1.16,19.38v94.23h-42.44V93.66h43.17Z" fill="#1a73e8"/>
        <path d="M1022.34,62.98v170.07h-42.44v-10.11c-4.06,4.21-8.33,7.37-12.82,9.47-4.48,2.1-9.18,3.16-14.08,3.16-6.58,0-12.29-1.73-17.12-5.2s-7.93-7.47-9.3-12.03c-1.37-4.55-2.05-11.98-2.05-22.27v-65.24c0-10.71.68-18.31,2.05-22.79,1.37-4.48,4.5-8.42,9.4-11.82,4.9-3.4,10.75-5.09,17.54-5.09,5.25,0,10.07.95,14.44,2.84,4.38,1.9,8.35,4.74,11.92,8.53v-39.52h42.44ZM979.9,128.74c0-5.11-.44-8.54-1.31-10.29-.88-1.75-2.61-2.63-5.2-2.63s-4.22.79-5.09,2.36c-.88,1.58-1.31,5.09-1.31,10.56v68.28c0,5.67.42,9.4,1.26,11.19.84,1.79,2.45,2.68,4.83,2.68,2.73,0,4.55-1,5.46-2.99.91-2,1.37-6.88,1.37-14.65v-64.5Z" fill="#1a73e8"/>
        <path d="M1133.69,165.83h-54.94v30.15c0,6.3.46,10.37,1.37,12.19.91,1.82,2.66,2.73,5.25,2.73,3.22,0,5.37-1.21,6.46-3.62,1.08-2.42,1.63-7.09,1.63-14.02v-18.38h40.23v10.29c0,8.61-.54,15.23-1.63,19.85-1.09,4.62-3.62,9.56-7.62,14.81-3.99,5.25-9.05,9.19-15.18,11.82-6.13,2.63-13.81,3.94-23.06,3.94s-16.88-1.3-23.74-3.89c-6.86-2.59-12.2-6.15-16.02-10.66-3.82-4.52-6.46-9.49-7.93-14.92-1.47-5.43-2.21-13.32-2.21-23.69v-40.65c0-12.19,1.64-21.8,4.94-28.84,3.29-7.04,8.68-12.43,16.18-16.18,7.49-3.75,16.11-5.62,25.84-5.62,11.91,0,21.73,2.26,29.47,6.78,7.74,4.52,13.17,10.5,16.28,17.96,3.12,7.46,4.67,17.95,4.67,31.46v18.49ZM1091.14,143.13v-10.19c0-7.21-.39-11.87-1.16-13.97-.77-2.1-2.35-3.15-4.73-3.15-2.94,0-4.76.89-5.46,2.68-.7,1.79-1.05,6.6-1.05,14.44v10.19h12.4Z" fill="#1a73e8"/>
        <path d="M1189.99,93.66l-1.68,18.33c6.16-13.13,15.09-20.08,26.79-20.85v49.06c-7.77,0-13.48,1.05-17.12,3.15-3.64,2.1-5.88,5.03-6.72,8.77-.84,3.75-1.26,12.38-1.26,25.89v55.05h-42.44V93.66h42.44Z" fill="#1a73e8"/>
        <path d="M1340.19,62.98l25.29,170.07h-45.2l-2.37-30.57h-15.82l-2.66,30.57h-45.72l22.56-170.07h63.92ZM1316.75,172.34c-2.24-19.26-4.48-43.07-6.74-71.43-4.5,32.57-7.33,56.38-8.49,71.43h15.22Z" fill="#1a73e8"/>
        <path d="M1465.54,146.29h-40.02v-16.07c0-5.6-.46-9.4-1.37-11.4s-2.59-2.99-5.04-2.99-4.1.88-4.94,2.63c-.84,1.75-1.26,5.67-1.26,11.77v65.76c0,4.97.63,8.7,1.89,11.19,1.26,2.49,3.12,3.73,5.57,3.73,2.87,0,4.81-1.29,5.83-3.89,1.01-2.59,1.52-7.49,1.52-14.71v-16.6h37.82c-.07,11.13-.47,19.49-1.21,25.05s-3.08,11.28-7.04,17.12c-3.96,5.85-9.12,10.26-15.5,13.24-6.37,2.98-14.25,4.46-23.64,4.46-11.98,0-21.47-2.05-28.47-6.15s-11.96-9.84-14.86-17.23c-2.91-7.39-4.36-17.87-4.36-31.46v-39.6c0-11.83,1.19-20.76,3.57-26.79,2.38-6.02,7.46-11.4,15.23-16.12s17.23-7.09,28.36-7.09,20.52,2.35,28.36,7.04c7.84,4.69,13.06,10.61,15.65,17.75,2.59,7.14,3.89,17.26,3.89,30.36Z" fill="#1a73e8"/>
        <path d="M1571.95,146.29h-40.02v-16.07c0-5.6-.46-9.4-1.37-11.4s-2.59-2.99-5.04-2.99-4.1.88-4.94,2.63c-.84,1.75-1.26,5.67-1.26,11.77v65.76c0,4.97.63,8.7,1.89,11.19,1.26,2.49,3.12,3.73,5.57,3.73,2.87,0,4.81-1.29,5.83-3.89,1.01-2.59,1.52-7.49,1.52-14.71v-16.6h37.82c-.07,11.13-.47,19.49-1.21,25.05s-3.08,11.28-7.04,17.12c-3.96,5.85-9.12,10.26-15.5,13.24-6.37,2.98-14.25,4.46-23.64,4.46-11.98,0-21.47-2.05-28.47-6.15s-11.96-9.84-14.86-17.23c-2.91-7.39-4.36-17.87-4.36-31.46v-39.6c0-11.83,1.19-20.76,3.57-26.79,2.38-6.02,7.46-11.4,15.23-16.12s17.23-7.09,28.36-7.09,20.52,2.35,28.36,7.04c7.84,4.69,13.06,10.61,15.65,17.75,2.59,7.14,3.89,17.26,3.89,30.36Z" fill="#1a73e8"/>
        <path d="M1680.68,165.83h-54.94v30.15c0,6.3.46,10.37,1.37,12.19.91,1.82,2.66,2.73,5.25,2.73,3.22,0,5.37-1.21,6.46-3.62,1.08-2.42,1.63-7.09,1.63-14.02v-18.38h40.23v10.29c0,8.61-.54,15.23-1.63,19.85-1.09,4.62-3.62,9.56-7.62,14.81-3.99,5.25-9.05,9.19-15.18,11.82-6.13,2.63-13.81,3.94-23.06,3.94s-16.88-1.3-23.74-3.89c-6.86-2.59-12.2-6.15-16.02-10.66-3.82-4.52-6.46-9.49-7.93-14.92-1.47-5.43-2.21-13.32-2.21-23.69v-40.65c0-12.19,1.64-21.8,4.94-28.84,3.29-7.04,8.68-12.43,16.18-16.18,7.49-3.75,16.11-5.62,25.84-5.62,11.91,0,21.73,2.26,29.47,6.78,7.74,4.52,13.17,10.5,16.28,17.96,3.12,7.46,4.67,17.95,4.67,31.46v18.49ZM1638.13,143.13v-10.19c0-7.21-.39-11.87-1.16-13.97-.77-2.1-2.35-3.15-4.73-3.15-2.94,0-4.76.89-5.46,2.68-.7,1.79-1.05,6.6-1.05,14.44v10.19h12.4Z" fill="#1a73e8"/>
        <path d="M1781.21,138.2h-37.61v-7.56c0-6.44-.37-10.52-1.1-12.24-.74-1.71-2.57-2.57-5.52-2.57-2.38,0-4.17.79-5.36,2.36-1.19,1.58-1.79,3.94-1.79,7.09,0,4.27.3,7.41.89,9.4.59,2,2.38,4.19,5.36,6.57,2.98,2.38,9.09,5.85,18.33,10.4,12.33,6.02,20.41,11.7,24.27,17.02,3.85,5.32,5.78,13.06,5.78,23.22,0,11.34-1.47,19.91-4.41,25.68-2.94,5.78-7.86,10.23-14.76,13.34-6.9,3.12-15.21,4.67-24.95,4.67-10.79,0-20.01-1.68-27.68-5.04-7.67-3.36-12.94-7.91-15.81-13.66-2.87-5.74-4.31-14.43-4.31-26.05v-6.72h37.61v8.82c0,7.5.47,12.36,1.42,14.6.95,2.24,2.82,3.36,5.62,3.36,3.01,0,5.11-.75,6.3-2.26,1.19-1.5,1.79-4.67,1.79-9.51,0-6.65-.77-10.82-2.31-12.5-1.61-1.68-9.84-6.65-24.69-14.92-12.47-7-20.06-13.36-22.8-19.07-2.73-5.71-4.1-12.48-4.1-20.33,0-11.13,1.47-19.34,4.41-24.63,2.94-5.29,7.93-9.37,14.97-12.24,7.04-2.87,15.21-4.31,24.53-4.31s17.11,1.17,23.58,3.52c6.48,2.35,11.45,5.45,14.92,9.3,3.47,3.85,5.57,7.42,6.3,10.71.74,3.29,1.1,8.44,1.1,15.44v8.09Z" fill="#1a73e8"/>
        <path d="M1882.47,138.2h-37.61v-7.56c0-6.44-.37-10.52-1.1-12.24-.74-1.71-2.57-2.57-5.52-2.57-2.38,0-4.17.79-5.36,2.36-1.19,1.58-1.79,3.94-1.79,7.09,0,4.27.3,7.41.89,9.4.59,2,2.38,4.19,5.36,6.57,2.98,2.38,9.09,5.85,18.33,10.4,12.33,6.02,20.41,11.7,24.27,17.02,3.85,5.32,5.78,13.06,5.78,23.22,0,11.34-1.47,19.91-4.41,25.68-2.94,5.78-7.86,10.23-14.76,13.34-6.9,3.12-15.21,4.67-24.95,4.67-10.79,0-20.01-1.68-27.68-5.04-7.67-3.36-12.94-7.91-15.81-13.66-2.87-5.74-4.31-14.43-4.31-26.05v-6.72h37.61v8.82c0,7.5.47,12.36,1.42,14.6.95,2.24,2.82,3.36,5.62,3.36,3.01,0,5.11-.75,6.3-2.26,1.19-1.5,1.79-4.67,1.79-9.51,0-6.65-.77-10.82-2.31-12.5-1.61-1.68-9.84-6.65-24.69-14.92-12.47-7-20.06-13.36-22.8-19.07-2.73-5.71-4.1-12.48-4.1-20.33,0-11.13,1.47-19.34,4.41-24.63,2.94-5.29,7.93-9.37,14.97-12.24,7.04-2.87,15.21-4.31,24.53-4.31s17.11,1.17,23.58,3.52c6.48,2.35,11.45,5.45,14.92,9.3,3.47,3.85,5.57,7.42,6.3,10.71.74,3.29,1.1,8.44,1.1,15.44v8.09Z" fill="#1a73e8"/>
      </g>
      <line x1="32.01" y1="392.01" x2="684.67" y2="392.01" fill="none" stroke="#d7dbde" stroke-linecap="round" stroke-linejoin="round" stroke-width="2"/>
      <g>
        <path d="M550.13,243.84h-9.72c-1.36,0-2.59-.82-3.09-2.08-.13-.32-.26-.65-.4-.97-.53-1.24-.23-2.68.72-3.63l7.16-7.16c1.31-1.31,1.31-3.43,0-4.73l-13.7-13.7c-1.31-1.31-3.43-1.31-4.73,0l-7.04,7.04c-.99.99-2.47,1.22-3.76.67-.2-.08-.39-.17-.59-.25-1.29-.53-2.16-1.73-2.16-3.12v-10.36c0-1.85-1.5-3.35-3.35-3.35h-19.37c-1.85,0-3.35,1.5-3.35,3.35v10.35c0,1.39-.88,2.6-2.16,3.12-.11.04-.22.09-.32.13-1.28.54-2.76.31-3.74-.68l-7.61-7.61c-1.31-1.31-3.43-1.31-4.73,0l-13.7,13.7c-1.31,1.31-1.31,3.43,0,4.73l7.56,7.56c.99.99,1.22,2.47.68,3.76-.01.03-.03.06-.04.09-.53,1.27-1.74,2.14-3.12,2.14h-11.1c-1.85,0-3.35,1.5-3.35,3.35v19.37c0,1.85,1.5,3.35,3.35,3.35h10.77c1.4,0,2.62.89,3.14,2.19,0,.01.01.03.02.04.52,1.28.27,2.73-.7,3.7l-7.9,7.9c-1.31,1.31-1.31,3.43,0,4.73l13.7,13.7c1.31,1.31,3.43,1.31,4.73,0l7.46-7.46c1-1,2.5-1.22,3.8-.66.06.03.12.05.19.08,1.25.54,2.1,1.74,2.1,3.1v10.95c0,1.85,1.5,3.35,3.35,3.35h19.37c1.85,0,3.35-1.5,3.35-3.35v-10.14c0-1.37.83-2.61,2.11-3.1.23-.09.45-.18.67-.27,1.24-.51,2.66-.21,3.6.74l7.45,7.45c1.31,1.31,3.43,1.31,4.73,0l13.7-13.7c1.31-1.31,1.31-3.43,0-4.73l-6.94-6.94c-.97-.97-1.26-2.44-.7-3.69.13-.3.26-.6.39-.9.51-1.23,1.73-2.02,3.07-2.02h10.2c1.85,0,3.35-1.5,3.35-3.35v-19.37c0-1.85-1.5-3.35-3.35-3.35ZM499.3,275.75c-10.69,0-19.36-8.67-19.36-19.36s8.67-19.36,19.36-19.36,19.36,8.67,19.36,19.36-8.67,19.36-19.36,19.36Z" fill="#d7dbde"/>
        <g>
          <g>
            <g>
              <rect x="216.28" y="171.26" width="284.12" height="198.93" rx="12.39" ry="12.39" fill="#05062a"/>
              <g mix-blend-mode="multiply">
                <path d="M216.38,359.29c.74,6.14,5.96,10.9,12.29,10.9h259.34c6.34,0,11.55-4.76,12.29-10.9H216.38Z" fill="#e5e5e5"/>
              </g>
            </g>
            <rect x="226.4" y="181.38" width="263.88" height="174.52" rx="12.39" ry="12.39" fill="#1a73e8"/>
            <g>
              <g>
                <path d="M266.81,265.81c0-15.87,12.5-27.01,29.54-27.01,10.38,0,18.56,3.69,23.78,10.33l-11.29,9.82c-3.11-3.84-6.82-6.05-11.59-6.05-7.42,0-12.42,5.02-12.42,12.92s5,12.92,12.42,12.92c4.77,0,8.48-2.21,11.59-6.05l11.29,9.82c-5.23,6.64-13.41,10.33-23.78,10.33-17.04,0-29.54-11.14-29.54-27.01Z" fill="#fff"/>
                <path d="M375.65,291.64l-.15-23.54-11.51,18.89h-7.88l-11.51-18.08v22.73h-16.29v-51.66h14.69l17.27,27.53,16.82-27.53h14.69l.15,51.66h-16.29Z" fill="#fff"/>
                <path d="M400.26,287.51l5.76-12.7c5,2.88,11.66,4.72,17.5,4.72,5.08,0,6.89-1.03,6.89-2.8,0-6.5-29.31-1.25-29.31-20.52,0-9.6,8.26-17.42,24.69-17.42,7.12,0,14.47,1.48,20,4.5l-5.38,12.62c-5.23-2.58-10.15-3.84-14.77-3.84-5.23,0-6.89,1.48-6.89,3.25,0,6.2,29.31,1.03,29.31,20.08,0,9.45-8.26,17.42-24.69,17.42-8.86,0-17.8-2.14-23.1-5.31Z" fill="#fff"/>
              </g>
              <g>
                <rect x="271.1" y="300.33" width="115.62" height="3.87" fill="#599bff"/>
                <rect x="390.87" y="300.33" width="22.79" height="3.87" fill="#599bff"/>
                <rect x="416.32" y="300.33" width="22.79" height="3.87" fill="#fff"/>
                <rect x="390.87" y="315.08" width="22.79" height="3.87" fill="#599bff"/>
                <rect x="340.11" y="322.64" width="73.54" height="3.87" fill="#599bff"/>
                <rect x="416.32" y="315.08" width="22.79" height="3.87" fill="#fff"/>
                <rect x="298.04" y="307.71" width="115.62" height="3.87" fill="#fff"/>
                <rect x="416.13" y="307.71" width="22.79" height="3.87" fill="#599bff"/>
                <rect x="416.13" y="322.64" width="22.79" height="3.87" fill="#599bff"/>
              </g>
            </g>
            <g>
              <circle cx="247.26" cy="196.6" r="4.38" fill="#fff"/>
              <circle cx="261.86" cy="196.6" r="4.38" fill="#fff"/>
              <circle cx="276.45" cy="196.6" r="4.38" fill="#fff"/>
              <line x1="234.36" y1="206.33" x2="479.2" y2="206.33" fill="none" stroke="#fff" stroke-miterlimit="10" stroke-width=".97"/>
            </g>
          </g>
          <g>
            <path d="M512.59,391.88H204.09c-7.12,0-13.49-4.43-15.96-11.11l-5.62-15.17h351.66l-5.62,15.17c-2.47,6.68-8.84,11.11-15.96,11.11Z" fill="#d7dbde"/>
            <g mix-blend-mode="multiply">
              <path d="M187.72,379.67l.41,1.1c2.47,6.68,8.84,11.11,15.96,11.11h308.5c7.12,0,13.49-4.43,15.96-11.11l.41-1.1H187.72Z" fill="#e5e5e5"/>
            </g>
          </g>
        </g>
      </g>
      <g>
        <g>
          <rect x="151.95" y="257.57" width="99.05" height="73.35" rx="22.43" ry="22.43" fill="#fff" stroke="#d7dbde" stroke-miterlimit="10" stroke-width="2.88"/>
          <polygon points="225.35 295.03 185.32 273.99 185.32 316.58 225.35 295.03" fill="#1a73e8"/>
        </g>
        <g>
          <rect x="80.62" y="188.81" width="8.57" height="167.89" transform="translate(19.72 -5.37) rotate(4.1)" fill="#d7dbde"/>
          <rect x="181.66" y="82.11" width="35.82" height="5.21" fill="#d7dbde"/>
          <polygon points="96.36 188.87 192.43 75.42 186.15 70.64 86.04 188.87 96.36 188.87" fill="#d7dbde"/>
          <g>
            <rect x="70.45" y="351.96" width="17.99" height="23.35" fill="#05062a"/>
            <g mix-blend-mode="multiply">
              <rect x="70.45" y="363.33" width="17.99" height="11.99" fill="#e5e5e5"/>
            </g>
          </g>
          <rect x="61.93" y="369.79" width="78.26" height="22.09" rx="7.18" ry="7.18" fill="#05062a"/>
          <g mix-blend-mode="multiply">
            <path d="M61.93,382.26v2.45c0,3.97,3.21,7.18,7.18,7.18h63.9c3.97,0,7.18-3.21,7.18-7.18v-2.45H61.93Z" fill="#e5e5e5"/>
          </g>
          <g>
            <g>
              <path d="M208.17,67.91h16.73c5.14,0,9.31,4.17,9.31,9.31v28.56h-35.34v-28.56c0-5.14,4.17-9.31,9.31-9.31Z" fill="#1a73e8"/>
              <g mix-blend-mode="multiply">
                <rect x="198.86" y="90.63" width="35.34" height="15.15" fill="#e5e5e5"/>
              </g>
            </g>
            <path d="M217.95,95.04h0c21.86,0,39.6,17.75,39.6,39.6v15.31h-79.21v-15.31c0-21.86,17.75-39.6,39.6-39.6Z" fill="#1a73e8"/>
            <g mix-blend-mode="multiply">
              <rect x="178.35" y="137.33" width="79.21" height="12.62" fill="#e5e5e5"/>
            </g>
            <rect x="172.51" y="141.43" width="90.89" height="12.94" fill="#05062a"/>
          </g>
          <circle cx="91.99" cy="186.85" r="11.09" fill="#05062a"/>
        </g>
      </g>
      <g>
        <rect x="442.38" y="326.24" width="80.25" height="113.17" fill="#fff" stroke="#d7dbde" stroke-miterlimit="10" stroke-width="2.88"/>
        <rect x="452.51" y="340.78" width="59.77" height="2.93" fill="#1a73e8"/>
        <rect x="452.51" y="346.26" width="39.71" height="2.93" fill="#1a73e8"/>
        <rect x="452.51" y="351.8" width="51.93" height="2.93" fill="#1a73e8"/>
        <rect x="452.51" y="357.24" width="48.28" height="2.93" fill="#1a73e8"/>
        <rect x="452.51" y="404.57" width="48.28" height="2.93" fill="#1a73e8"/>
        <rect x="452.51" y="410.24" width="35.07" height="2.93" fill="#1a73e8"/>
        <rect x="452.51" y="416.07" width="39.82" height="2.93" fill="#1a73e8"/>
      </g>
      <g>
        <g>
          <g>
            <rect x="311.99" y="68.65" width="171.72" height="28.33" rx="7.95" ry="7.95" fill="#fff" stroke="#d7dbde" stroke-miterlimit="10" stroke-width="2"/>
            <path d="M475.77,68.65h-42.63c-4.79,0-8.68,3.89-8.68,8.68v10.97c0,4.79,3.89,8.68,8.68,8.68h42.63c4.39,0,7.95-3.56,7.95-7.95v-12.44c0-4.39-3.56-7.95-7.95-7.95Z" fill="#1a73e8"/>
          </g>
          <g>
            <rect x="311.99" y="103.98" width="171.72" height="28.33" rx="7.95" ry="7.95" fill="#fff" stroke="#d7dbde" stroke-miterlimit="10" stroke-width="2"/>
            <path d="M475.77,103.98h-42.63c-4.79,0-8.68,3.89-8.68,8.68v10.97c0,4.79,3.89,8.68,8.68,8.68h42.63c4.39,0,7.95-3.56,7.95-7.95v-12.44c0-4.39-3.56-7.95-7.95-7.95Z" fill="#05062a"/>
          </g>
          <g>
            <circle cx="508.68" cy="148.16" r="67.29" transform="translate(279.29 625.74) rotate(-80.58)" fill="#fff" stroke="#d7dbde" stroke-miterlimit="10" stroke-width="2.88"/>
            <g>
              <path d="M469.56,149.44l12.27-17.06h12.19l-11.93,17.06,11.93,16.98h-12.19l-12.27-16.98Z" fill="#1a73e8"/>
              <path d="M517.7,105.92h12.1l-28.73,82h-12.1l28.73-82Z" fill="#1a73e8"/>
              <path d="M523.44,166.42l11.93-16.98-11.93-17.06h12.19l12.27,17.06-12.27,16.98h-12.19Z" fill="#1a73e8"/>
            </g>
          </g>
        </g>
        <g>
          <g>
            <path d="M648.67,205.41h-54c-9.66,0-17.5,7.84-17.5,17.5v7c0,9.67,7.83,17.5,17.5,17.5h23.88l12.46,22.33,13.71-22.33h3.95c9.67,0,17.5-7.83,17.5-17.5v-7c0-9.66-7.83-17.5-17.5-17.5Z" fill="#1a73e8"/>
            <g>
              <path d="M596.2,226.63c0-4.2,3.11-6.95,7.02-6.95s7.02,2.75,7.02,6.95-3.11,7.09-7.02,7.09-7.02-2.97-7.02-7.09Z" fill="#fff"/>
              <path d="M615.16,226.63c0-4.2,3.11-6.95,7.02-6.95s7.02,2.75,7.02,6.95-3.11,7.09-7.02,7.09-7.02-2.97-7.02-7.09Z" fill="#fff"/>
              <path d="M634.13,226.63c0-4.2,3.11-6.95,7.02-6.95s7.02,2.75,7.02,6.95-3.11,7.09-7.02,7.09-7.02-2.97-7.02-7.09Z" fill="#fff"/>
            </g>
          </g>
          <g>
            <g>
              <g>
                <rect x="593.93" y="285" width="55.48" height="18.17" fill="#d7dbde"/>
                <rect x="593.93" y="290.91" width="55.48" height="12.25" fill="#e5e5e5" mix-blend-mode="multiply"/>
              </g>
              <polygon points="642.37 391.88 599.28 391.88 591.68 303.59 651.67 303.59 642.37 391.88" fill="#1a73e8"/>
              <g mix-blend-mode="multiply">
                <polygon points="651.67 303.59 591.68 303.59 593.64 317.74 649.27 317.74 651.67 303.59" fill="#e5e5e5"/>
              </g>
              <rect x="583.02" y="293.24" width="77.31" height="18.17" fill="#05062a"/>
            </g>
            <circle cx="621.67" cy="348.82" r="16.92" transform="translate(-50.85 585.18) rotate(-48.66)" fill="#fff"/>
          </g>
        </g>
      </g>
      <path d="M1231.29,408.74s60.92,11.19,80.31-31.14c25.16-54.91-26.53-96.55-66.17-88.79-86.38,16.9-21.4-145.67-196.15-99.8-39.1,10.26-124.55-122.69-181.75,17.34-9.54,23.35-31.73,26.91-67.66,42.29-70.31,30.1-38.16,160.6,12.08,161.11,50.24.51,419.34-1.02,419.34-1.02Z" fill="#1a73e8"/>
      <g>
        <path d="M893.57,352.82h0c11.08,0,20.07,8.99,20.07,20.07h0c0,11.08-8.99,20.07-20.07,20.07h0c-11.08,0-20.07-8.99-20.07-20.07h0c0-11.08,8.99-20.07,20.07-20.07Z" fill="#aa413e"/>
        <path d="M898.88,352.82h0c11.08,0,20.07,8.99,20.07,20.07h0c0,11.08-8.99,20.07-20.07,20.07h0c-11.08,0-20.07-8.99-20.07-20.07h0c0-11.08,8.99-20.07,20.07-20.07Z" fill="#c65447"/>
      </g>
      <g>
        <rect x="1109.23" y="88.46" width="40.14" height="40.14" rx="20.07" ry="20.07" fill="#d86713"/>
        <rect x="1114.54" y="88.46" width="40.14" height="40.14" rx="20.07" ry="20.07" fill="#f1a34f"/>
      </g>
      <g>
        <rect x="810.92" y="144.47" width="40.14" height="40.14" rx="20.07" ry="20.07" fill="#82b479"/>
        <rect x="816.23" y="144.47" width="40.14" height="40.14" rx="20.07" ry="20.07" fill="#a8d29f"/>
      </g>
      <g>
        <path d="M971.01,249.87l-12.65,150.41s-1.33,9.12,5.46,9.13c11.15.03,55.5,0,55.5,0,0,0-8.39-1.9-8.29-6.17.12-5.03,14.79-154.8,14.79-154.8l-54.8,1.42Z" fill="#4a75cb"/>
        <path d="M1022.91,406.68c-2.19,0-44.55.14-55.41,0-4.73-.06-5.56-4.21-5.6-6.89-.02-1.29.14-2.24.14-2.24l.33-3.91.84-9.96.74-8.8.95-11.31.8-9.55,8.99-106.88,54.8-1.42s-6.18,62.68-10.55,108.3c-.49,5.08-.95,9.96-1.38,14.51-.14,1.45-.27,2.87-.4,4.26-.41,4.32-.78,8.28-1.1,11.78-.17,1.84-.33,3.56-.47,5.13-.56,6.15-.88,10.08-.89,10.83,0,.44.03.84.11,1.22.9,4.79,7.27,4.95,8.1,4.95Z" fill="#afcdfb"/>
        <polygon points="1101.03 168.02 837.92 168.02 868.73 291.79 872.95 308.74 887.3 366.39 1153.92 366.39 1101.03 168.02" fill="#afcdfb"/>
        <polygon points="837.92 168.02 833.64 169.44 881.62 370.7 887.3 366.39 837.92 168.02" fill="#699dee"/>
        <polygon points="881.62 370.7 1146.6 370.7 1153.92 366.39 887.3 366.39 881.62 370.7" fill="#4a75cb"/>
        <rect x="974.68" y="406.74" width="57.37" height="2.73" transform="translate(2006.72 816.22) rotate(180)" fill="#4a75cb"/>
        <polygon points="1017.46 370.69 1017.17 372.78 963.21 383.68 961.9 383.13 962.53 370.28 1012.77 369.33 1017.46 370.69" fill="#4a75cb"/>
        <path d="M1024.75,406.74c-2.19,0-46.39.08-57.24-.06-4.73-.06-5.56-4.21-5.6-6.89l53.7-10.1c-.56,6.15-.88,10.08-.89,10.83,0,.44.03.84.11,1.22.9,4.79,9.1,5.01,9.93,5.01Z" fill="#699dee"/>
        <polygon points="1000.96 327.42 887.3 366.39 877.59 327.4 1000.96 327.42" fill="#699dee" opacity=".2"/>
        <polygon points="1101.03 168.02 837.92 168.02 877.57 327.4 1143.72 327.45 1101.03 168.02" fill="#699dee"/>
      </g>
      <polygon points="1131.31 320.54 884.96 320.54 857.06 209.4 854.92 200.88 853.09 193.61 848.81 176.56 1091.61 176.56 1096.31 193.61 1098.32 200.88 1100.67 209.4 1131.31 320.54" fill="#fff"/>
      <polygon points="1091.61 176.56 848.81 176.56 853.09 193.61 1096.31 193.61 1091.61 176.56" fill="#f1a34f"/>
      <g>
        <path d="M860.46,182.13c-1.18,0-1.89.95-1.6,2.13.29,1.18,1.49,2.13,2.66,2.13s1.89-.95,1.6-2.13-1.49-2.13-2.66-2.13Z" fill="#e9f3fe"/>
        <path d="M867.54,182.13c-1.18,0-1.89.95-1.6,2.13s1.49,2.13,2.66,2.13,1.89-.95,1.6-2.13c-.29-1.18-1.49-2.13-2.66-2.13Z" fill="#e9f3fe"/>
        <path d="M877.82,184.26c-.29-1.18-1.49-2.13-2.66-2.13s-1.89.95-1.6,2.13c.29,1.18,1.49,2.13,2.66,2.13s1.89-.95,1.6-2.13Z" fill="#e9f3fe"/>
      </g>
      <g>
        <path d="M1116.36,107.99l12.45-5.78v2.75l-9.42,4.12v.05l9.42,4.12v2.75l-12.45-5.79v-2.23Z" fill="#fff"/>
        <path d="M1130.73,118.74l5.55-18.81h2.62l-5.55,18.81h-2.62Z" fill="#fff"/>
        <path d="M1152.86,110.3l-12.45,5.71v-2.75l9.62-4.12v-.05l-9.62-4.12v-2.75l12.45,5.71v2.39Z" fill="#fff"/>
      </g>
      <g>
        <path d="M822.56,163.23c2.34-.07,2.57-1.29,2.57-2.3,0-.85-.1-1.73-.2-2.64-.1-.91-.17-1.83-.17-2.67,0-3.18,2-4.57,5.15-4.57h1.18v2.88h-.61c-1.52,0-2.07.91-2.07,2.4,0,.61.1,1.22.17,1.93.07.68.17,1.46.17,2.3.03,2.57-1.02,3.52-2.88,3.93v.07c1.86.41,2.91,1.39,2.88,3.96,0,.88-.1,1.66-.17,2.37-.07.68-.17,1.32-.17,1.9,0,1.49.51,2.44,2.07,2.44h.61v2.84h-1.22c-3.01,0-5.11-1.22-5.11-4.6,0-.85.07-1.76.17-2.67.1-.91.2-1.79.2-2.64,0-.95-.24-2.23-2.57-2.3v-2.61Z" fill="#fff"/>
        <path d="M848.63,165.84c-2.3.07-2.57,1.35-2.57,2.3,0,.85.1,1.73.2,2.64.1.91.2,1.83.2,2.67,0,3.39-2.1,4.6-5.15,4.6h-1.22v-2.84h.61c1.56-.03,2.07-.95,2.07-2.44,0-.58-.07-1.22-.17-1.9-.07-.71-.17-1.49-.17-2.37-.03-2.57,1.02-3.55,2.91-3.96v-.07c-1.9-.41-2.94-1.35-2.91-3.93,0-.85.1-1.62.17-2.3.1-.71.17-1.32.17-1.93,0-1.49-.54-2.37-2.07-2.4h-.61v-2.88h1.18c3.18,0,5.18,1.39,5.18,4.57,0,.85-.1,1.76-.2,2.67-.1.91-.2,1.79-.2,2.64,0,1.02.27,2.23,2.57,2.3v2.61Z" fill="#fff"/>
      </g>
      <path d="M951.28,205.87h-84.96c-.82,0-1.54-.54-1.76-1.33h0c-.34-1.17.54-2.35,1.76-2.35h84.96c.82,0,1.54.54,1.76,1.32h0c.34,1.17-.54,2.35-1.76,2.35Z" fill="#f1a34f"/>
      <path d="M1052.18,214.25h-183.86c-.82,0-1.54-.54-1.76-1.32h0c-.34-1.17.54-2.35,1.76-2.35h183.86c.82,0,1.54.54,1.76,1.32h0c.34,1.17-.54,2.35-1.76,2.35Z" fill="#a8d29f"/>
      <path d="M990.12,222.63h-119.72c-.82,0-1.54-.54-1.76-1.32h0c-.34-1.17.54-2.35,1.76-2.35h119.72c.82,0,1.54.54,1.76,1.32h0c.34,1.17-.54,2.35-1.76,2.35Z" fill="#699dee"/>
      <path d="M969.75,267.01h-84.96c-.82,0-1.54-.54-1.76-1.32h0c-.34-1.17.54-2.35,1.76-2.35h84.96c.82,0,1.54.54,1.76,1.32h0c.34,1.17-.54,2.35-1.76,2.35Z" fill="#f1a34f"/>
      <path d="M1008.6,283.77h-119.72c-.82,0-1.54-.54-1.76-1.32h0c-.34-1.17.54-2.35,1.76-2.35h119.72c.82,0,1.54.54,1.76,1.32h0c.34,1.17-.54,2.35-1.76,2.35Z" fill="#c65447"/>
      <path d="M944.25,234.89h-70.49c-.82,0-1.54-.54-1.76-1.33h0c-.34-1.17.54-2.35,1.76-2.35h70.49c.82,0,1.54.54,1.76,1.32h0c.34,1.17-.54,2.35-1.76,2.35Z" fill="#a8d29f"/>
      <path d="M908.12,376.18l-2.48-1.36c.16-.61.24-1.25.24-1.92,0-1.17-.26-2.28-.73-3.27l2.2-1.8-2.43-2.96-2.2,1.81c-.78-.57-1.67-1-2.64-1.25v-2.85h-3.83v2.85c-1.44.37-2.71,1.14-3.7,2.19l-2.49-1.37-1.85,3.36,2.49,1.37c-.16.62-.25,1.27-.25,1.94,0,1.16.26,2.26.72,3.25l-2.19,1.8,2.43,2.96,2.18-1.79c.78.58,1.68,1.01,2.65,1.26v2.82h3.83v-2.82c1.44-.37,2.73-1.15,3.71-2.2l2.48,1.36,1.85-3.36ZM898.17,377.59c-2.59,0-4.69-2.1-4.69-4.69s2.1-4.69,4.69-4.69,4.69,2.1,4.69,4.69-2.1,4.69-4.69,4.69Z" fill="#fff"/>
      <g>
        <g>
          <path d="M1735.43,144.36c0-3.21-.32-6.34-.94-9.36l15.66-9.04-14.66-25.4-15.61,9.01c-4.72-4.23-10.32-7.51-16.48-9.55v-17.99h-29.33v17.99c-2.74.91-5.37,2.05-7.86,3.42-.3.16-.59.34-.88.51-.29.17-.59.33-.88.51-2.43,1.47-4.74,3.17-6.89,5.09l-15.58-9-14.66,25.4,15.58,9c-.59,2.82-.91,5.67-.96,8.51,0,.34,0,.69,0,1.03,0,.33,0,.66,0,1,.06,2.84.38,5.69.96,8.52l-15.58,9,14.66,25.4,15.58-9c4.84,4.32,10.48,7.52,16.5,9.5v18.02h29.33v-18.08c2.93-.98,5.8-2.26,8.58-3.87,2.84-1.64,5.45-3.54,7.8-5.65l15.71,9.07,14.66-25.4-15.71-9.07c.64-3.09.99-6.3.99-9.58ZM1707.94,165.03c-.13.12-.25.23-.38.35-.51.46-1.03.89-1.56,1.31-.25.19-.5.38-.76.57-.44.32-.88.62-1.34.91-.36.23-.73.45-1.1.67-.37.22-.75.42-1.13.62-.48.25-.97.48-1.46.7-.29.13-.58.25-.87.37-.63.25-1.26.49-1.91.7-.16.05-.33.11-.49.16-2.59.78-5.34,1.22-8.19,1.22-15.6,0-28.25-12.65-28.25-28.25,0-3.82.77-7.46,2.14-10.78.07-.16.13-.31.2-.47.25-.58.54-1.15.83-1.72.19-.36.38-.71.58-1.06.2-.35.41-.69.63-1.03.34-.53.69-1.06,1.07-1.57.1-.14.2-.27.3-.41,2.19-2.85,4.96-5.34,8.27-7.25,13.51-7.8,30.78-3.17,38.58,10.34,1.42,2.47,2.43,5.06,3.04,7.7.04.17.07.33.11.5.14.67.26,1.34.35,2.01.04.31.08.63.11.94.06.54.1,1.08.12,1.62.02.43.03.86.03,1.28,0,.43,0,.86-.03,1.29-.03.54-.06,1.07-.12,1.61-.03.32-.07.63-.11.95-.09.67-.21,1.34-.35,2-.04.17-.07.34-.11.51-.62,2.64-1.62,5.23-3.04,7.7-1.42,2.47-3.17,4.63-5.15,6.48Z" fill="#ebebf2"/>
          <path d="M1805.11,233.68c0-1.81-.18-3.57-.53-5.28l8.83-5.1-8.27-14.32-8.8,5.08c-2.66-2.39-5.82-4.23-9.29-5.38v-10.14h-16.53v10.14c-1.54.51-3.03,1.16-4.43,1.93-.17.09-.33.19-.5.28-.16.1-.33.19-.49.29-1.37.83-2.67,1.79-3.89,2.87l-8.78-5.07-8.27,14.32,8.78,5.07c-.33,1.59-.51,3.2-.54,4.8,0,.19,0,.39,0,.58,0,.19,0,.37,0,.56.03,1.6.21,3.21.54,4.8l-8.78,5.07,8.27,14.32,8.78-5.07c2.73,2.43,5.91,4.24,9.3,5.35v10.16h16.53v-10.19c1.65-.55,3.27-1.28,4.83-2.18,1.6-.93,3.07-2,4.4-3.18l8.85,5.11,8.27-14.32-8.85-5.11c.36-1.74.56-3.55.56-5.4ZM1789.61,245.33c-.07.07-.14.13-.22.2-.28.26-.58.5-.88.74-.14.11-.28.22-.43.32-.25.18-.5.35-.75.51-.2.13-.41.26-.62.38-.21.12-.42.24-.64.35-.27.14-.54.27-.82.4-.16.07-.33.14-.49.21-.35.14-.71.28-1.08.39-.09.03-.18.06-.28.09-1.46.44-3.01.69-4.62.69-8.79,0-15.92-7.13-15.92-15.92,0-2.15.43-4.2,1.21-6.08.04-.09.07-.18.11-.26.14-.33.3-.65.47-.97.11-.2.21-.4.33-.6.11-.2.23-.39.35-.58.19-.3.39-.6.6-.89.06-.08.11-.15.17-.23,1.24-1.61,2.8-3.01,4.66-4.08,7.62-4.4,17.35-1.79,21.75,5.83.8,1.39,1.37,2.85,1.72,4.34.02.09.04.19.06.28.08.38.14.75.2,1.13.02.18.04.35.06.53.03.3.05.61.07.91.01.24.02.48.02.72,0,.24,0,.49-.02.73-.01.3-.04.61-.07.91-.02.18-.04.36-.06.53-.05.38-.12.75-.2,1.13-.02.1-.04.19-.06.29-.35,1.49-.91,2.95-1.71,4.34-.8,1.39-1.79,2.61-2.9,3.66Z" fill="#ebebf2"/>
          <path d="M1483.54,331.78c-.91-2.34-2.03-4.54-3.34-6.58l8.89-11.05-17.92-14.42-8.86,11.01c-4.65-1.76-9.67-2.57-14.75-2.31l-5.1-13.16-21.45,8.31,5.1,13.16c-1.75,1.44-3.34,3.02-4.78,4.73-.17.2-.33.41-.5.62-.17.21-.34.41-.5.62-1.36,1.76-2.57,3.66-3.6,5.68l-13.94-2.17-3.53,22.73,13.94,2.17c.37,2.23.94,4.41,1.71,6.5.09.25.19.5.29.76.09.24.18.49.28.73.85,2.06,1.89,4.05,3.12,5.96l-8.85,10.99,17.92,14.42,8.85-10.99c4.76,1.78,9.79,2.53,14.76,2.27l5.1,13.18,21.45-8.31-5.12-13.22c1.86-1.55,3.6-3.3,5.18-5.26,1.61-2.01,2.98-4.13,4.11-6.34l14.05,2.18,3.53-22.73-14.05-2.18c-.4-2.44-1.06-4.88-1.99-7.29ZM1469.29,354.68c-.06.12-.12.24-.18.36-.24.48-.5.94-.77,1.4-.13.21-.26.42-.4.63-.23.36-.47.7-.72,1.05-.2.27-.4.54-.62.8-.21.26-.43.52-.65.77-.28.32-.57.63-.87.93-.17.18-.35.35-.53.52-.39.36-.79.72-1.2,1.05-.1.09-.21.17-.32.25-1.67,1.31-3.56,2.4-5.65,3.21-11.41,4.42-24.24-1.25-28.66-12.66-1.08-2.79-1.55-5.67-1.49-8.49,0-.13,0-.26.01-.4.02-.5.06-.99.12-1.49.04-.31.07-.63.12-.94.05-.31.11-.62.17-.93.1-.49.21-.97.34-1.45.03-.13.07-.26.11-.38.79-2.71,2.11-5.31,3.99-7.64,7.67-9.53,21.61-11.04,31.14-3.37,1.74,1.4,3.21,3.02,4.41,4.77.08.11.15.22.22.34.29.45.57.91.83,1.37.12.22.24.43.35.66.19.38.38.76.55,1.15.13.31.26.62.38.93.12.32.24.63.35.95.13.4.26.8.37,1.21.07.24.13.48.19.72.12.52.23,1.04.31,1.56.02.13.04.27.06.4.3,2.1.3,4.28-.04,6.49-.34,2.21-1.01,4.29-1.93,6.2Z" fill="#ebebf2"/>
          <g>
            <path d="M1595.34,133.64h-199.97c-1.41,0-2.56-1.15-2.56-2.56h0c0-1.41,1.15-2.56,2.56-2.56h199.97c1.41,0,2.56,1.15,2.56,2.56h0c0,1.41-1.15,2.56-2.56,2.56Z" fill="#ebebf2"/>
            <path d="M1595.34,151.97h-199.97c-1.41,0-2.56-1.15-2.56-2.56h0c0-1.41,1.15-2.56,2.56-2.56h199.97c1.41,0,2.56,1.15,2.56,2.56h0c0,1.41-1.15,2.56-2.56,2.56Z" fill="#ebebf2"/>
            <path d="M1595.34,170.31h-199.97c-1.41,0-2.56-1.15-2.56-2.56h0c0-1.41,1.15-2.56,2.56-2.56h199.97c1.41,0,2.56,1.15,2.56,2.56h0c0,1.41-1.15,2.56-2.56,2.56Z" fill="#ebebf2"/>
            <path d="M1395.37,183.53h199.97c1.41,0,2.56,1.15,2.56,2.56h0c0,1.41-1.15,2.56-2.56,2.56h-199.97c-1.41,0-2.56-1.15-2.56-2.56h0c0-1.41,1.15-2.56,2.56-2.56Z" fill="#ebebf2"/>
            <path d="M1595.34,206.98h-199.97c-1.41,0-2.56-1.15-2.56-2.56h0c0-1.41,1.15-2.56,2.56-2.56h199.97c1.41,0,2.56,1.15,2.56,2.56h0c0,1.41-1.15,2.56-2.56,2.56Z" fill="#ebebf2"/>
            <path d="M1595.34,225.32h-199.97c-1.41,0-2.56-1.15-2.56-2.56h0c0-1.41,1.15-2.56,2.56-2.56h199.97c1.41,0,2.56,1.15,2.56,2.56h0c0,1.41-1.15,2.56-2.56,2.56Z" fill="#ebebf2"/>
            <path d="M1595.34,243.66h-199.97c-1.41,0-2.56-1.15-2.56-2.56h0c0-1.41,1.15-2.56,2.56-2.56h199.97c1.41,0,2.56,1.15,2.56,2.56h0c0,1.41-1.15,2.56-2.56,2.56Z" fill="#ebebf2"/>
            <path d="M1595.34,261.99h-199.97c-1.41,0-2.56-1.15-2.56-2.56h0c0-1.41,1.15-2.56,2.56-2.56h199.97c1.41,0,2.56,1.15,2.56,2.56h0c0,1.41-1.15,2.56-2.56,2.56Z" fill="#ebebf2"/>
            <path d="M1595.34,280.33h-199.97c-1.41,0-2.56-1.15-2.56-2.56h0c0-1.41,1.15-2.56,2.56-2.56h199.97c1.41,0,2.56,1.15,2.56,2.56h0c0,1.41-1.15,2.56-2.56,2.56Z" fill="#ebebf2"/>
          </g>
        </g>
        <g>
          <ellipse cx="1595.98" cy="396.46" rx="153.55" ry="14.5" fill="#ebebf2"/>
          <g>
            <polygon points="1640.48 397.22 1551.49 397.22 1566.79 353.1 1625.18 353.1 1640.48 397.22" fill="url(#b)"/>
            <g>
              <path d="M1453.39,218.86h285.18v141.22c0,8.45-6.86,15.3-15.3,15.3h-254.57c-8.45,0-15.3-6.86-15.3-15.3v-141.22h0Z" fill="url(#c)"/>
              <path d="M1468.7,174.98h254.57c8.45,0,15.3,6.86,15.3,15.3v148.88h-285.18v-148.88c0-8.45,6.86-15.3,15.3-15.3Z" fill="#3d3d89"/>
              <rect x="1464.86" y="190.44" width="262.74" height="132.97" fill="#1a73e8"/>
            </g>
            <circle cx="1595.98" cy="355.4" r="8.3" fill="url(#d)" mix-blend-mode="multiply"/>
            <path d="M1663.66,397.22h-135.36c0-4.54,3.68-8.23,8.23-8.23h118.91c4.54,0,8.23,3.68,8.23,8.23h0Z" fill="url(#e)"/>
          </g>
        </g>
        <g>
          <ellipse cx="1724.08" cy="420.52" rx="62.22" ry="8.9" fill="#ebebf2"/>
          <g>
            <g>
              <rect x="1684.06" y="279.7" width="80.04" height="137.37" rx="8.89" ry="8.89" fill="#4b4ba0"/>
              <rect x="1684.06" y="289.27" width="80.04" height="117.68" fill="#1a73e8"/>
              <rect x="1695.26" y="319.57" width="57.63" height="57.63" rx="8.89" ry="8.89" fill="url(#f)" filter="url(#g)"/>
              <g filter="url(#i)">
                <path d="M1724.08,370.45c-12.16,0-22.06-9.9-22.06-22.06s9.9-22.06,22.06-22.06,22.06,9.9,22.06,22.06-9.9,22.06-22.06,22.06ZM1724.08,330.4c-9.92,0-17.98,8.07-17.98,17.99s8.07,17.98,17.98,17.98,17.98-8.07,17.98-17.98-8.07-17.99-17.98-17.99Z" fill="#fff"/>
                <polygon points="1722.48 356.77 1714.77 349.99 1718 346.31 1722.03 349.86 1729.7 341.08 1733.39 344.3 1722.48 356.77" fill="#fff"/>
              </g>
            </g>
            <path d="M1734.11,293.93h-20.06c-3.09,0-5.6-2.51-5.6-5.6h31.26c0,3.09-2.51,5.6-5.6,5.6Z" fill="#4b4ba0"/>
            <path d="M1731.32,289.27h-14.48c-.52,0-.93-.42-.93-.93h0c0-.52.42-.93.93-.93h14.48c.51,0,.93.42.93.93h0c0,.52-.42.93-.93.93Z" fill="#fff" opacity=".15"/>
          </g>
        </g>
        <g>
          <g>
            <rect x="1499.05" y="161.08" width="175.15" height="112.93" rx="8.89" ry="8.89" fill="url(#k)" filter="url(#l)"/>
            <rect x="1507.94" y="169.97" width="157.37" height="95.15" fill="#3d3d89"/>
            <g>
              <rect x="1524.72" y="182.68" width="16.37" height="2.21" fill="#ffc700"/>
              <rect x="1546.27" y="182.68" width="33.5" height="2.21" fill="#ffc700"/>
              <rect x="1531.66" y="191.64" width="16.37" height="2.21" fill="#fff"/>
              <rect x="1553.22" y="191.64" width="95.72" height="2.21" fill="#1e9aff"/>
              <rect x="1531.66" y="199.96" width="16.37" height="2.21" fill="#fff"/>
              <rect x="1553.22" y="199.96" width="95.72" height="2.21" fill="#1e9aff"/>
              <rect x="1531.66" y="208.27" width="16.37" height="2.21" fill="#fff"/>
              <rect x="1553.22" y="208.27" width="95.72" height="2.21" fill="#1e9aff"/>
              <rect x="1531.66" y="216.59" width="16.37" height="2.21" fill="#fff"/>
              <rect x="1524.72" y="225.39" width="16.37" height="2.21" fill="#ffc700"/>
              <rect x="1546.27" y="225.39" width="33.5" height="2.21" fill="#ffc700"/>
              <rect x="1553.22" y="234.35" width="61.72" height="2.21" fill="#fff"/>
              <rect x="1553.22" y="242.67" width="61.72" height="2.21" fill="#fff"/>
              <rect x="1542.6" y="242.67" width="5.43" height="2.21" fill="#1e9aff"/>
              <rect x="1531.66" y="250.98" width="16.37" height="2.21" fill="#1e9aff"/>
              <rect x="1553.22" y="250.98" width="61.72" height="2.21" fill="#fff"/>
              <rect x="1619.38" y="234.35" width="30.25" height="2.21" fill="#fff"/>
              <rect x="1619.38" y="242.67" width="30.25" height="2.21" fill="#fff"/>
              <rect x="1619.38" y="250.98" width="30.25" height="2.21" fill="#fff"/>
              <rect x="1553.22" y="216.59" width="95.72" height="2.21" fill="#1e9aff"/>
            </g>
          </g>
          <g>
            <rect x="1410.89" y="205.52" width="68.49" height="68.49" rx="8.89" ry="8.89" fill="url(#n)" filter="url(#o)"/>
            <path d="M1460.92,239.72c0-1.08-.11-2.14-.32-3.16l5.29-3.06-4.96-8.58-5.28,3.05c-1.6-1.43-3.49-2.54-5.57-3.23v-6.08h-9.91v6.08c-.93.31-1.81.69-2.65,1.16-.1.05-.2.11-.3.17-.1.06-.2.11-.3.17-.82.5-1.6,1.07-2.33,1.72l-5.27-3.04-4.96,8.58,5.27,3.04c-.2.95-.31,1.92-.33,2.88,0,.12,0,.23,0,.35,0,.11,0,.22,0,.34.02.96.13,1.92.33,2.88l-5.27,3.04,4.96,8.58,5.27-3.04c1.64,1.46,3.54,2.54,5.58,3.21v6.09h9.91v-6.11c.99-.33,1.96-.77,2.9-1.31.96-.56,1.84-1.2,2.64-1.91l5.31,3.06,4.96-8.58-5.31-3.06c.22-1.05.33-2.13.33-3.24ZM1451.62,246.71s-.09.08-.13.12c-.17.15-.35.3-.53.44-.08.07-.17.13-.26.19-.15.11-.3.21-.45.31-.12.08-.25.15-.37.23-.13.07-.25.14-.38.21-.16.08-.33.16-.49.24-.1.04-.2.09-.29.13-.21.09-.43.17-.65.24-.06.02-.11.04-.17.05-.88.27-1.8.41-2.77.41-5.27,0-9.55-4.27-9.55-9.55,0-1.29.26-2.52.72-3.64.02-.05.04-.1.07-.16.09-.2.18-.39.28-.58.06-.12.13-.24.2-.36.07-.12.14-.23.21-.35.12-.18.23-.36.36-.53.03-.05.07-.09.1-.14.74-.96,1.68-1.8,2.79-2.45,4.57-2.64,10.4-1.07,13.04,3.49.48.83.82,1.71,1.03,2.6.01.06.02.11.04.17.05.23.09.45.12.68.01.11.03.21.04.32.02.18.03.36.04.55,0,.14,0,.29,0,.43,0,.15,0,.29,0,.44,0,.18-.02.36-.04.54-.01.11-.02.21-.04.32-.03.23-.07.45-.12.68-.01.06-.02.11-.04.17-.21.89-.55,1.77-1.03,2.6-.48.83-1.07,1.57-1.74,2.19Z" fill="#fff" filter="url(#q)"/>
          </g>
          <g>
            <rect x="1472.21" y="289.61" width="86.26" height="59.6" rx="8.89" ry="8.89" fill="url(#s)" filter="url(#t)"/>
            <g filter="url(#v)">
              <polygon points="1502.87 305.35 1486.63 319.41 1502.87 333.46 1502.87 325.84 1495.43 319.41 1502.87 312.97 1502.87 305.35" fill="#fff"/>
              <polygon points="1527.82 333.46 1544.05 319.41 1527.82 305.35 1527.82 312.97 1535.26 319.41 1527.82 325.84 1527.82 333.46" fill="#fff"/>
              <polygon points="1513.77 338.04 1506.9 338.04 1516.91 300.77 1523.79 300.77 1513.77 338.04" fill="#fff"/>
            </g>
          </g>
          <g>
            <rect x="1693.99" y="125.74" width="95.15" height="95.15" rx="8.89" ry="8.89" fill="url(#x)" filter="url(#y)"/>
            <g filter="url(#aa)">
              <path d="M1765.14,155.76c-1.96,0-3.82.44-5.48,1.22-2.28-8.14-9.74-14.11-18.61-14.11s-16.09,5.78-18.5,13.72c-1.42-.54-2.95-.83-4.55-.83-7.12,0-12.89,5.77-12.89,12.89h72.92c0-7.12-5.77-12.89-12.89-12.89Z" fill="#fff"/>
              <polygon points="1728.16 190.35 1741.57 203.76 1754.98 190.35 1745.94 190.35 1745.94 174.52 1737.19 174.52 1737.19 190.35 1728.16 190.35" fill="#fff"/>
            </g>
          </g>
          <g>
            <rect x="1410.89" y="121.44" width="68.49" height="68.49" rx="8.89" ry="8.89" fill="url(#ac)" filter="url(#ad)"/>
            <rect x="1418.98" y="129.53" width="52.31" height="52.31" fill="#3d3d89"/>
            <g>
              <rect x="1427.83" y="139.71" width="4.81" height="2.21" fill="#fff"/>
              <rect x="1435.16" y="139.71" width="24.61" height="2.21" fill="#1e9aff"/>
              <rect x="1427.83" y="147.14" width="7.48" height="2.21" fill="#fff"/>
              <rect x="1437.83" y="147.14" width="24.61" height="2.21" fill="#1e9aff"/>
              <rect x="1427.83" y="161.1" width="4.81" height="2.21" fill="#fff"/>
              <rect x="1435.16" y="161.1" width="24.61" height="2.21" fill="#1e9aff"/>
              <rect x="1427.83" y="168.53" width="7.48" height="2.21" fill="#fff"/>
              <rect x="1437.83" y="168.53" width="24.61" height="2.21" fill="#1e9aff"/>
              <rect x="1423.38" y="154.57" width="7.48" height="2.21" fill="#fff"/>
              <rect x="1433.38" y="154.57" width="33.5" height="2.21" fill="#1e9aff"/>
            </g>
          </g>
        </g>
        <g>
          <rect x="1597.85" y="287.74" width="20.06" height="20.06" fill="#a7c8ff" mix-blend-mode="multiply"/>
          <rect x="1626.99" y="287.74" width="20.06" height="20.06" fill="#a7c8ff" mix-blend-mode="multiply"/>
          <rect x="1656.14" y="287.74" width="20.06" height="20.06" fill="#a7c8ff" mix-blend-mode="multiply"/>
          <g>
            <rect x="1685.89" y="233.24" width="30.25" height="2.21" fill="#a7c8ff" mix-blend-mode="multiply"/>
            <rect x="1685.89" y="241.56" width="30.25" height="2.21" fill="#a7c8ff" mix-blend-mode="multiply"/>
            <rect x="1685.89" y="249.88" width="30.25" height="2.21" fill="#a7c8ff" mix-blend-mode="multiply"/>
          </g>
        </g>
      </g>
      <g>
        <path d="M1349.44,507.02l-149.01-.37-68.15-.17-14.64-.04-53.07-.13-64.68-.16-56.07-.14h-3.18s-14.79-.05-14.79-.05l-129.74-.32-65.13-.16-6.14-.02-35.69-.09-93-.23s-115.36-218.36,40.59-299.21c200.9-104.15,344.17,45.9,421.12,40.21,113.18-8.36,334.68-71.66,291.58,260.85Z" fill="#ebf3fa"/>
        <g>
          <path d="M1112.05,330.7s38.3-58.48,54.69-50.83c16.4,7.65-54.69,50.83-54.69,50.83Z" fill="#dfebfd"/>
          <path d="M1110.61,340.56s82.1-62.62,108.9-46c26.81,16.62-20.71,24.95-38.64,26.6-17.93,1.65-70.27,19.4-70.27,19.4Z" fill="#dfebfd"/>
          <path d="M1104.39,331.41s-.11-2.41-.32-5.93c-.4-6.86-1.16-17.94-2.16-23.57-1.51-8.51,3.85-16.07,13.28-9.26,9.43,6.82-8.49,35.78-8.49,35.78l-2.31,2.98Z" fill="#dfebfd"/>
        </g>
        <path d="M827.58,505.53l-37.41-.1c-1.2-.2-2.36-.17-3.53,0l-20.5-.05c-7.31-5.42-8.43-21.9-8.43-21.9,6.14,4.36,19.64,4.61,20.89,2.4,1.24-2.2-16.99-7.92-19.59-9.55-2.6-1.63-5.7-8.92,1.08-19.23,6.77-10.32,24.72-.52,24.72-.52,0,0,6.48,24.06,10.1,25.77,3.62,1.71-1.52-21.65-1.52-21.65,7.54,1.69,23.24,16.75,23.24,16.75,0,0-8.75,22.72-4.82,23.49,3.93.76,6.72-20.52,6.72-20.52,6.38,4.44,10.28,14.86,10.28,14.86,1,4.18.33,7.56-1.2,10.26Z" fill="#cde0fb"/>
        <path d="M649.77,247.82c9.39-16.14,37.31-2.8,37.31-2.8,0,0,11.75,35.82,17.36,38.11,5.61,2.29-4.07-32.59-4.07-32.59,11.53,1.93,36.48,23.42,36.48,23.42,0,0-11.37,35.05-5.37,35.89,6,.83,8.48-31.55,8.48-31.55,10,6.19,16.74,21.61,16.74,21.61,7.13,24.08-24.16,32-24.16,32,0,0-3.68,12.23.13,28.42h0s1.02,3.07,1.57,7.98l-2.97-.8c-.03-.86-.09-1.7-.19-2.52,0,0,0,0,0-.01,0-.01,0-.02,0-.04-.08-.51-.2-1.24-.35-2.14,0,0,0,0,0,0,0,0,0,0,0,0-.43-2.02-.69-3.49-.82-4.54,0,0,0,0,0,0-1.22-6.3-3.18-14.61-5.38-16.83,0,0,.45-.37,1-1.19-.32.38-.65.77-1,1.19-8,9.51-33.87,4.5-47.24-2.2-13.36-6.7-6.13-9.04,3.23-13.46,9.36-4.43,24.85,1.57,30.25.3,5.4-1.27-.81-5.66-10.43-7.47-9.62-1.81-16.87,6.35-32.49,3.71-15.62-2.64-19.52-34.41-19.52-34.41,9.64,6.09,30.06,5.36,31.76,1.93,1.7-3.43-26.32-10.58-30.38-12.83-4.06-2.26-9.33-13.01.06-29.15Z" fill="#dfebfd"/>
        <path d="M865.73,329.68c10.91-15.03,37.19.96,37.19.96,0,0,8.05,36.62,13.37,39.44,5.32,2.82-.77-32.65-.77-32.65,11.22,3.07,33.75,26.82,33.75,26.82,0,0-14.75,33.55-8.9,34.97,5.85,1.43,11.55-30.37,11.55-30.37,9.28,7.12,14.41,23.06,14.41,23.06,4.65,24.54-27.1,29.25-27.1,29.25,0,0-4.86,11.74-2.71,28.14h0s.7,3.14.76,8.05l-2.86-1.09c.06-.85.08-1.69.07-2.51,0,0,0,0,0-.01,0-.01,0-.02,0-.04-.03-.52-.07-1.25-.13-2.15,0,0,0,0,0,0,0,0,0,0,0,0-.22-2.04-.33-3.52-.36-4.58,0,0,0,0,0,0-.58-6.35-1.69-14.77-3.64-17.19,0,0,.48-.32,1.11-1.08-.35.34-.72.7-1.11,1.08-8.87,8.61-33.97,1.07-46.52-6.9-12.55-7.97-5.16-9.55,4.54-13,9.7-3.45,24.43,4.04,29.9,3.32,5.47-.72-.24-5.68-9.58-8.44-9.34-2.75-17.33,4.6-32.52.42-15.19-4.18-15.88-36-15.88-36,8.93,6.99,29.2,8.31,31.23,5.08s-24.99-13.09-28.78-15.73c-3.79-2.64-7.94-13.8,2.97-28.83Z" fill="#dfebfd"/>
        <g>
          <path d="M938.45,486.66s-3.96,13.87-3.19,19.26l-14.98-.04c-.31-3.04.42-6.35,2.95-9.74,0,0,7.66-7.96,15.22-9.49Z" fill="#dfebfd"/>
          <path d="M995.27,506.08l-56.8-.15c2.25-5.72,2.88-21.23,2.88-21.23,0,0,20.24-7.54,27.77-6.11,0,0-13.89,19.26-9.92,19.13,3.97-.13,19.36-19.5,19.36-19.5,0,0,20.21-1.86,22.32,10.21,1.89,10.83-2.5,16.31-5.6,17.65Z" fill="#dfebfd"/>
        </g>
        <path d="M1114.56,506.39l-53.76-.14c3.48-1.49,8.03-2.89,12.92-4.56,12.23-4.18,28.91,1.58,40.85,4.7Z" fill="#dfebfd"/>
        <path d="M1141.87,506.62l-48.67-.13c1.02-2.15-5.19-6.56-14.18-9.33-11.44-3.52-21.37,5.4-39.99.03-18.61-5.36-18.98-44.49-18.98-44.49,10.87,8.73,35.78,10.65,38.31,6.71,2.54-3.93-30.52-16.47-35.14-19.77-4.62-3.3-9.55-17.09,4.08-35.4,13.63-18.32,45.71,1.72,45.71,1.72,0,0,9.35,45.14,15.85,48.69,6.5,3.55-.46-40.15-.46-40.15,13.75,3.94,41.09,33.47,41.09,33.47,0,0-18.63,41.02-11.46,42.86,7.17,1.84,14.64-37.16,14.64-37.16,11.3,8.89,17.37,28.56,17.37,28.56,1.99,11.25-2.17,19.05-8.18,24.41Z" fill="#dfebfd"/>
        <g>
          <g>
            <g>
              <path d="M682.81,380.98c0-.1-1.48-3.17-1.01-3.41.47-.24,1.32-.2,1.42.34.1.54-.4,3.07-.4,3.07Z" fill="#ffb27d"/>
              <path d="M660.64,342.83s-8.71-10.46-13.32-3.77c0,0-3.44,1.43-4.68,7.28-1.27,5.97,2.7,10.51,4.76,9.39,1.32-.72,2.31,1.59,2.31,1.59l10.93-14.49Z" fill="#233862"/>
              <path d="M671.44,398.5c6.92-2.55,13.59-14.39,13.59-14.39l-2.18-1.53c-1.82,2.66-10,7.77-10,7.77-.19-2.24-.46-4.27-.79-6.12-2.27-12.52-7.47-16.23-8.86-17.01-.23-.13-.35-.18-.35-.18,0,0,0,.09.02.27.02.38.06,1.14.14,2.18.54,7.75,2.66,31.15,8.44,29.02Z" fill="#ffb27d"/>
              <path d="M648.28,338s-1.17-4.68-8.05-3.22c0,0,3.29-.41,4.19.85,0,0-2.61-1.2-4.24-.2-1.63,1-1.9,4.37-1.66,5.39.24,1.02,2.05,4.07,3.24,4.07s2.61-1.05,2.61-1.05l3.9-5.85Z" fill="#233862"/>
              <path d="M637.99,411.28c3.42-7.67,5.06-9.84,5.11-12.25.05-1.91-.9-3.97-2.72-9.02-.43-1.19-.73-2.41-.91-3.65-1.45-9.73,4.18-20.25,7.68-20.97.97-.26,2.62-3.77,2.6-9.44l.44.09,7.37,1.46s-.17,2.32-.17,4.5c0,1.82.1,3.54.52,3.76.53.05.84.08.84.08,0,0,6.14,8.53,6.66,16.46.52,7.93-4.92,11.38.04,27.23,5.06,16.19-29.34,5.98-27.45,1.74Z" fill="#ffb27d"/>
              <path d="M657.56,357.5s-.17,2.32-.17,4.5c-4.12-.12-6.3-3.88-7.19-5.96l7.37,1.46Z" fill="#e8945b"/>
              <path d="M649.43,355.24s-2.16-3.41-2.68-6.33c-.37-2.08.69-9.81,8.45-8.69,0,0,2.25.22,4.37,1.65,1.68,1.14,4.12,3.59,1.4,10.33l-.71,2.28-10.84.76Z" fill="#233862"/>
              <path d="M658.93,359.57s-9.75.16-9.76-5.91c0-6.07-1.27-10.14,4.96-10.5,6.23-.36,7.44,1.96,7.93,3.98.5,2.03-.59,12.23-3.13,12.43Z" fill="#ffb27d"/>
              <path d="M658.57,343.01s-2.67,7.13-6.77,8.18c-4.1,1.05-5.87-.04-5.87-.04,0,0,3.14-2.5,3.8-6.85,0,0,6.83-4.67,8.85-1.28Z" fill="#233862"/>
              <path d="M657.91,343.59s1.99,1.59,2.48,3.14c.49,1.55.7,4.73,1.63,4.62,0,0,2.01-4.84-.25-7.58-2.4-2.91-3.86-.18-3.86-.18Z" fill="#233862"/>
              <path d="M646.62,484.87c2.45,9.76,6.15,17.24,6.15,17.24l3.22-.22s-1.58-7.5-1.49-17.64c.06-7.09.94-15.46,3.74-23.46,9.62-27.48,8.07-47.48,8.07-47.48l-18.09,2.12-.84.1c-.08,8.31-.29,19.59-.48,28.41-.17,7.93-.31,13.88-.31,13.88-3.48,7.49-2.22,18.07.04,27.05Z" fill="#163560"/>
              <path d="M625.31,419.43l2.93.88s9.66-16.02,10.53-20.19c.29-1.36.99-4.07,1.81-7.12,1.7-6.3,3.88-14.01,3.88-14.01l.72-3.12,2.46-10.65s-4.71.48-7.46,1.63c-.91.38-1.61.83-1.85,1.37-2.02,4.45-4.04,15.67-5.46,23.68-.79,4.46-1.39,7.93-1.71,8.66-.88,2.05-3.56,13.32-5.85,18.87Z" fill="#ffb27d"/>
              <path d="M636.24,483.31c1.04,11.1,5.62,18.28,5.62,18.28l1.54,1.12s1.45-7.82,2.48-17.13c.98-8.85,2.32-18.21,3.84-21.06,6.03-11.33,7.85-54.11,7.85-54.11l-18.35-.91c-1.84,3.1-2.65,8.19-2.84,13.97-.48,14.6,2.95,33.63,3.46,36.39,0,0,0,0,0,0,.04.21-.02.42-.12.62-3.65,7.23-4.18,15.49-3.49,22.83Z" fill="#1c468a"/>
              <path d="M658.28,343.83s-1.9,7.46-7.07,9.85c0,0,5.17-4.58,5.61-9.51.44-4.93,1.46-.34,1.46-.34Z" fill="#233862"/>
              <path d="M635.69,416.82c-.03.62,0,1.11.11,1.47.39,1.23,1.73,1.79,4.97,1.45,1.98-.21,2.86-3.53,3.26-6.36,1.19,4.05,2.86,6.33,5.01,6.8,3.14.7,18.99,2.63,20.03-4.91,1.14-8.29-2.28-22.96-2.46-30.87.47-2.81.63-5.24.57-7.33-.13-5.64-1.79-8.79-3.06-10.07-.36-.28-.72-.45-2.17-.7-.74-.13-1.76-.27-3.21-.46,0,0-.59-.07-.58-.05.27.48,3.86,5.91,3.58,7.31-.29,1.46-13.02.15-13.9-.66-.88-.8-2.27-6.97-2.27-6.97,0,0-4.51.49-6.71,2.1,0,0,0,.01.02.03-.27.19-.47.39-.58.61-2.35,4.48-4.7,15.78-6.35,23.85,4,2.21,7.5,1.55,8.59,1.26-1.42,9.29-4.64,19.26-4.85,23.49Z" fill="#f99746"/>
              <path d="M682.85,382.58c0-.3-.25-4.66.52-5.57.78-.91,2.36-2.22,2.86-2.18.5.04,2.45,2.63,1.86,4.61-.59,1.98-3.06,4.67-3.06,4.67l-2.18-1.53Z" fill="#ffb27d"/>
              <g>
                <path d="M681.31,368.57h3.23c.57,0,1.03.46,1.03,1.03v7.5c0,.57-.46,1.03-1.03,1.03h-3.23c-.57,0-1.03-.46-1.03-1.03v-7.5c0-.57.46-1.03,1.03-1.03Z" transform="translate(1229.92 927.03) rotate(-163.32)" fill="#f1a34f"/>
                <rect x="679.11" y="371" width="9.55" height="5.28" rx=".5" ry=".5" transform="translate(129.64 921.46) rotate(-73.32)" fill="#d86713"/>
              </g>
              <path d="M636.24,483.31c1.04,11.1,5.62,18.28,5.62,18.28l1.56,1.42s1.43-8.13,2.45-17.44c-1.08.08-5.86.25-9.64-2.27Z" fill="#ffb27d"/>
              <path d="M646.62,484.87c2.45,9.76,6.15,17.24,6.15,17.24l3.22-.22s-1.58-7.5-1.49-17.64c-1.09.55-3.34,1.11-7.88.62Z" fill="#d9935c"/>
              <g>
                <path d="M650.92,504.81h2.05c.69-.11,1.2-.31,1.9-.4,1.07-.14,1.56.3,1.66.4.01.01.02.02.02.02h8.72c.22-.31,0-1.04-.2-1.57-.14-.36-.44-.64-.82-.75-.92-.27-2.75-.51-4.42-2.02-.94-.85-4.54-3.12-4.54-3.12h-.02c-.08,0-.46.11-2.09,1.49-.85.71-2.29-1.01-2.29-1.01,0,0-.27.22-.47.64-.16.33-.28.78-.19,1.34.13.79-.29,2.25-.62,3.23-.2.6-.37,1.02-.37,1.02,0,0-.1.49,1.67.71Z" fill="#233862"/>
                <path d="M650.44,498.5c.49.35,1.52,1.03,2.21,1.11.93.12,2.66-2.24,2.66-2.24h-.02c-.08,0-.46.11-2.09,1.49-.85.71-2.29-1.01-2.29-1.01,0,0-.27.22-.47.64Z" fill="#466aa5"/>
                <path d="M650.92,504.81h2.05c.69-.11,1.2-.31,1.9-.4,1.07-.14,1.56.3,1.66.4.01.01.02.02.02.02h8.72c.22-.31,0-1.04-.2-1.57-.26-.24-.34,1.02-.49,1.22-.15.2-7.11.07-7.52-.22-.4-.29-1.61-.8-3.29-.4-1.46.35-3.62-.55-4.16-.79-.2.6-.37,1.02-.37,1.02,0,0-.1.49,1.67.71Z" fill="#466aa5"/>
              </g>
              <g>
                <path d="M639.96,504.81h2.05c.69-.11,1.2-.31,1.9-.4,1.07-.14,1.56.3,1.66.4.01.01.02.02.02.02h8.72c.22-.31,0-1.04-.2-1.57-.14-.36-.44-.64-.82-.75-.92-.27-2.75-.51-4.42-2.02-.94-.85-4.54-3.12-4.54-3.12h-.02c-.08,0-.46.11-2.09,1.49-.85.71-2.29-1.01-2.29-1.01,0,0-.27.22-.47.64-.16.33-.28.78-.19,1.34.13.79-.29,2.25-.62,3.23-.2.6-.37,1.02-.37,1.02,0,0-.1.49,1.67.71Z" fill="#233862"/>
                <path d="M639.48,498.5c.49.35,1.52,1.03,2.21,1.11.93.12,2.66-2.24,2.66-2.24h-.02c-.08,0-.46.11-2.09,1.49-.85.71-2.29-1.01-2.29-1.01,0,0-.27.22-.47.64Z" fill="#466aa5"/>
                <path d="M639.96,504.81h2.05c.69-.11,1.2-.31,1.9-.4,1.07-.14,1.56.3,1.66.4.01.01.02.02.02.02h8.72c.22-.31,0-1.04-.2-1.57-.26-.24-.34,1.02-.49,1.22-.15.2-7.11.07-7.52-.22-.4-.29-1.61-.8-3.29-.4-1.46.35-3.62-.55-4.16-.79-.2.6-.37,1.02-.37,1.02,0,0-.1.49,1.67.71Z" fill="#466aa5"/>
              </g>
              <path d="M663.58,366.75s6.08,3.06,8.11,15.41c0,0-1.99,2.73-4.8,3.54-.4.12-.82.19-1.25.21-3.44.18-2.06-19.16-2.06-19.16Z" fill="#f99746"/>
              <path d="M686.69,375.16s-1.88-2.89-2.34-2.73c-.66.23,1.7,3.9,1.7,3.9,0,0-1.75-2.74-2.02-2.54-.62.47.37,2.19,1.35,3.51,0,0-1.76-1.61-1.82-1.32-.2,1.02,1.93,3.48,1.93,3.48l1.19-2.72v-1.58Z" fill="#ffb27d"/>
              <path d="M688.1,377.85c-.09-.35-.55-7.26-.75-6.6-.2.66-.66,4.28-.66,4.28l1.41,2.33Z" fill="#ffb27d"/>
            </g>
            <path d="M657.03,355.97s.17.72,1.95.61c0,0,1.5-.09,1.45-.88,0,0-1.45-.56-3.4.27Z" fill="#fff"/>
          </g>
          <path d="M625.31,419.43s-3.53,2.35-4.07,3.34-1.8,4.63-1.8,4.63c0,0,.9.14,1.8-1.44.9-1.57,3.87-1.44,4.86-2.29.99-.85,2.14-3.36,2.14-3.36l-2.93-.88Z" fill="#ffb27d"/>
          <path d="M627.85,421.08s-.59,2.76-1.31,3.57c-.72.81-1.71,2.16-2.11,1.8-.4-.36.45-3.37.45-3.37l2.97-2Z" fill="#ffb27d"/>
          <path d="M621.73,423.08c-.09.14-3.19,3.43-3.19,3.43,0,0,1.12.51,1.44,0s1.75-3.43,1.75-3.43Z" fill="#ffb27d"/>
        </g>
        <g>
          <polygon points="877.29 260.39 906.07 264.85 887.09 251.58 886.07 255.75 879.04 256.93 877.29 260.39" fill="#9ec3f6"/>
          <polygon points="906.07 264.85 882.23 252.19 858.73 250.72 906.07 264.85" fill="#fff"/>
          <polygon points="887.09 251.58 906.07 264.85 891.51 244.29 887.09 251.58" fill="#fff"/>
        </g>
        <g>
          <polygon points="1298.66 343.01 1275.1 346.37 1290.73 335.71 1291.53 339.13 1297.26 340.17 1298.66 343.01" fill="#9ec3f6"/>
          <polygon points="1275.1 346.37 1294.71 336.26 1313.93 335.3 1275.1 346.37" fill="#fff"/>
          <polygon points="1290.73 335.71 1275.1 346.37 1287.2 329.71 1290.73 335.71" fill="#fff"/>
        </g>
        <path d="M708.41,316.9h143.22v37.62h-101.84v40.04h89.75v37.62h-89.75v72.82h-41.38v-188.09Z" fill="#1a73e8"/>
        <path d="M913.95,320.62h37.14l78.47,184.4h-42.11l-16.74-41.07h-77.42l-16.74,41.07h-41.07l78.47-184.4ZM956.32,428.39l-24.33-59.37-24.33,59.37h48.65Z" fill="#1a73e8"/>
        <path d="M1179,488.97c-15.43,9.94-34,15.69-54.41,15.69-56.5,0-97.04-42.11-97.04-94.69s41.07-94.69,97.56-94.69,97.04,42.11,97.04,94.69c0,19.09-5.75,37.4-16.22,52.57l18.83,15.96-25.63,28.51-20.14-18.05ZM1149.19,462.55s18.28-9.4,25.9-26.94c3.31-7.62,4.97-15.96,4.97-25.63,0-31.39-23.02-57.54-55.45-57.54s-54.93,25.63-54.93,57.54,23.02,57.54,55.45,57.54c8.89,0,17-1.83,24.06-4.97Z" fill="#1a73e8"/>
        <g>
          <path d="M1126.81,407.24s-3.09,4.57-4.85,14.17c-1.54,8.41-2.89,11.52-5.12,13.24-2.23,1.72-14.64,6.82-14.64,6.82l.93,2.17s18.19-2.48,20.23-5.52c2.04-3.04,9.83-21,9.23-25.13-.6-4.14-5.78-5.75-5.78-5.75Z" fill="#f4a269"/>
          <g>
            <path d="M1076.31,503.26c-.19,1.77-2.69,1.71-5.52,1.29-2.83-.42-2.1.33-6.08.26-3.98-.07-5.31-1.43-5.49-2-.16-.51,1.77-.88,3.84-1.31.26-.05.52-.11.78-.17,2.33-.52,3.92-2.2,5.94-3.65,1.92-1.37,4.5-6.48,4.5-6.48l5.45-.08s-2.43,4.57-3.36,6.55c-.54,1.16-.37,2.62-.19,3.73.1.61.2,1.23.13,1.85Z" fill="#ffb27d"/>
            <path d="M1070.79,504.55c-2.83-.42-2.1.33-6.08.26-3.98-.07-5.31-1.43-5.49-2-.16-.51,1.77-.88,3.84-1.31l.02.04s2.52,1.46,5.81,1.23c2.68-.18,5.44-1.22,7.29-1.36.1.61.2,1.23.13,1.85-.19,1.77-2.69,1.71-5.52,1.29Z" fill="#c65447"/>
          </g>
          <path d="M1135.31,444.41s-35.7.17-42.36,4.38c-6.66,4.21-21.83,47.52-21.83,47.52,0,0,1.18,1.56,2.65,1.76,2.35.32,3.69-.6,3.69-.6,0,0,20.33-20.22,21.41-25.74,1.08-5.52.82-10.45,3.28-10.58,2.46-.13,33.17,3.73,37.81-4.45,4.64-8.18.81-16.28.81-16.28l-5.45,3.99Z" fill="#ef7e29"/>
          <g>
            <path d="M1095.27,502.44c-.04,1.78-2.54,1.93-5.4,1.75s-2.06.5-6.04.76c-3.97.27-5.41-.98-5.64-1.53-.2-.5,1.69-1.02,3.72-1.63.25-.08.51-.15.76-.23,2.28-.71,3.72-2.52,5.62-4.13,1.8-1.53,3.94-6.83,3.94-6.83l5.42-.53s-2.04,4.76-2.8,6.81c-.44,1.2-.15,2.64.13,3.74.15.6.3,1.21.29,1.84Z" fill="#ffb27d"/>
            <path d="M1089.88,504.19c-2.86-.18-2.06.5-6.04.76-3.97.27-5.41-.98-5.64-1.53-.2-.5,1.69-1.02,3.72-1.63l.03.04s2.63,1.24,5.89.74c2.66-.41,5.32-1.67,7.15-1.96.15.6.3,1.21.29,1.84-.04,1.78-2.54,1.93-5.4,1.75Z" fill="#c65447"/>
          </g>
          <path d="M1142.25,446.6s-31.44,1.49-37.94,5.95c-6.49,4.46-15.61,42.03-15.61,42.03,0,0,1.37,1.81,2.76,2.31,1.77.63,4.16-.08,4.16-.08,0,0,12.62-15.21,13.49-20.77.87-5.56,2.22-8.42,4.68-8.65,2.46-.23,26.59,4.48,37.61-5.92,6.84-6.46-9.15-14.87-9.15-14.87Z" fill="#f99746"/>
          <path d="M1131.48,404.72c-.61-1.07-1.34-3-1.87-6.48.07.34.97,4.72,2.83,7.11,7.28,4.12,18.79,19.57,18.72,22.49,0,0,7.07-9.36,7.14-9.41,0,0,7.95-11.63-2.77-17.27-5.45-2.87-5.7-7-5.72-10.6-.02-3.6-2.7-18.93-12.91-14.19,0,0-1.73-.64-2.48-.47,0,0,.62.08.96.38-1.22,0-2.95.22-4.35,1.14-3.7,2.44-5.83,22.27.44,27.31Z" fill="#b5453c"/>
          <path d="M1143.57,401.98s-2.93-.28-5.86,0c-1.99.19-3.96.81-5.08,1.28-2.77,1.16-2.48,6.06,3.33,5.16,5.81-.91,8.01-4.98,7.6-6.43Z" fill="#ffb27d"/>
          <path d="M1132.88,405.55s-.83,4.22,2.98,4.05c2.5-.11,7.89-3.13,7.41-5.27-.23-1.02-2.11-3.66-2.49-9.68l-.45.12-7.65,2.05s.34,2.43.5,4.73c.13,1.93.14,3.77-.29,4Z" fill="#ffb27d"/>
          <path d="M1132.67,396.82s.34,2.43.5,4.73c4.33-.41,6.36-4.52,7.15-6.78l-7.65,2.05Z" fill="#f4a269"/>
          <path d="M1141.06,393.88s2.03-3.74,2.37-6.85c.24-2.22-1.42-10.27-9.5-8.56,0,0-2.36.39-4.49,2.05-1.69,1.32-4.08,4.07-.75,10.97l.9,2.35,11.46.04Z" fill="#b5453c"/>
          <path d="M1131.36,399.1s10.28-.52,9.86-6.91c-.42-6.39.62-10.77-5.95-10.71-6.58.06-7.69,2.58-8.07,4.75-.38,2.17,1.48,12.84,4.17,12.87Z" fill="#ffb27d"/>
          <path d="M1130.58,381.64s3.31,7.31,7.7,8.13c4.39.82,6.18-.46,6.18-.46,0,0-3.48-2.41-4.48-6.95,0,0-7.52-4.44-9.4-.73Z" fill="#b5453c"/>
          <path d="M1131.32,382.2s-1.99,1.81-2.39,3.48c-.4,1.66-.41,5.03-1.39,4.98,0,0-2.46-4.96-.27-8,2.32-3.23,4.05-.46,4.05-.46Z" fill="#b5453c"/>
          <path d="M1121.08,444.94c.83.99,3.43,1.3,6.2,1.76,2.18.36,4.48.81,6.11,1.77,3.7,2.17,15.81,9.52,19.35,9.19,1.38-.13,1.12-2.75.28-6.24-1.31-5.5-4.06-13.14-4.06-16.46,0-1.81-.6-6.1-1.41-11.01-.07-.4-.13-.79-.2-1.2-1.59-9.54-3.8-20.78-3.8-20.78,0,0-2.46,5.37-7.26,5.37s-3.68-4.09-3.68-4.09c0,0-4.38.51-5.41,1.63-1.03,1.11-3.66,5.93-4.18,7.24,0,0-.11,1.67,4.03,2.47,0,0-1.01,4.53-1.13,7.56-.09,2.23,1.52,9.22,1.99,13.57.16,1.54.19,2.75-.06,3.3-.32.7-1.35,1.4-2.53,2.09-2.34,1.36-5.24,2.67-4.26,3.85Z" fill="#2b478b"/>
          <path d="M1125.34,441.09c-2.65,4.53,7.2,5.89,8.83,6.84,3.7,2.17,15.03,10.06,18.58,9.72,1.38-.13,1.12-2.75.28-6.24-1.31-5.5-4.06-13.14-4.06-16.46,0-1.81-.6-6.1-1.41-11.01l-4.27-4.1s-4.57,11.82-8.94,13.76c-2.28,1.01-4.67,1.68-6.43,2.09.16,1.54.19,2.75-.06,3.3-.32.7-1.35,1.4-2.53,2.09Z" fill="#233862"/>
          <path d="M1144.88,405.52s3.65-2.22,7.18,1.99c3.53,4.21-2.51,34.27-7.74,35.81-5.81,1.72-22.59-.27-22.59-.27l.32-2.62s17.86-3.42,18.61-4.38c.74-.95,2.36-30.04,4.22-30.52Z" fill="#ffb27d"/>
          <path d="M1143.57,401.98s7.5.68,9.67,3.14c2.18,2.47,2.81,9.15,2.81,9.15,0,0-6.6,5.33-14.56,3.26l2.07-15.55Z" fill="#2b478b"/>
          <path d="M1123.51,440.26s-5.82-1.13-6.47-.84c-.66.28-4.32,3.56-3.94,4.22.38.66,1.88,1.13,3.57.56,1.69-.56,5.35-.84,6-1.69.66-.84.84-2.25.84-2.25Z" fill="#ffb27d"/>
          <g>
            <rect x="1118.83" y="446.69" width="9.9" height="1.17" transform="translate(2247.56 894.54) rotate(180)" fill="#9e332e"/>
            <path d="M1120.93,447.7c-.1-.39-9.1-14.53-9.1-14.53h-20.04l10.05,14.15,19.09.38Z" fill="#9e332e"/>
            <path d="M1120.09,447.86c-.1-.39-9.13-14.69-9.13-14.69h-19.17l9.56,14.69h18.74Z" fill="#b5453c"/>
            <path d="M1103.2,440.56c.2.57.82,1.04,1.39,1.04s.88-.46.68-1.04c-.2-.57-.82-1.04-1.39-1.04s-.88.46-.68,1.04Z" fill="#9e332e"/>
          </g>
        </g>
        <g>
          <path d="M1260.29,398.67s4.78,2.72,6.12,2.72c1.34,0,6.59-1.02,8.06-.27,1.46.75,4.11,3.76,4.61,4.74.89,1.77-3.6.99-5.72-.52-.31-.22-.69-.3-1.06-.22-1.1.24-3.39.66-4.49.25-1.48-.55-9.3-1.16-9.3-1.16l1.79-5.54Z" fill="#ea9963"/>
          <path d="M1223.92,361.65s4.96,35.22,13.16,38.38c4.05,1.56,21.94,5.09,27.24,5.44,0,0,1.3-1.05.98-5.33,0,0-18.75-6.88-21.41-10.63-3.96-5.57,2.46-22.76-2.51-27.99-4.97-5.23-13.35-7.48-17.46.13Z" fill="#ed7d2b"/>
          <path d="M1225.59,435.86c1.45,2.45,3.12,4.75,4.84,6.93,5.33,6.72,11.12,12.27,12.13,17.51.2,1.04.52,2.17.94,3.35.42,1.2.94,2.46,1.55,3.77,2.26,4.91,5.64,10.41,9.02,15.41,5.83,8.65,11.32,15.86,11.32,15.86l10.06-.43c-.4-1.01-4.79-12.94-10.66-27.53-2.38-5.92-4.92-12.22-7.36-18.29-.33-.81-.65-1.62-.97-2.42-.75-1.86-1.48-3.69-2.2-5.47-5.51-13.7-9.9-24.6-9.9-24.6,0,0-22.03-8.35-24.32-2.94-1.89,4.46-.35,8.83,5.57,18.86Z" fill="#233862"/>
          <path d="M1265.7,496.86s.51,8.3,2.12,8.42c.21.02,8.15.02,8.15.02l10.13-.06s-.07-2.44-3.03-2.96c-2.96-.52-7.91-2.6-9.71-6.51-1.89-4.12-7.66,1.09-7.66,1.09Z" fill="#163560"/>
          <path d="M1229.95,470.75s-7.52,3.56-7.03,5.09c.06.2,3.01,7.57,3.01,7.57l3.81,9.38s2.24-.97,1.62-3.91c-.62-2.94-.53-8.31,2.44-11.43,3.12-3.28-3.85-6.71-3.85-6.71Z" fill="#163560"/>
          <path d="M1232.63,479.03s-4.22-4.27-4.99-7.1c0,0,14.53-14.12,19.72-17.54,5.96-3.93,9.83-3.96,8.87-4.92-3.13-3.16-29.46-12.37-33.75-19.04-1.48-2.3-2.31-4.48-2.77-6.38-.97-4.07-.2-6.88-.2-6.88l32.75-.95s24.35,25.26,24.21,34.76c-.15,10.27-43.83,28.05-43.83,28.05Z" fill="#2b478b"/>
          <path d="M1243.29,359.43c-6.63,1.71-17.61-4.43-17.61-4.43,0,0,4.26-2.87,5.84-9.16.08-.32.15-.64.22-.98.69-.15,2-.43,3.4-.72l5.06,4.53s-.12,1.88-.75,5.12c-.11.56-.24,1.17-.38,1.82,2.72,1.68,4.21,3.82,4.21,3.82Z" fill="#ffb27d"/>
          <path d="M1218.67,386.89c.95,12.76-.3,32.17.78,35.53.93,2.9,11.51,1.18,15.74.21,1.56-.36,3.46-.87,5.41-1.48,5.46-1.69,11.4-4.1,12.04-5.89.02-.07.05-.14.06-.21.06-.26.05-.5-.01-.75-.21-.91-1.03-1.9-1.13-4.16-.11-2.52-.09-5.5-.19-8.69,0-.36,0-.75-.05-1.11v-.13c0-.07,0-.14,0-.2-.09-3.56-.28-7.31-.49-11.03-.14-2.33-.3-4.65-.48-6.86-.48-5.72-1.12-10.8-1.97-14.01-1.39-5.24-4.45-8.66-7.23-11.16l-2.01-1.73c-2.25.49-4.9.17-7.31-.97-2.6-1.24-3.5-2.12-3.95-1.79-6.01,4.63-10.33,18.83-9.21,34.44Z" fill="#f99746"/>
          <path d="M1240.6,421.15c5.46-1.69,11.4-4.1,12.04-5.89.02-.07.05-.14.06-.21,0-.25,0-.5-.01-.75-.21-.91-1.03-1.9-1.13-4.16-.11-2.52-.09-5.5-.19-8.69,0-.36,0-.75-.05-1.11v-.13c0-.07,0-.14,0-.2l-22.06-28.11s-14.83,30.88,11.34,49.26Z" fill="#ed7d2b"/>
          <path d="M1240.21,348.68s-.12,1.88-.75,5.12c-4.94-1.6-7.18-6.06-7.93-7.95.08-.32.15-.64.22-.98.69-.15,2-.43,3.4-.72l5.06,4.53Z" fill="#ea9963"/>
          <path d="M1240.88,351.53s-10.78-1.8-9.55-8.49c1.22-6.69.66-11.43,7.59-10.57,6.93.87,7.8,3.66,7.93,6,.14,2.33-3.13,13.36-5.97,13.06Z" fill="#ffb27d"/>
          <g>
            <rect x="1287.31" y="383.43" width="1" height="26.16" transform="translate(2390 1171.65) rotate(-162)" fill="#4a75cb"/>
            <rect x="1256.81" y="407.17" width="27.45" height="1.64" transform="translate(2532.07 843.02) rotate(-178.78)" fill="#4a75cb"/>
          </g>
          <path d="M1257.34,409.83s8.82,2.33,12.13,2.08c3.31-.24,6.06-1.82,6.47-2.64.42-.82,1.29-2.28-.96-2.01-2.25.27-5.33.75-5.42.32-.1-.43,1.84-.39,1.84-.39,0,0,.58-.85-.15-.88s-2.88-.61-3.67-.21c-.8.4-1.53,1.87-2.11,1.81-.58-.06-7.38-3.06-7.38-3.06l-.73,4.99Z" fill="#ffb27d"/>
          <path d="M1226.11,363.09s1.04,35.56,8.85,39.6c3.85,1.99,21.25,7.47,26.47,8.41,0,0,1.4-.9,1.56-5.19,0,0-17.88-8.91-20.11-12.92-3.33-5.97,4.96-22.35.59-28.1-4.37-5.75-12.45-8.91-17.36-1.79Z" fill="#f99746"/>
          <path d="M1231.53,345.84s-.12-2.3,1.29-3.61c0,0-.49-2.3.42-2.68.91-.38,1.1,1.56,1.52,1.25.42-.3,2.28-1.75,3.07-3.87.8-2.13,8.09.45,8.94.83.85.38,3.58-1.02,4.11-2.16,0,0-1.52-1.21-2.2-2.13-.68-.91-5.47-7.06-12.14-5.31-6.68,1.75-7.59,4.93-7.21,7.67.38,2.73-.54,9.1,2.2,10.01Z" fill="#2b478b"/>
        </g>
        <g id="af" data-name="man">
          <path d="M1025.34,370.17c-.73,1.97-2,4.26-3.34,4.83-1.51.64-2.14,1.56-2.14,1.56l-1.22-.71-1.46-.85s.03-.16.11-.43c.07-.26.18-.63.33-1.03,0,0,.45-.57.17-1.3-.27-.72-.22-1.84.25-2.52.47-.68.92-2.35,1.2-2.3.68.12-.33,2.42-.04,2.85.26.39.59.25.65.22,0,0,0,0,.01,0,1.91-.84,4.23-5.37,5.26-4.76.38.23.53,3.61.22,4.45Z" fill="#ffb27d"/>
          <g>
            <rect x="1017.5" y="367.24" width="11.42" height="3.68" rx=".38" ry=".38" transform="translate(132.86 993.95) rotate(-54.9)" fill="#2b478b"/>
            <rect x="1019.2" y="369.13" width="11.43" height="2.29" rx=".29" ry=".29" transform="translate(132.61 995.85) rotate(-54.9)" fill="#233862"/>
          </g>
          <path d="M984.36,360.38s12.19,21.26,16.61,25.17l16.22-12.09s2.35.72,3.38,3.08c0,0-9.85,20.06-19.54,20.91-9.7.85-23.3-24.05-23.3-24.05l6.63-13.03Z" fill="#233862"/>
          <g>
            <path d="M956.77,504.99h-7.04c-.89-.48-1.68-1.58-1.93-3.23-.34-2.27-2.89-3.51-3.44-5.36-.55-1.86,2.27-4.47,2.27-4.47l.47-.61.49-.63,4.67,1.1s.12,1.11.19,2.53c.05,1.02.08,2.21.02,3.24-.14,2.47.69,5.14,2.89,5.62,1.63.36,1.55,1.32,1.4,1.8Z" fill="#233862"/>
            <path d="M997.65,504.99h-16.11c-.77-.95-.49-4.43-.37-5.57.02-.23.04-.36.04-.36,0,0,5.5-4.4,6.26-1.03.02.11.05.21.08.31.95,3.15,5.22,4.58,7.69,4.98,1.6.26,2.2,1.09,2.41,1.67Z" fill="#233862"/>
            <path d="M994.58,415.08s-.84,10.42-1.82,22.95c-1.33,17.02-2.94,37.92-3.1,41.88-.27,6.88-1.38,17.87-1.38,17.87,0,0-2.61,2.61-7.84,1.51,0,0-4.66-15.7-5.99-32.31-.02-.27-.04-.55-.06-.82-1.24-16.91-3.16-52.52-3.16-52.52l23.34,1.44Z" fill="#f99746"/>
            <path d="M994.58,415.08s-.84,10.42-1.82,22.95l-18.3,28.95c-.02-.27-.04-.55-.06-.82-1.24-16.91-3.16-52.52-3.16-52.52l23.34,1.44Z" fill="#ed7d2b"/>
            <path d="M990.77,416.32s-15.05,37.74-24.95,55.47c-9.9,17.73-12.99,22.68-12.99,22.68,0,0-5.67-2.27-6.19-3.82,0,0,3.79-34.24,10.41-42.58,3.75-4.72,8.15-18.87,8.35-23.82.21-4.95,1.34-14.74,1.34-14.74l24.02,6.81Z" fill="#f99746"/>
          </g>
          <path d="M987.02,361.31c-5.88,1.86-16.06-3.15-16.06-3.15,0,0,5.42-4.07,5.14-12.53l4.55,3.67,3.09,2.49s-.01,1.47-.35,4.04c-.09.68-.2,1.43-.34,2.25,2.53,1.39,3.97,3.24,3.97,3.24Z" fill="#ffb27d"/>
          <path d="M983.74,351.77s-.01,1.47-.35,4.04c-3.42-.59-7.31-6.12-7.31-6.12,1.74-.5,3.27-.59,4.57-.41l3.09,2.49Z" fill="#ed975d"/>
          <path d="M985.54,351.63s-9.72,1.61-10.63-4.45c-.91-6.07-2.78-9.94,3.38-11.23,6.17-1.29,7.72.85,8.52,2.8.8,1.95,1.23,12.31-1.27,12.89Z" fill="#ffb27d"/>
          <path d="M995.23,415.95c-.18.15-.38.24-.62.24-2.21-.03-8.65,1.2-14.1.64-4.6-.44-8.66-1.8-13.03-3.76-.58-.26-1.92-.97-1.88-1.62.02-.71.09-1.74.18-3.04.31-4.51.85-12.26.32-21.21-.09-1.67-.14-3.32-.15-4.94-.04-12.12,2.36-22.79,7.19-26.4.41-.3,2.95.94,5.27,2.09,2.15,1.06,4.3,1.18,6.33.77l2.03,1.8c2.47,2.3,5.19,5.42,6.36,10.16,1,4.04,1.59,11.31,1.91,18.85.15,3.42.27,6.86.3,10.13v.12c.03.32.03.68.03,1,.12,8.4,0,15.05-.15,15.17Z" fill="#2b478b"/>
          <path d="M965.77,408.41c.31-4.51.85-12.26.32-21.21-.09-1.67-.14-3.32-.15-4.94,2.01-4.88,3.66-8.42,3.66-8.42h5.07s3.72,25.4-8.9,34.58Z" fill="#233862"/>
          <g>
            <rect x="942.1" y="412.83" width="19.81" height="32.19" rx="5.17" ry="5.17" transform="translate(393.06 1310.9) rotate(-81.89)" fill="#233862"/>
            <path d="M965.44,423.46h0c-.61-1.52-1.92-2.72-3.58-3.13h0s0,0,0,0c-.16-.04-.33-.07-.5-.1l-4.31-.61.29-2.02c.07-.45-.05-.9-.33-1.27-.28-.37-.68-.6-1.13-.67l-1.12-.16-4.52-.64-.82-.12c-.93-.13-1.8.52-1.94,1.45l-.29,2.02-7.44-1.06c-2.83-.4-5.47,1.58-5.87,4.41l-1.35,9.48c-.4,2.83,1.58,5.47,4.41,5.87l21.59,3.08c.38.05.76.07,1.13.04h0c.59-.04,1.16-.19,1.69-.43,1.59-.7,2.79-2.18,3.06-4.02l1.35-9.48c.13-.92,0-1.83-.32-2.64ZM948.54,416.34c.04-.28.26-.5.53-.54.06-.01.13-.01.19,0l.96.14,3.56.51,1.94.28c.35.05.59.37.54.72l-.29,2.02-7.73-1.1.29-2.02Z" fill="#2b478b"/>
          </g>
          <path d="M956.24,409.28s-1.14,1.51-1.18,2.12c-.31,4.1,1.57,4.67-3.28,6.94,0,0-2.07.79-2.11-.82-.04-1.61,1.44-1.63,1.17-3.88-.31-2.59-.28-2.62,1.42-3.97l1.13-1.86,2.85,1.48Z" fill="#ffb27d"/>
          <path d="M953.35,410.44c1.83.36,3.81.21,3.81.21,0,0,5.42-16.75,6.12-18.28.7-1.53,16.11-19.64,16.11-19.64l-6.42-16.07s-16.67,27.84-18.36,31.75c-2.8,6.46-3.77,20.96-3.77,20.96,0,0,1.08.79,2.51,1.07Z" fill="#2b478b"/>
          <path d="M974.9,346.6s1-.17.84-1.54-.16-3.17.96-2.83c1.12.33,1.17,1.23,1.63.71.46-.52.47-2.72,3.79-2.87,3.32-.15,4.67,1,6.22.32,1.55-.68,1.63-3.02,1.63-3.02,0,0-.44.84-1.1,1.1,0,0,2.58-3.53-.41-5.94-2.98-2.42-6.03-.83-7.75-.73-3.81.23-6.26.46-7.51,2.96-1.24,2.5-.73,9.44,1.71,11.85Z" fill="#2b478b"/>
          <path d="M954.45,411.08s1.09,1.14,1.16,1.61c.22,1.52.73,2.18.48,2.35-.53.34-1.23-.78-1.57-1.79-.33-1.01-.07-2.17-.07-2.17Z" fill="#ffb27d"/>
        </g>
        <g>
          <path d="M771.26,307.88c3.24,6.01,7.52,9.02,7.52,9.02h17.82s-27.8-13.6-25.33-9.02Z" fill="#233862"/>
          <g>
            <path d="M783.67,354c.45.54.49,1.14.25,1.77,0,0,0,0,0,0-.46,1.16-1.89,2.43-3.56,3.69-.21.16-.4.31-.57.45-.04.04-.09.07-.13.11-.03.03-.07.06-.1.08-1.56,1.36-.99,1.69-3.8,4.46-3.2,3.15-5.34,3.15-5.94,2.84-.51-.27.58-1.95,1.8-3.85.06-.09.12-.18.18-.28.16-.25.32-.51.48-.76,1.42-2.28,1.1-3.38.87-6.84-.19-2.81-3.94-15.8-3.94-15.8l5.98-.86s1.51,10.3,3.45,11.93c1.03.87,2.22.91,3.22,1.56.07.05.14.09.21.14.57.4,1.14.81,1.59,1.35Z" fill="#ffb27d"/>
            <path d="M783.67,354c.45.54.49,1.14.25,1.77,0,0,0,0,0,0-.55,1.16-1.95,2.42-3.56,3.68-.21.17-.4.32-.56.46-.04.04-.09.07-.13.11-.03.03-.07.06-.1.08-1.56,1.36-.99,1.69-3.8,4.46-3.2,3.15-5.34,3.15-5.94,2.84-.51-.27.58-1.95,1.8-3.85.61-.21,3.45-1.27,5.65-3.93,1.94-2.34,3.27-5.37,4.59-7.11.07.05.14.09.21.14.57.4,1.14.81,1.59,1.35Z" fill="#233862"/>
            <path d="M735.74,348.97c-.42,1.83-3.03,1.45-5.94.66-2.91-.8-2.24.07-6.39-.5-4.15-.57-5.37-2.16-5.49-2.79-.1-.55,1.97-.69,4.18-.88.28-.02.56-.05.84-.08,2.5-.24,4.37-1.8,6.67-3.06,2.18-1.19,5.52-6.21,5.52-6.21l5.7.61s-3.12,4.47-4.34,6.42c-.71,1.15-.72,2.69-.67,3.88.03.65.05,1.31-.1,1.95Z" fill="#ffb27d"/>
            <path d="M729.8,349.63c-2.91-.8-2.24.07-6.39-.5-4.15-.57-5.37-2.16-5.49-2.79-.1-.55,1.97-.69,4.18-.88l.02.04s2.45,1.84,5.92,2.02c2.83.15,5.84-.58,7.79-.5.03.65.05,1.31-.1,1.95-.42,1.83-3.03,1.45-5.94.66Z" fill="#233862"/>
            <path d="M758.64,313.03l4.95,14.52,6.46,18.96s1.89.23,3.71-.24c1.68-.44,3.63-1.65,3.63-1.65,0,0-1.39-20.21-4.69-31.88-.84-3-1.82-5.43-2.93-6.81-5.42-6.77-11.15,7.09-11.15,7.09Z" fill="#233862"/>
            <path d="M764.69,290.34c3.53-1.03,13.47.69,23.45,2.92l2.19-3.41,21.71-1.1s6.72,16.05,2.53,26.04c-.62,1.47-1.7,2.12-3.65,2.1,0,0-.16,0-.39,0,0,0-12.9.11-17.08,0-10.77-.29-22.6-8.24-24.15-8.59-2.53-.58-3.69,4.49-6.38,9.76-2.69,5.28-24.58,23.03-24.58,23.03,0,0-3.29-.06-4.63-.6-1.45-.59-1.96-1.31-1.96-1.31,0,0,24.98-46.51,32.95-48.84Z" fill="#2b478b"/>
            <path d="M791.27,260.03c7.6,4.46,23.01,13.69,23.09,13.63,0,0,5.69,2.32,9.01.25,5.54-3.46,8.72-13.1-1-21.74-4.85-4.31-8.34-5.42-8.7-12.09-.19-3.62-4.81-15.68-13.05-14.8-.69.07-1.38.12-2.07.08-.96-.06-2.54.04-4.19.96-4.72,2.64-14.61,31.76-3.09,33.72Z" fill="#233862"/>
            <path d="M797.84,256.6s3.76,1.43,6.35.37c2.44-1,4.37-4.91,4.33-4.92-1.09-.08-2.27-1.07-3.03-7.38l-.47.15-7.92,2.61s.5,2.53.8,4.94c.25,2.02.37,3.95-.07,4.23Z" fill="#ffb27d"/>
            <path d="M797.1,247.43s.5,2.53.8,4.94c4.53-.69,6.42-5.13,7.12-7.55l-7.92,2.61Z" fill="#ed975d"/>
            <path d="M795.87,249.9s10.77-1.15,9.95-7.85c-.82-6.7.02-11.36-6.89-10.91-6.91.45-7.93,3.17-8.2,5.47-.27,2.3,2.32,13.41,5.14,13.28Z" fill="#ffb27d"/>
            <path d="M791.21,232.97s6.71,6.11,11.37,6.71c4.66.6,6.47-.85,6.47-.85,0,0-2.69-2.36-4.25-6.1-.46-1.1-1.47-1.88-2.66-2.01-3.33-.38-9.65-.68-10.94,2.24Z" fill="#233862"/>
            <path d="M795.52,232.56s-2.36,2.16-3.13,3.79c-.74,1.57-1.06,5.37-.54,6.9,0,0-3.39-7.06-1.27-10.39,2.25-3.53,4.94-.3,4.94-.3Z" fill="#233862"/>
            <path d="M788.37,272.16c-.27,21.74-.38,17.19,1.94,19.32.56.51,2.16.85,4.28,1.05,6.65.62,18.39-.15,18.87-1.37,1.65-4.22.6-5.57,2.06-12.06.15-.69.34-1.44.55-2.25,1.19-4.45,2.27-5.95-1.32-13.25-3.26-6.61-6.69-12-7.02-11.82-9.22,5.14-9.83.59-9.83.59,0,0-9.41,9.19-9.54,19.79Z" fill="#fff"/>
            <path d="M763.59,327.55l6.46,18.96s1.89.23,3.71-.24c1.68-.44,3.63-1.65,3.63-1.65,0,0-1.39-20.21-4.69-31.88l-9.12,14.8Z" fill="#2b478b"/>
            <path d="M797.9,252.37s-9.38,1.33-10.59,5.32c-1.21,3.99-8.3,27.45-8.3,27.45,0,0,4.72.98,6.98-1.15,2.25-2.13,8.18-20.14,8.18-20.14l3.73-11.48Z" fill="#fff"/>
            <path d="M794.58,292.53c6.65.62,18.39-.15,18.87-1.37,1.65-4.22.6-5.57,2.06-12.06l-2.97-9.14s.26,10.09-2.79,12.66c-3.04,2.57-12.31,4.78-13.81,6.96-.73,1.04-1.21,2.1-1.37,2.95Z" fill="#ebf3ff"/>
            <path d="M802.33,288.5s-6.53-1.64-7.61-1.09-3.73,2.61-4.07,3.34c-.34.73,2.38-.5,3.26-.71.57-.14,2.04.42,2.78.69,3.07,1.12,4.99.64,4.99.64l.66-2.87Z" fill="#ffb27d"/>
            <path d="M807.74,251.77s8.81.78,11.75,5.13c4.14,6.12,11.97,31.91,6.99,35.19-5.61,3.69-25.09.32-25.09.32,0,0-.57-3.06.38-4.51.95-1.45,15.72-3.42,16.42-4.08.7-.66-8.13-13.47-8.07-15.51.06-2.04-2.38-16.54-2.38-16.54Z" fill="#fff"/>
            <path d="M794.36,289.23s-1.43,1.74-1.88,1.94c-.46.2-.75.14-.75.14l.97-1.65,1.66-.43Z" fill="#ffb27d"/>
            <path d="M794.72,287.41l-4.06,1.84s.16.28.66.27c.49,0,1.75-.43,1.75-.43l1.65-1.68Z" fill="#ffb27d"/>
          </g>
          <g>
            <g>
              <polygon points="792.4 293.89 760.73 293.02 751.84 269.07 783.47 269.93 792.4 293.89" fill="#f99746"/>
              <polygon points="760.38 292.09 802.2 293.23 802.18 294.15 760.73 293.02 760.38 292.09" fill="#ed7d2b"/>
            </g>
            <path d="M769.05,281.4c-.22-.84.28-1.5,1.12-1.48.83.02,1.68.72,1.9,1.56.22.84-.28,1.5-1.12,1.48-.83-.02-1.68-.72-1.9-1.56Z" fill="#fff"/>
          </g>
        </g>
      </g>
      <rect x="5" y="5" width="1900" height="501.45" rx="12" ry="12" fill="none" stroke="#1a73e8" stroke-miterlimit="10" stroke-width="10"/>
    </g>
  </g>
</svg>