<?xml version="1.0" encoding="UTF-8"?>
<svg xmlns="http://www.w3.org/2000/svg" xmlns:xlink="http://www.w3.org/1999/xlink" viewBox="0 0 1910 511.45">
  <defs>
    <linearGradient id="b" data-name="Degradado sin nombre 157" x1="1566.53" y1="353.36" x2="1625.44" y2="412.27" gradientUnits="userSpaceOnUse">
      <stop offset=".23" stop-color="#a7c8ff"/>
      <stop offset=".45" stop-color="#aacaff"/>
      <stop offset=".67" stop-color="#b6d2ff"/>
      <stop offset=".89" stop-color="#cae0ff"/>
      <stop offset="1" stop-color="#d8e9ff"/>
    </linearGradient>
    <linearGradient id="c" data-name="Degradado sin nombre 155" x1="1487.8" y1="184.45" x2="1704.17" y2="400.83" gradientUnits="userSpaceOnUse">
      <stop offset="0" stop-color="#d8e9ff"/>
      <stop offset="1" stop-color="#a7c8ff"/>
    </linearGradient>
    <linearGradient id="d" data-name="Degradado sin nombre 156" x1="1590.11" y1="349.53" x2="1601.85" y2="361.27" gradientUnits="userSpaceOnUse">
      <stop offset="0" stop-color="#a7c8ff"/>
      <stop offset="1" stop-color="#d8e9ff"/>
    </linearGradient>
    <linearGradient id="e" data-name="Degradado sin nombre 169" x1="1561.29" y1="360.83" x2="1630.68" y2="430.21" gradientUnits="userSpaceOnUse">
      <stop offset="0" stop-color="#a7c8ff"/>
      <stop offset="1" stop-color="#73abff"/>
    </linearGradient>
    <linearGradient id="f" data-name="Degradado sin nombre 153" x1="1697.87" y1="322.18" x2="1750.29" y2="374.6" gradientUnits="userSpaceOnUse">
      <stop offset="0" stop-color="#35ffff" stop-opacity=".5"/>
      <stop offset="1" stop-color="#35e6bb"/>
    </linearGradient>
    <filter id="g" data-name="drop-shadow-1" x="1679" y="311.73" width="90" height="91" filterUnits="userSpaceOnUse">
      <feOffset dx="0" dy="8.89"/>
      <feGaussianBlur result="h" stdDeviation="5.33"/>
      <feFlood flood-color="#1172d5" flood-opacity=".4"/>
      <feComposite in2="h" operator="in"/>
      <feComposite in="SourceGraphic"/>
    </filter>
    <filter id="i" data-name="drop-shadow-2" x="1690.75" y="318.48" width="68" height="68" filterUnits="userSpaceOnUse">
      <feOffset dx="0" dy="3.75"/>
      <feGaussianBlur result="j" stdDeviation="3.75"/>
      <feFlood flood-color="#1e85ff" flood-opacity=".4"/>
      <feComposite in2="j" operator="in"/>
      <feComposite in="SourceGraphic"/>
    </filter>
    <linearGradient id="k" data-name="Degradado sin nombre 152" x1="1517.21" y1="148.13" x2="1656.04" y2="286.96" gradientUnits="userSpaceOnUse">
      <stop offset="0" stop-color="#35c9e2" stop-opacity=".5"/>
      <stop offset="1" stop-color="#35e6bb"/>
    </linearGradient>
    <filter id="l" data-name="drop-shadow-3" x="1483" y="153.73" width="208" height="146" filterUnits="userSpaceOnUse">
      <feOffset dx="0" dy="8.89"/>
      <feGaussianBlur result="m" stdDeviation="5.33"/>
      <feFlood flood-color="#1e85ff" flood-opacity=".4"/>
      <feComposite in2="m" operator="in"/>
      <feComposite in="SourceGraphic"/>
    </filter>
    <linearGradient id="n" data-name="Degradado sin nombre 152" x1="1413.49" y1="208.12" x2="1476.77" y2="271.4" xlink:href="#k"/>
    <filter id="o" data-name="drop-shadow-4" x="1394" y="197.73" width="102" height="102" filterUnits="userSpaceOnUse">
      <feOffset dx="0" dy="8.89"/>
      <feGaussianBlur result="p" stdDeviation="5.33"/>
      <feFlood flood-color="#1e85ff" flood-opacity=".4"/>
      <feComposite in2="p" operator="in"/>
      <feComposite in="SourceGraphic"/>
    </filter>
    <filter id="q" data-name="drop-shadow-5" x="1412.75" y="210.48" width="65" height="66" filterUnits="userSpaceOnUse">
      <feOffset dx="0" dy="3.75"/>
      <feGaussianBlur result="r" stdDeviation="3.75"/>
      <feFlood flood-color="#1e85ff" flood-opacity=".4"/>
      <feComposite in2="r" operator="in"/>
      <feComposite in="SourceGraphic"/>
    </filter>
    <linearGradient id="s" data-name="Degradado sin nombre 152" x1="1481.48" y1="285.54" x2="1549.21" y2="353.27" xlink:href="#k"/>
    <filter id="t" data-name="drop-shadow-6" x="1456" y="281.73" width="119" height="93" filterUnits="userSpaceOnUse">
      <feOffset dx="0" dy="8.89"/>
      <feGaussianBlur result="u" stdDeviation="5.33"/>
      <feFlood flood-color="#1e85ff" flood-opacity=".4"/>
      <feComposite in2="u" operator="in"/>
      <feComposite in="SourceGraphic"/>
    </filter>
    <filter id="v" data-name="drop-shadow-7" x="1474.75" y="292.48" width="82" height="62" filterUnits="userSpaceOnUse">
      <feOffset dx="0" dy="3.75"/>
      <feGaussianBlur result="w" stdDeviation="3.75"/>
      <feFlood flood-color="#1e85ff" flood-opacity=".4"/>
      <feComposite in2="w" operator="in"/>
      <feComposite in="SourceGraphic"/>
    </filter>
    <linearGradient id="x" data-name="Degradado sin nombre 152" x1="1696.59" y1="128.34" x2="1786.54" y2="218.29" xlink:href="#k"/>
    <filter id="y" data-name="drop-shadow-8" x="1677" y="117.73" width="129" height="129" filterUnits="userSpaceOnUse">
      <feOffset dx="0" dy="8.89"/>
      <feGaussianBlur result="z" stdDeviation="5.33"/>
      <feFlood flood-color="#1e85ff" flood-opacity=".4"/>
      <feComposite in2="z" operator="in"/>
      <feComposite in="SourceGraphic"/>
    </filter>
    <filter id="aa" data-name="drop-shadow-9" x="1693.75" y="134.48" width="97" height="85" filterUnits="userSpaceOnUse">
      <feOffset dx="0" dy="3.75"/>
      <feGaussianBlur result="ab" stdDeviation="3.75"/>
      <feFlood flood-color="#1e85ff" flood-opacity=".4"/>
      <feComposite in2="ab" operator="in"/>
      <feComposite in="SourceGraphic"/>
    </filter>
    <linearGradient id="ac" data-name="Degradado sin nombre 152" x1="1413.49" y1="124.04" x2="1476.77" y2="187.32" xlink:href="#k"/>
    <filter id="ad" data-name="drop-shadow-10" x="1394" y="113.73" width="102" height="102" filterUnits="userSpaceOnUse">
      <feOffset dx="0" dy="8.89"/>
      <feGaussianBlur result="ae" stdDeviation="5.33"/>
      <feFlood flood-color="#1e85ff" flood-opacity=".4"/>
      <feComposite in2="ae" operator="in"/>
      <feComposite in="SourceGraphic"/>
    </filter>
    <clipPath id="af">
      <path d="M1030.34,268.92s-3.1-3.93-7.7-4.83c-4.6-.9-8.95,1.58-8.95,1.58,0,0,3.1,3.93,7.7,4.83,4.6.9,8.95-1.58,8.95-1.58Z" fill="none"/>
    </clipPath>
  </defs>
  <g isolation="isolate">
    <g id="a" data-name="Calque 1">
      <g>
        <path d="M123.01,114.46h-41.07v-12.61c0-5.88-.53-9.63-1.58-11.24-1.05-1.61-2.8-2.42-5.25-2.42-2.66,0-4.67,1.09-6.04,3.26s-2.05,5.47-2.05,9.88c0,5.68.77,9.95,2.3,12.82,1.47,2.87,5.63,6.34,12.5,10.4,19.69,11.69,32.09,21.27,37.2,28.77,5.11,7.5,7.67,19.58,7.67,36.24,0,12.12-1.42,21.05-4.25,26.79-2.84,5.74-8.32,10.56-16.44,14.44-8.12,3.89-17.58,5.83-28.36,5.83-11.84,0-21.94-2.24-30.31-6.72-8.37-4.48-13.85-10.19-16.44-17.12-2.59-6.93-3.89-16.77-3.89-29.52v-11.14h41.07v20.7c0,6.37.58,10.47,1.73,12.29,1.16,1.82,3.2,2.73,6.15,2.73s5.13-1.16,6.57-3.47c1.43-2.31,2.15-5.74,2.15-10.29,0-10.01-1.37-16.56-4.1-19.64-2.8-3.08-9.7-8.23-20.69-15.44-11-7.28-18.28-12.57-21.85-15.86-3.57-3.29-6.53-7.84-8.88-13.66-2.35-5.81-3.52-13.24-3.52-22.27,0-13.03,1.66-22.55,4.99-28.57,3.33-6.02,8.7-10.73,16.12-14.13,7.42-3.4,16.39-5.09,26.89-5.09,11.48,0,21.27,1.86,29.36,5.57,8.09,3.71,13.45,8.39,16.07,14.02,2.63,5.64,3.94,15.22,3.94,28.73v6.72Z" fill="#1a73e8"/>
        <path d="M177.22,147.65h-39.81v-9.35c0-10.78,1.24-19.1,3.73-24.95,2.48-5.85,7.48-11.01,14.97-15.5,7.49-4.48,17.23-6.72,29.2-6.72,14.36,0,25.18,2.54,32.46,7.62,7.28,5.08,11.66,11.31,13.13,18.7,1.47,7.39,2.21,22.6,2.21,45.64v69.96h-41.28v-12.42c-2.59,4.98-5.94,8.72-10.03,11.21-4.1,2.49-8.98,3.74-14.65,3.74-7.42,0-14.23-2.08-20.43-6.25-6.2-4.17-9.3-13.29-9.3-27.37v-11.45c0-10.43,1.64-17.54,4.94-21.33,3.29-3.78,11.45-8.19,24.48-13.24,13.94-5.46,21.39-9.14,22.38-11.03.98-1.89,1.47-5.74,1.47-11.56,0-7.28-.54-12.03-1.63-14.23-1.09-2.21-2.89-3.31-5.41-3.31-2.87,0-4.66.93-5.36,2.78-.7,1.86-1.05,6.67-1.05,14.44v14.6ZM190.67,166.77c-6.79,4.97-10.73,9.14-11.82,12.5-1.09,3.36-1.63,8.19-1.63,14.5,0,7.21.47,11.87,1.42,13.97.95,2.1,2.82,3.15,5.62,3.15s4.39-.82,5.2-2.47c.8-1.64,1.21-5.97,1.21-12.97v-28.68Z" fill="#1a73e8"/>
        <path d="M285.63,147.65h-39.81v-9.35c0-10.78,1.24-19.1,3.73-24.95,2.48-5.85,7.48-11.01,14.97-15.5,7.49-4.48,17.23-6.72,29.2-6.72,14.36,0,25.18,2.54,32.46,7.62,7.28,5.08,11.66,11.31,13.13,18.7,1.47,7.39,2.21,22.6,2.21,45.64v69.96h-41.28v-12.42c-2.59,4.98-5.94,8.72-10.03,11.21-4.1,2.49-8.98,3.74-14.65,3.74-7.42,0-14.23-2.08-20.43-6.25-6.2-4.17-9.3-13.29-9.3-27.37v-11.45c0-10.43,1.64-17.54,4.94-21.33,3.29-3.78,11.45-8.19,24.48-13.24,13.94-5.46,21.39-9.14,22.38-11.03.98-1.89,1.47-5.74,1.47-11.56,0-7.28-.54-12.03-1.63-14.23-1.09-2.21-2.89-3.31-5.41-3.31-2.87,0-4.66.93-5.36,2.78-.7,1.86-1.05,6.67-1.05,14.44v14.6ZM299.08,166.77c-6.79,4.97-10.73,9.14-11.82,12.5-1.09,3.36-1.63,8.19-1.63,14.5,0,7.21.47,11.87,1.42,13.97.95,2.1,2.82,3.15,5.62,3.15s4.39-.82,5.2-2.47c.8-1.64,1.21-5.97,1.21-12.97v-28.68Z" fill="#1a73e8"/>
        <path d="M451.08,114.46h-41.07v-12.61c0-5.88-.53-9.63-1.58-11.24-1.05-1.61-2.8-2.42-5.25-2.42-2.66,0-4.67,1.09-6.04,3.26s-2.05,5.47-2.05,9.88c0,5.68.77,9.95,2.3,12.82,1.47,2.87,5.63,6.34,12.5,10.4,19.69,11.69,32.09,21.27,37.2,28.77,5.11,7.5,7.67,19.58,7.67,36.24,0,12.12-1.42,21.05-4.25,26.79-2.84,5.74-8.32,10.56-16.44,14.44-8.12,3.89-17.58,5.83-28.36,5.83-11.84,0-21.94-2.24-30.31-6.72-8.37-4.48-13.85-10.19-16.44-17.12-2.59-6.93-3.89-16.77-3.89-29.52v-11.14h41.07v20.7c0,6.37.58,10.47,1.73,12.29,1.16,1.82,3.2,2.73,6.15,2.73s5.13-1.16,6.57-3.47c1.43-2.31,2.15-5.74,2.15-10.29,0-10.01-1.37-16.56-4.1-19.64-2.8-3.08-9.7-8.23-20.69-15.44-11-7.28-18.28-12.57-21.85-15.86-3.57-3.29-6.53-7.84-8.88-13.66-2.35-5.81-3.52-13.24-3.52-22.27,0-13.03,1.66-22.55,4.99-28.57,3.33-6.02,8.7-10.73,16.12-14.13,7.42-3.4,16.39-5.09,26.89-5.09,11.48,0,21.27,1.86,29.36,5.57,8.09,3.71,13.45,8.39,16.07,14.02,2.63,5.64,3.94,15.22,3.94,28.73v6.72Z" fill="#1a73e8"/>
        <path d="M506.55,62.98h74.9v34.04h-30.67v32.25h27.31v32.35h-27.31v71.43h-44.23V62.98Z" fill="#1a73e8"/>
        <path d="M686.92,142.61v34.14c0,12.54-.63,21.73-1.89,27.58-1.26,5.85-3.96,11.31-8.09,16.39-4.13,5.08-9.44,8.82-15.92,11.24-6.48,2.42-13.92,3.62-22.32,3.62-9.39,0-17.33-1.03-23.85-3.1-6.51-2.06-11.57-5.18-15.18-9.35-3.61-4.17-6.18-9.21-7.72-15.13-1.54-5.92-2.31-14.79-2.31-26.63v-35.72c0-12.96,1.4-23.08,4.2-30.36,2.8-7.28,7.84-13.13,15.13-17.54,7.28-4.41,16.6-6.62,27.94-6.62,9.52,0,17.7,1.42,24.53,4.25,6.83,2.84,12.1,6.53,15.81,11.08,3.71,4.55,6.25,9.24,7.62,14.08,1.37,4.83,2.05,12.19,2.05,22.06ZM644.48,132.1c0-7.14-.39-11.64-1.16-13.5-.77-1.86-2.42-2.78-4.94-2.78s-4.2.93-5.04,2.78c-.84,1.86-1.26,6.36-1.26,13.5v62.92c0,6.58.42,10.87,1.26,12.87.84,2,2.48,2.99,4.94,2.99s4.18-.91,4.99-2.73c.8-1.82,1.21-5.74,1.21-11.77v-64.29Z" fill="#1a73e8"/>
        <path d="M798.06,93.66v139.4h-43.17l.74-11.58c-2.94,4.7-6.57,8.23-10.87,10.58s-9.26,3.53-14.86,3.53c-6.37,0-11.66-1.12-15.86-3.36-4.2-2.24-7.3-5.22-9.3-8.93-2-3.71-3.24-7.58-3.73-11.61-.49-4.03-.74-12.03-.74-24v-94.02h42.44v94.86c0,10.86.33,17.3,1,19.33.66,2.03,2.47,3.05,5.41,3.05,3.15,0,5.02-1.05,5.62-3.15.59-2.1.89-8.86.89-20.27v-93.81h42.44Z" fill="#1a73e8"/>
        <path d="M856.46,93.66l-.74,12.84c3.08-5.12,6.84-8.96,11.29-11.52,4.45-2.56,9.58-3.84,15.39-3.84,7.28,0,13.24,1.72,17.86,5.15,4.62,3.43,7.6,7.76,8.93,12.97,1.33,5.22,2,13.92,2,26.1v97.7h-42.44v-96.54c0-9.59-.32-15.44-.95-17.54-.63-2.1-2.38-3.15-5.25-3.15-3.01,0-4.9,1.21-5.67,3.62-.77,2.42-1.16,8.88-1.16,19.38v94.23h-42.44V93.66h43.17Z" fill="#1a73e8"/>
        <path d="M1022.34,62.98v170.07h-42.44v-10.11c-4.06,4.21-8.33,7.37-12.82,9.47-4.48,2.1-9.18,3.16-14.08,3.16-6.58,0-12.29-1.73-17.12-5.2s-7.93-7.47-9.3-12.03c-1.37-4.55-2.05-11.98-2.05-22.27v-65.24c0-10.71.68-18.31,2.05-22.79,1.37-4.48,4.5-8.42,9.4-11.82,4.9-3.4,10.75-5.09,17.54-5.09,5.25,0,10.07.95,14.44,2.84,4.38,1.9,8.35,4.74,11.92,8.53v-39.52h42.44ZM979.9,128.74c0-5.11-.44-8.54-1.31-10.29-.88-1.75-2.61-2.63-5.2-2.63s-4.22.79-5.09,2.36c-.88,1.58-1.31,5.09-1.31,10.56v68.28c0,5.67.42,9.4,1.26,11.19.84,1.79,2.45,2.68,4.83,2.68,2.73,0,4.55-1,5.46-2.99.91-2,1.37-6.88,1.37-14.65v-64.5Z" fill="#1a73e8"/>
        <path d="M1133.69,165.83h-54.94v30.15c0,6.3.46,10.37,1.37,12.19.91,1.82,2.66,2.73,5.25,2.73,3.22,0,5.37-1.21,6.46-3.62,1.08-2.42,1.63-7.09,1.63-14.02v-18.38h40.23v10.29c0,8.61-.54,15.23-1.63,19.85-1.09,4.62-3.62,9.56-7.62,14.81-3.99,5.25-9.05,9.19-15.18,11.82-6.13,2.63-13.81,3.94-23.06,3.94s-16.88-1.3-23.74-3.89c-6.86-2.59-12.2-6.15-16.02-10.66-3.82-4.52-6.46-9.49-7.93-14.92-1.47-5.43-2.21-13.32-2.21-23.69v-40.65c0-12.19,1.64-21.8,4.94-28.84,3.29-7.04,8.68-12.43,16.18-16.18,7.49-3.75,16.11-5.62,25.84-5.62,11.91,0,21.73,2.26,29.47,6.78,7.74,4.52,13.17,10.5,16.28,17.96,3.12,7.46,4.67,17.95,4.67,31.46v18.49ZM1091.14,143.13v-10.19c0-7.21-.39-11.87-1.16-13.97-.77-2.1-2.35-3.15-4.73-3.15-2.94,0-4.76.89-5.46,2.68-.7,1.79-1.05,6.6-1.05,14.44v10.19h12.4Z" fill="#1a73e8"/>
        <path d="M1189.99,93.66l-1.68,18.33c6.16-13.13,15.09-20.08,26.79-20.85v49.06c-7.77,0-13.48,1.05-17.12,3.15-3.64,2.1-5.88,5.03-6.72,8.77-.84,3.75-1.26,12.38-1.26,25.89v55.05h-42.44V93.66h42.44Z" fill="#1a73e8"/>
        <path d="M1340.19,62.98l25.29,170.07h-45.2l-2.37-30.57h-15.82l-2.66,30.57h-45.72l22.56-170.07h63.92ZM1316.75,172.34c-2.24-19.26-4.48-43.07-6.74-71.43-4.5,32.57-7.33,56.38-8.49,71.43h15.22Z" fill="#1a73e8"/>
        <path d="M1465.54,146.29h-40.02v-16.07c0-5.6-.46-9.4-1.37-11.4s-2.59-2.99-5.04-2.99-4.1.88-4.94,2.63c-.84,1.75-1.26,5.67-1.26,11.77v65.76c0,4.97.63,8.7,1.89,11.19,1.26,2.49,3.12,3.73,5.57,3.73,2.87,0,4.81-1.29,5.83-3.89,1.01-2.59,1.52-7.49,1.52-14.71v-16.6h37.82c-.07,11.13-.47,19.49-1.21,25.05s-3.08,11.28-7.04,17.12c-3.96,5.85-9.12,10.26-15.5,13.24-6.37,2.98-14.25,4.46-23.64,4.46-11.98,0-21.47-2.05-28.47-6.15s-11.96-9.84-14.86-17.23c-2.91-7.39-4.36-17.87-4.36-31.46v-39.6c0-11.83,1.19-20.76,3.57-26.79,2.38-6.02,7.46-11.4,15.23-16.12s17.23-7.09,28.36-7.09,20.52,2.35,28.36,7.04c7.84,4.69,13.06,10.61,15.65,17.75,2.59,7.14,3.89,17.26,3.89,30.36Z" fill="#1a73e8"/>
        <path d="M1571.95,146.29h-40.02v-16.07c0-5.6-.46-9.4-1.37-11.4s-2.59-2.99-5.04-2.99-4.1.88-4.94,2.63c-.84,1.75-1.26,5.67-1.26,11.77v65.76c0,4.97.63,8.7,1.89,11.19,1.26,2.49,3.12,3.73,5.57,3.73,2.87,0,4.81-1.29,5.83-3.89,1.01-2.59,1.52-7.49,1.52-14.71v-16.6h37.82c-.07,11.13-.47,19.49-1.21,25.05s-3.08,11.28-7.04,17.12c-3.96,5.85-9.12,10.26-15.5,13.24-6.37,2.98-14.25,4.46-23.64,4.46-11.98,0-21.47-2.05-28.47-6.15s-11.96-9.84-14.86-17.23c-2.91-7.39-4.36-17.87-4.36-31.46v-39.6c0-11.83,1.19-20.76,3.57-26.79,2.38-6.02,7.46-11.4,15.23-16.12s17.23-7.09,28.36-7.09,20.52,2.35,28.36,7.04c7.84,4.69,13.06,10.61,15.65,17.75,2.59,7.14,3.89,17.26,3.89,30.36Z" fill="#1a73e8"/>
        <path d="M1680.68,165.83h-54.94v30.15c0,6.3.46,10.37,1.37,12.19.91,1.82,2.66,2.73,5.25,2.73,3.22,0,5.37-1.21,6.46-3.62,1.08-2.42,1.63-7.09,1.63-14.02v-18.38h40.23v10.29c0,8.61-.54,15.23-1.63,19.85-1.09,4.62-3.62,9.56-7.62,14.81-3.99,5.25-9.05,9.19-15.18,11.82-6.13,2.63-13.81,3.94-23.06,3.94s-16.88-1.3-23.74-3.89c-6.86-2.59-12.2-6.15-16.02-10.66-3.82-4.52-6.46-9.49-7.93-14.92-1.47-5.43-2.21-13.32-2.21-23.69v-40.65c0-12.19,1.64-21.8,4.94-28.84,3.29-7.04,8.68-12.43,16.18-16.18,7.49-3.75,16.11-5.62,25.84-5.62,11.91,0,21.73,2.26,29.47,6.78,7.74,4.52,13.17,10.5,16.28,17.96,3.12,7.46,4.67,17.95,4.67,31.46v18.49ZM1638.13,143.13v-10.19c0-7.21-.39-11.87-1.16-13.97-.77-2.1-2.35-3.15-4.73-3.15-2.94,0-4.76.89-5.46,2.68-.7,1.79-1.05,6.6-1.05,14.44v10.19h12.4Z" fill="#1a73e8"/>
        <path d="M1781.21,138.2h-37.61v-7.56c0-6.44-.37-10.52-1.1-12.24-.74-1.71-2.57-2.57-5.52-2.57-2.38,0-4.17.79-5.36,2.36-1.19,1.58-1.79,3.94-1.79,7.09,0,4.27.3,7.41.89,9.4.59,2,2.38,4.19,5.36,6.57,2.98,2.38,9.09,5.85,18.33,10.4,12.33,6.02,20.41,11.7,24.27,17.02,3.85,5.32,5.78,13.06,5.78,23.22,0,11.34-1.47,19.91-4.41,25.68-2.94,5.78-7.86,10.23-14.76,13.34-6.9,3.12-15.21,4.67-24.95,4.67-10.79,0-20.01-1.68-27.68-5.04-7.67-3.36-12.94-7.91-15.81-13.66-2.87-5.74-4.31-14.43-4.31-26.05v-6.72h37.61v8.82c0,7.5.47,12.36,1.42,14.6.95,2.24,2.82,3.36,5.62,3.36,3.01,0,5.11-.75,6.3-2.26,1.19-1.5,1.79-4.67,1.79-9.51,0-6.65-.77-10.82-2.31-12.5-1.61-1.68-9.84-6.65-24.69-14.92-12.47-7-20.06-13.36-22.8-19.07-2.73-5.71-4.1-12.48-4.1-20.33,0-11.13,1.47-19.34,4.41-24.63,2.94-5.29,7.93-9.37,14.97-12.24,7.04-2.87,15.21-4.31,24.53-4.31s17.11,1.17,23.58,3.52c6.48,2.35,11.45,5.45,14.92,9.3,3.47,3.85,5.57,7.42,6.3,10.71.74,3.29,1.1,8.44,1.1,15.44v8.09Z" fill="#1a73e8"/>
        <path d="M1882.47,138.2h-37.61v-7.56c0-6.44-.37-10.52-1.1-12.24-.74-1.71-2.57-2.57-5.52-2.57-2.38,0-4.17.79-5.36,2.36-1.19,1.58-1.79,3.94-1.79,7.09,0,4.27.3,7.41.89,9.4.59,2,2.38,4.19,5.36,6.57,2.98,2.38,9.09,5.85,18.33,10.4,12.33,6.02,20.41,11.7,24.27,17.02,3.85,5.32,5.78,13.06,5.78,23.22,0,11.34-1.47,19.91-4.41,25.68-2.94,5.78-7.86,10.23-14.76,13.34-6.9,3.12-15.21,4.67-24.95,4.67-10.79,0-20.01-1.68-27.68-5.04-7.67-3.36-12.94-7.91-15.81-13.66-2.87-5.74-4.31-14.43-4.31-26.05v-6.72h37.61v8.82c0,7.5.47,12.36,1.42,14.6.95,2.24,2.82,3.36,5.62,3.36,3.01,0,5.11-.75,6.3-2.26,1.19-1.5,1.79-4.67,1.79-9.51,0-6.65-.77-10.82-2.31-12.5-1.61-1.68-9.84-6.65-24.69-14.92-12.47-7-20.06-13.36-22.8-19.07-2.73-5.71-4.1-12.48-4.1-20.33,0-11.13,1.47-19.34,4.41-24.63,2.94-5.29,7.93-9.37,14.97-12.24,7.04-2.87,15.21-4.31,24.53-4.31s17.11,1.17,23.58,3.52c6.48,2.35,11.45,5.45,14.92,9.3,3.47,3.85,5.57,7.42,6.3,10.71.74,3.29,1.1,8.44,1.1,15.44v8.09Z" fill="#1a73e8"/>
      </g>
      <line x1="32.01" y1="392.01" x2="684.67" y2="392.01" fill="none" stroke="#d7dbde" stroke-linecap="round" stroke-linejoin="round" stroke-width="2"/>
      <g>
        <path d="M550.13,243.84h-9.72c-1.36,0-2.59-.82-3.09-2.08-.13-.32-.26-.65-.4-.97-.53-1.24-.23-2.68.72-3.63l7.16-7.16c1.31-1.31,1.31-3.43,0-4.73l-13.7-13.7c-1.31-1.31-3.43-1.31-4.73,0l-7.04,7.04c-.99.99-2.47,1.22-3.76.67-.2-.08-.39-.17-.59-.25-1.29-.53-2.16-1.73-2.16-3.12v-10.36c0-1.85-1.5-3.35-3.35-3.35h-19.37c-1.85,0-3.35,1.5-3.35,3.35v10.35c0,1.39-.88,2.6-2.16,3.12-.11.04-.22.09-.32.13-1.28.54-2.76.31-3.74-.68l-7.61-7.61c-1.31-1.31-3.43-1.31-4.73,0l-13.7,13.7c-1.31,1.31-1.31,3.43,0,4.73l7.56,7.56c.99.99,1.22,2.47.68,3.76-.01.03-.03.06-.04.09-.53,1.27-1.74,2.14-3.12,2.14h-11.1c-1.85,0-3.35,1.5-3.35,3.35v19.37c0,1.85,1.5,3.35,3.35,3.35h10.77c1.4,0,2.62.89,3.14,2.19,0,.01.01.03.02.04.52,1.28.27,2.73-.7,3.7l-7.9,7.9c-1.31,1.31-1.31,3.43,0,4.73l13.7,13.7c1.31,1.31,3.43,1.31,4.73,0l7.46-7.46c1-1,2.5-1.22,3.8-.66.06.03.12.05.19.08,1.25.54,2.1,1.74,2.1,3.1v10.95c0,1.85,1.5,3.35,3.35,3.35h19.37c1.85,0,3.35-1.5,3.35-3.35v-10.14c0-1.37.83-2.61,2.11-3.1.23-.09.45-.18.67-.27,1.24-.51,2.66-.21,3.6.74l7.45,7.45c1.31,1.31,3.43,1.31,4.73,0l13.7-13.7c1.31-1.31,1.31-3.43,0-4.73l-6.94-6.94c-.97-.97-1.26-2.44-.7-3.69.13-.3.26-.6.39-.9.51-1.23,1.73-2.02,3.07-2.02h10.2c1.85,0,3.35-1.5,3.35-3.35v-19.37c0-1.85-1.5-3.35-3.35-3.35ZM499.3,275.75c-10.69,0-19.36-8.67-19.36-19.36s8.67-19.36,19.36-19.36,19.36,8.67,19.36,19.36-8.67,19.36-19.36,19.36Z" fill="#d7dbde"/>
        <g>
          <g>
            <g>
              <rect x="216.28" y="171.26" width="284.12" height="198.93" rx="12.39" ry="12.39" fill="#05062a"/>
              <g mix-blend-mode="multiply">
                <path d="M216.38,359.29c.74,6.14,5.96,10.9,12.29,10.9h259.34c6.34,0,11.55-4.76,12.29-10.9H216.38Z" fill="#e5e5e5"/>
              </g>
            </g>
            <rect x="226.4" y="181.38" width="263.88" height="174.52" rx="12.39" ry="12.39" fill="#1a73e8"/>
            <g>
              <g>
                <path d="M266.81,265.81c0-15.87,12.5-27.01,29.54-27.01,10.38,0,18.56,3.69,23.78,10.33l-11.29,9.82c-3.11-3.84-6.82-6.05-11.59-6.05-7.42,0-12.42,5.02-12.42,12.92s5,12.92,12.42,12.92c4.77,0,8.48-2.21,11.59-6.05l11.29,9.82c-5.23,6.64-13.41,10.33-23.78,10.33-17.04,0-29.54-11.14-29.54-27.01Z" fill="#fff"/>
                <path d="M375.65,291.64l-.15-23.54-11.51,18.89h-7.88l-11.51-18.08v22.73h-16.29v-51.66h14.69l17.27,27.53,16.82-27.53h14.69l.15,51.66h-16.29Z" fill="#fff"/>
                <path d="M400.26,287.51l5.76-12.7c5,2.88,11.66,4.72,17.5,4.72,5.08,0,6.89-1.03,6.89-2.8,0-6.5-29.31-1.25-29.31-20.52,0-9.6,8.26-17.42,24.69-17.42,7.12,0,14.47,1.48,20,4.5l-5.38,12.62c-5.23-2.58-10.15-3.84-14.77-3.84-5.23,0-6.89,1.48-6.89,3.25,0,6.2,29.31,1.03,29.31,20.08,0,9.45-8.26,17.42-24.69,17.42-8.86,0-17.8-2.14-23.1-5.31Z" fill="#fff"/>
              </g>
              <g>
                <rect x="271.1" y="300.33" width="115.62" height="3.87" fill="#599bff"/>
                <rect x="390.87" y="300.33" width="22.79" height="3.87" fill="#599bff"/>
                <rect x="416.32" y="300.33" width="22.79" height="3.87" fill="#fff"/>
                <rect x="390.87" y="315.08" width="22.79" height="3.87" fill="#599bff"/>
                <rect x="340.11" y="322.64" width="73.54" height="3.87" fill="#599bff"/>
                <rect x="416.32" y="315.08" width="22.79" height="3.87" fill="#fff"/>
                <rect x="298.04" y="307.71" width="115.62" height="3.87" fill="#fff"/>
                <rect x="416.13" y="307.71" width="22.79" height="3.87" fill="#599bff"/>
                <rect x="416.13" y="322.64" width="22.79" height="3.87" fill="#599bff"/>
              </g>
            </g>
            <g>
              <circle cx="247.26" cy="196.6" r="4.38" fill="#fff"/>
              <circle cx="261.86" cy="196.6" r="4.38" fill="#fff"/>
              <circle cx="276.45" cy="196.6" r="4.38" fill="#fff"/>
              <line x1="234.36" y1="206.33" x2="479.2" y2="206.33" fill="none" stroke="#fff" stroke-miterlimit="10" stroke-width=".97"/>
            </g>
          </g>
          <g>
            <path d="M512.59,391.88H204.09c-7.12,0-13.49-4.43-15.96-11.11l-5.62-15.17h351.66l-5.62,15.17c-2.47,6.68-8.84,11.11-15.96,11.11Z" fill="#d7dbde"/>
            <g mix-blend-mode="multiply">
              <path d="M187.72,379.67l.41,1.1c2.47,6.68,8.84,11.11,15.96,11.11h308.5c7.12,0,13.49-4.43,15.96-11.11l.41-1.1H187.72Z" fill="#e5e5e5"/>
            </g>
          </g>
        </g>
      </g>
      <g>
        <g>
          <rect x="151.95" y="257.57" width="99.05" height="73.35" rx="22.43" ry="22.43" fill="#fff" stroke="#d7dbde" stroke-miterlimit="10" stroke-width="2.88"/>
          <polygon points="225.35 295.03 185.32 273.99 185.32 316.58 225.35 295.03" fill="#1a73e8"/>
        </g>
        <g>
          <rect x="80.62" y="188.81" width="8.57" height="167.89" transform="translate(19.72 -5.37) rotate(4.1)" fill="#d7dbde"/>
          <rect x="181.66" y="82.11" width="35.82" height="5.21" fill="#d7dbde"/>
          <polygon points="96.36 188.87 192.43 75.42 186.15 70.64 86.04 188.87 96.36 188.87" fill="#d7dbde"/>
          <g>
            <rect x="70.45" y="351.96" width="17.99" height="23.35" fill="#05062a"/>
            <g mix-blend-mode="multiply">
              <rect x="70.45" y="363.33" width="17.99" height="11.99" fill="#e5e5e5"/>
            </g>
          </g>
          <rect x="61.93" y="369.79" width="78.26" height="22.09" rx="7.18" ry="7.18" fill="#05062a"/>
          <g mix-blend-mode="multiply">
            <path d="M61.93,382.26v2.45c0,3.97,3.21,7.18,7.18,7.18h63.9c3.97,0,7.18-3.21,7.18-7.18v-2.45H61.93Z" fill="#e5e5e5"/>
          </g>
          <g>
            <g>
              <path d="M208.17,67.91h16.73c5.14,0,9.31,4.17,9.31,9.31v28.56h-35.34v-28.56c0-5.14,4.17-9.31,9.31-9.31Z" fill="#1a73e8"/>
              <g mix-blend-mode="multiply">
                <rect x="198.86" y="90.63" width="35.34" height="15.15" fill="#e5e5e5"/>
              </g>
            </g>
            <path d="M217.95,95.04h0c21.86,0,39.6,17.75,39.6,39.6v15.31h-79.21v-15.31c0-21.86,17.75-39.6,39.6-39.6Z" fill="#1a73e8"/>
            <g mix-blend-mode="multiply">
              <rect x="178.35" y="137.33" width="79.21" height="12.62" fill="#e5e5e5"/>
            </g>
            <rect x="172.51" y="141.43" width="90.89" height="12.94" fill="#05062a"/>
          </g>
          <circle cx="91.99" cy="186.85" r="11.09" fill="#05062a"/>
        </g>
      </g>
      <g>
        <rect x="442.38" y="326.24" width="80.25" height="113.17" fill="#fff" stroke="#d7dbde" stroke-miterlimit="10" stroke-width="2.88"/>
        <rect x="452.51" y="340.78" width="59.77" height="2.93" fill="#1a73e8"/>
        <rect x="452.51" y="346.26" width="39.71" height="2.93" fill="#1a73e8"/>
        <rect x="452.51" y="351.8" width="51.93" height="2.93" fill="#1a73e8"/>
        <rect x="452.51" y="357.24" width="48.28" height="2.93" fill="#1a73e8"/>
        <rect x="452.51" y="404.57" width="48.28" height="2.93" fill="#1a73e8"/>
        <rect x="452.51" y="410.24" width="35.07" height="2.93" fill="#1a73e8"/>
        <rect x="452.51" y="416.07" width="39.82" height="2.93" fill="#1a73e8"/>
      </g>
      <g>
        <g>
          <g>
            <rect x="311.99" y="68.65" width="171.72" height="28.33" rx="7.95" ry="7.95" fill="#fff" stroke="#d7dbde" stroke-miterlimit="10" stroke-width="2"/>
            <path d="M475.77,68.65h-42.63c-4.79,0-8.68,3.89-8.68,8.68v10.97c0,4.79,3.89,8.68,8.68,8.68h42.63c4.39,0,7.95-3.56,7.95-7.95v-12.44c0-4.39-3.56-7.95-7.95-7.95Z" fill="#1a73e8"/>
          </g>
          <g>
            <rect x="311.99" y="103.98" width="171.72" height="28.33" rx="7.95" ry="7.95" fill="#fff" stroke="#d7dbde" stroke-miterlimit="10" stroke-width="2"/>
            <path d="M475.77,103.98h-42.63c-4.79,0-8.68,3.89-8.68,8.68v10.97c0,4.79,3.89,8.68,8.68,8.68h42.63c4.39,0,7.95-3.56,7.95-7.95v-12.44c0-4.39-3.56-7.95-7.95-7.95Z" fill="#05062a"/>
          </g>
          <g>
            <circle cx="508.68" cy="148.16" r="67.29" transform="translate(279.29 625.74) rotate(-80.58)" fill="#fff" stroke="#d7dbde" stroke-miterlimit="10" stroke-width="2.88"/>
            <g>
              <path d="M469.56,149.44l12.27-17.06h12.19l-11.93,17.06,11.93,16.98h-12.19l-12.27-16.98Z" fill="#1a73e8"/>
              <path d="M517.7,105.92h12.1l-28.73,82h-12.1l28.73-82Z" fill="#1a73e8"/>
              <path d="M523.44,166.42l11.93-16.98-11.93-17.06h12.19l12.27,17.06-12.27,16.98h-12.19Z" fill="#1a73e8"/>
            </g>
          </g>
        </g>
        <g>
          <g>
            <path d="M648.67,205.41h-54c-9.66,0-17.5,7.84-17.5,17.5v7c0,9.67,7.83,17.5,17.5,17.5h23.88l12.46,22.33,13.71-22.33h3.95c9.67,0,17.5-7.83,17.5-17.5v-7c0-9.66-7.83-17.5-17.5-17.5Z" fill="#1a73e8"/>
            <g>
              <path d="M596.2,226.63c0-4.2,3.11-6.95,7.02-6.95s7.02,2.75,7.02,6.95-3.11,7.09-7.02,7.09-7.02-2.97-7.02-7.09Z" fill="#fff"/>
              <path d="M615.16,226.63c0-4.2,3.11-6.95,7.02-6.95s7.02,2.75,7.02,6.95-3.11,7.09-7.02,7.09-7.02-2.97-7.02-7.09Z" fill="#fff"/>
              <path d="M634.13,226.63c0-4.2,3.11-6.95,7.02-6.95s7.02,2.75,7.02,6.95-3.11,7.09-7.02,7.09-7.02-2.97-7.02-7.09Z" fill="#fff"/>
            </g>
          </g>
          <g>
            <g>
              <g>
                <rect x="593.93" y="285" width="55.48" height="18.17" fill="#d7dbde"/>
                <rect x="593.93" y="290.91" width="55.48" height="12.25" fill="#e5e5e5" mix-blend-mode="multiply"/>
              </g>
              <polygon points="642.37 391.88 599.28 391.88 591.68 303.59 651.67 303.59 642.37 391.88" fill="#1a73e8"/>
              <g mix-blend-mode="multiply">
                <polygon points="651.67 303.59 591.68 303.59 593.64 317.74 649.27 317.74 651.67 303.59" fill="#e5e5e5"/>
              </g>
              <rect x="583.02" y="293.24" width="77.31" height="18.17" fill="#05062a"/>
            </g>
            <circle cx="621.67" cy="348.82" r="16.92" transform="translate(-50.85 585.18) rotate(-48.66)" fill="#fff"/>
          </g>
        </g>
      </g>
      <path d="M1231.29,408.74s60.92,11.19,80.31-31.14c25.16-54.91-26.53-96.55-66.17-88.79-86.38,16.9-21.4-145.67-196.15-99.8-39.1,10.26-124.55-122.69-181.75,17.34-9.54,23.35-31.73,26.91-67.66,42.29-70.31,30.1-38.16,160.6,12.08,161.11,50.24.51,419.34-1.02,419.34-1.02Z" fill="#1a73e8"/>
      <g>
        <path d="M971.01,249.87l-12.65,150.41s-1.33,9.12,5.46,9.13c11.15.03,55.5,0,55.5,0,0,0-8.39-1.9-8.29-6.17.12-5.03,14.79-154.8,14.79-154.8l-54.8,1.42Z" fill="#4a75cb"/>
        <path d="M1022.91,406.68c-2.19,0-44.55.14-55.41,0-4.73-.06-5.56-4.21-5.6-6.89-.02-1.29.14-2.24.14-2.24l.33-3.91.84-9.96.74-8.8.95-11.31.8-9.55,8.99-106.88,54.8-1.42s-6.18,62.68-10.55,108.3c-.49,5.08-.95,9.96-1.38,14.51-.14,1.45-.27,2.87-.4,4.26-.41,4.32-.78,8.28-1.1,11.78-.17,1.84-.33,3.56-.47,5.13-.56,6.15-.88,10.08-.89,10.83,0,.44.03.84.11,1.22.9,4.79,7.27,4.95,8.1,4.95Z" fill="#afcdfb"/>
        <polygon points="1101.03 168.02 837.92 168.02 868.73 291.79 872.95 308.74 887.3 366.39 1153.92 366.39 1101.03 168.02" fill="#afcdfb"/>
        <polygon points="837.92 168.02 833.64 169.44 881.62 370.7 887.3 366.39 837.92 168.02" fill="#699dee"/>
        <polygon points="881.62 370.7 1146.6 370.7 1153.92 366.39 887.3 366.39 881.62 370.7" fill="#4a75cb"/>
        <rect x="974.68" y="406.74" width="57.37" height="2.73" transform="translate(2006.72 816.22) rotate(180)" fill="#4a75cb"/>
        <polygon points="1017.46 370.69 1017.17 372.78 963.21 383.68 961.9 383.13 962.53 370.28 1012.77 369.33 1017.46 370.69" fill="#4a75cb"/>
        <path d="M1024.75,406.74c-2.19,0-46.39.08-57.24-.06-4.73-.06-5.56-4.21-5.6-6.89l53.7-10.1c-.56,6.15-.88,10.08-.89,10.83,0,.44.03.84.11,1.22.9,4.79,9.1,5.01,9.93,5.01Z" fill="#699dee"/>
        <polygon points="1000.96 327.42 887.3 366.39 877.59 327.4 1000.96 327.42" fill="#699dee" opacity=".2"/>
        <polygon points="1101.03 168.02 837.92 168.02 877.57 327.4 1143.72 327.45 1101.03 168.02" fill="#699dee"/>
      </g>
      <polygon points="1131.31 320.54 884.96 320.54 857.06 209.4 854.92 200.88 853.09 193.61 848.81 176.56 1091.61 176.56 1096.31 193.61 1098.32 200.88 1100.67 209.4 1131.31 320.54" fill="#fff"/>
      <polygon points="1091.61 176.56 848.81 176.56 853.09 193.61 1096.31 193.61 1091.61 176.56" fill="#f1a34f"/>
      <g>
        <path d="M860.46,182.13c-1.18,0-1.89.95-1.6,2.13.29,1.18,1.49,2.13,2.66,2.13s1.89-.95,1.6-2.13-1.49-2.13-2.66-2.13Z" fill="#e9f3fe"/>
        <path d="M867.54,182.13c-1.18,0-1.89.95-1.6,2.13s1.49,2.13,2.66,2.13,1.89-.95,1.6-2.13c-.29-1.18-1.49-2.13-2.66-2.13Z" fill="#e9f3fe"/>
        <path d="M877.82,184.26c-.29-1.18-1.49-2.13-2.66-2.13s-1.89.95-1.6,2.13c.29,1.18,1.49,2.13,2.66,2.13s1.89-.95,1.6-2.13Z" fill="#e9f3fe"/>
      </g>
      <g>
        <path d="M893.57,352.82h0c11.08,0,20.07,8.99,20.07,20.07h0c0,11.08-8.99,20.07-20.07,20.07h0c-11.08,0-20.07-8.99-20.07-20.07h0c0-11.08,8.99-20.07,20.07-20.07Z" fill="#aa413e"/>
        <path d="M898.88,352.82h0c11.08,0,20.07,8.99,20.07,20.07h0c0,11.08-8.99,20.07-20.07,20.07h0c-11.08,0-20.07-8.99-20.07-20.07h0c0-11.08,8.99-20.07,20.07-20.07Z" fill="#c65447"/>
      </g>
      <g>
        <rect x="1109.23" y="88.46" width="40.14" height="40.14" rx="20.07" ry="20.07" fill="#d86713"/>
        <rect x="1114.54" y="88.46" width="40.14" height="40.14" rx="20.07" ry="20.07" fill="#f1a34f"/>
      </g>
      <rect x="810.92" y="144.47" width="40.14" height="40.14" rx="20.07" ry="20.07" fill="#82b479"/>
      <rect x="816.23" y="144.47" width="40.14" height="40.14" rx="20.07" ry="20.07" fill="#a8d29f"/>
      <path d="M908.12,376.18l-2.48-1.36c.16-.61.24-1.25.24-1.92,0-1.17-.26-2.28-.73-3.27l2.2-1.8-2.43-2.96-2.2,1.81c-.78-.57-1.67-1-2.64-1.25v-2.85h-3.83v2.85c-1.44.37-2.71,1.14-3.7,2.19l-2.49-1.37-1.85,3.36,2.49,1.37c-.16.62-.25,1.27-.25,1.94,0,1.16.26,2.26.72,3.25l-2.19,1.8,2.43,2.96,2.18-1.79c.78.58,1.68,1.01,2.65,1.26v2.82h3.83v-2.82c1.44-.37,2.73-1.15,3.71-2.2l2.48,1.36,1.85-3.36ZM898.17,377.59c-2.59,0-4.69-2.1-4.69-4.69s2.1-4.69,4.69-4.69,4.69,2.1,4.69,4.69-2.1,4.69-4.69,4.69Z" fill="#fff"/>
      <g>
        <path d="M1116.36,107.99l12.45-5.78v2.75l-9.42,4.12v.05l9.42,4.12v2.75l-12.45-5.79v-2.23Z" fill="#fff"/>
        <path d="M1130.73,118.74l5.55-18.81h2.62l-5.55,18.81h-2.62Z" fill="#fff"/>
        <path d="M1152.86,110.3l-12.45,5.71v-2.75l9.62-4.12v-.05l-9.62-4.12v-2.75l12.45,5.71v2.39Z" fill="#fff"/>
      </g>
      <g>
        <path d="M822.56,163.23c2.34-.07,2.57-1.29,2.57-2.3,0-.85-.1-1.73-.2-2.64-.1-.91-.17-1.83-.17-2.67,0-3.18,2-4.57,5.15-4.57h1.18v2.88h-.61c-1.52,0-2.07.91-2.07,2.4,0,.61.1,1.22.17,1.93.07.68.17,1.46.17,2.3.03,2.57-1.02,3.52-2.88,3.93v.07c1.86.41,2.91,1.39,2.88,3.96,0,.88-.1,1.66-.17,2.37-.07.68-.17,1.32-.17,1.9,0,1.49.51,2.44,2.07,2.44h.61v2.84h-1.22c-3.01,0-5.11-1.22-5.11-4.6,0-.85.07-1.76.17-2.67.1-.91.2-1.79.2-2.64,0-.95-.24-2.23-2.57-2.3v-2.61Z" fill="#fff"/>
        <path d="M848.63,165.84c-2.3.07-2.57,1.35-2.57,2.3,0,.85.1,1.73.2,2.64.1.91.2,1.83.2,2.67,0,3.39-2.1,4.6-5.15,4.6h-1.22v-2.84h.61c1.56-.03,2.07-.95,2.07-2.44,0-.58-.07-1.22-.17-1.9-.07-.71-.17-1.49-.17-2.37-.03-2.57,1.02-3.55,2.91-3.96v-.07c-1.9-.41-2.94-1.35-2.91-3.93,0-.85.1-1.62.17-2.3.1-.71.17-1.32.17-1.93,0-1.49-.54-2.37-2.07-2.4h-.61v-2.88h1.18c3.18,0,5.18,1.39,5.18,4.57,0,.85-.1,1.76-.2,2.67-.1.91-.2,1.79-.2,2.64,0,1.02.27,2.23,2.57,2.3v2.61Z" fill="#fff"/>
      </g>
      <path d="M951.28,205.87h-84.96c-.82,0-1.54-.54-1.76-1.33h0c-.34-1.17.54-2.35,1.76-2.35h84.96c.82,0,1.54.54,1.76,1.32h0c.34,1.17-.54,2.35-1.76,2.35Z" fill="#f1a34f"/>
      <path d="M1052.18,214.25h-183.86c-.82,0-1.54-.54-1.76-1.32h0c-.34-1.17.54-2.35,1.76-2.35h183.86c.82,0,1.54.54,1.76,1.32h0c.34,1.17-.54,2.35-1.76,2.35Z" fill="#a8d29f"/>
      <path d="M990.12,222.63h-119.72c-.82,0-1.54-.54-1.76-1.32h0c-.34-1.17.54-2.35,1.76-2.35h119.72c.82,0,1.54.54,1.76,1.32h0c.34,1.17-.54,2.35-1.76,2.35Z" fill="#699dee"/>
      <path d="M969.75,267.01h-84.96c-.82,0-1.54-.54-1.76-1.32h0c-.34-1.17.54-2.35,1.76-2.35h84.96c.82,0,1.54.54,1.76,1.32h0c.34,1.17-.54,2.35-1.76,2.35Z" fill="#f1a34f"/>
      <path d="M1008.6,283.77h-119.72c-.82,0-1.54-.54-1.76-1.32h0c-.34-1.17.54-2.35,1.76-2.35h119.72c.82,0,1.54.54,1.76,1.32h0c.34,1.17-.54,2.35-1.76,2.35Z" fill="#c65447"/>
      <path d="M944.25,234.89h-70.49c-.82,0-1.54-.54-1.76-1.33h0c-.34-1.17.54-2.35,1.76-2.35h70.49c.82,0,1.54.54,1.76,1.32h0c.34,1.17-.54,2.35-1.76,2.35Z" fill="#a8d29f"/>
      <g>
        <g>
          <path d="M1735.43,144.36c0-3.21-.32-6.34-.94-9.36l15.66-9.04-14.66-25.4-15.61,9.01c-4.72-4.23-10.32-7.51-16.48-9.55v-17.99h-29.33v17.99c-2.74.91-5.37,2.05-7.86,3.42-.3.16-.59.34-.88.51-.29.17-.59.33-.88.51-2.43,1.47-4.74,3.17-6.89,5.09l-15.58-9-14.66,25.4,15.58,9c-.59,2.82-.91,5.67-.96,8.51,0,.34,0,.69,0,1.03,0,.33,0,.66,0,1,.06,2.84.38,5.69.96,8.52l-15.58,9,14.66,25.4,15.58-9c4.84,4.32,10.48,7.52,16.5,9.5v18.02h29.33v-18.08c2.93-.98,5.8-2.26,8.58-3.87,2.84-1.64,5.45-3.54,7.8-5.65l15.71,9.07,14.66-25.4-15.71-9.07c.64-3.09.99-6.3.99-9.58ZM1707.94,165.03c-.13.12-.25.23-.38.35-.51.46-1.03.89-1.56,1.31-.25.19-.5.38-.76.57-.44.32-.88.62-1.34.91-.36.23-.73.45-1.1.67-.37.22-.75.42-1.13.62-.48.25-.97.48-1.46.7-.29.13-.58.25-.87.37-.63.25-1.26.49-1.91.7-.16.05-.33.11-.49.16-2.59.78-5.34,1.22-8.19,1.22-15.6,0-28.25-12.65-28.25-28.25,0-3.82.77-7.46,2.14-10.78.07-.16.13-.31.2-.47.25-.58.54-1.15.83-1.72.19-.36.38-.71.58-1.06.2-.35.41-.69.63-1.03.34-.53.69-1.06,1.07-1.57.1-.14.2-.27.3-.41,2.19-2.85,4.96-5.34,8.27-7.25,13.51-7.8,30.78-3.17,38.58,10.34,1.42,2.47,2.43,5.06,3.04,7.7.04.17.07.33.11.5.14.67.26,1.34.35,2.01.04.31.08.63.11.94.06.54.1,1.08.12,1.62.02.43.03.86.03,1.28,0,.43,0,.86-.03,1.29-.03.54-.06,1.07-.12,1.61-.03.32-.07.63-.11.95-.09.67-.21,1.34-.35,2-.04.17-.07.34-.11.51-.62,2.64-1.62,5.23-3.04,7.7-1.42,2.47-3.17,4.63-5.15,6.48Z" fill="#ebebf2"/>
          <path d="M1805.11,233.68c0-1.81-.18-3.57-.53-5.28l8.83-5.1-8.27-14.32-8.8,5.08c-2.66-2.39-5.82-4.23-9.29-5.38v-10.14h-16.53v10.14c-1.54.51-3.03,1.16-4.43,1.93-.17.09-.33.19-.5.28-.16.1-.33.19-.49.29-1.37.83-2.67,1.79-3.89,2.87l-8.78-5.07-8.27,14.32,8.78,5.07c-.33,1.59-.51,3.2-.54,4.8,0,.19,0,.39,0,.58,0,.19,0,.37,0,.56.03,1.6.21,3.21.54,4.8l-8.78,5.07,8.27,14.32,8.78-5.07c2.73,2.43,5.91,4.24,9.3,5.35v10.16h16.53v-10.19c1.65-.55,3.27-1.28,4.83-2.18,1.6-.93,3.07-2,4.4-3.18l8.85,5.11,8.27-14.32-8.85-5.11c.36-1.74.56-3.55.56-5.4ZM1789.61,245.33c-.07.07-.14.13-.22.2-.28.26-.58.5-.88.74-.14.11-.28.22-.43.32-.25.18-.5.35-.75.51-.2.13-.41.26-.62.38-.21.12-.42.24-.64.35-.27.14-.54.27-.82.4-.16.07-.33.14-.49.21-.35.14-.71.28-1.08.39-.09.03-.18.06-.28.09-1.46.44-3.01.69-4.62.69-8.79,0-15.92-7.13-15.92-15.92,0-2.15.43-4.2,1.21-6.08.04-.09.07-.18.11-.26.14-.33.3-.65.47-.97.11-.2.21-.4.33-.6.11-.2.23-.39.35-.58.19-.3.39-.6.6-.89.06-.08.11-.15.17-.23,1.24-1.61,2.8-3.01,4.66-4.08,7.62-4.4,17.35-1.79,21.75,5.83.8,1.39,1.37,2.85,1.72,4.34.02.09.04.19.06.28.08.38.14.75.2,1.13.02.18.04.35.06.53.03.3.05.61.07.91.01.24.02.48.02.72,0,.24,0,.49-.02.73-.01.3-.04.61-.07.91-.02.18-.04.36-.06.53-.05.38-.12.75-.2,1.13-.02.1-.04.19-.06.29-.35,1.49-.91,2.95-1.71,4.34-.8,1.39-1.79,2.61-2.9,3.66Z" fill="#ebebf2"/>
          <path d="M1483.54,331.78c-.91-2.34-2.03-4.54-3.34-6.58l8.89-11.05-17.92-14.42-8.86,11.01c-4.65-1.76-9.67-2.57-14.75-2.31l-5.1-13.16-21.45,8.31,5.1,13.16c-1.75,1.44-3.34,3.02-4.78,4.73-.17.2-.33.41-.5.62-.17.21-.34.41-.5.62-1.36,1.76-2.57,3.66-3.6,5.68l-13.94-2.17-3.53,22.73,13.94,2.17c.37,2.23.94,4.41,1.71,6.5.09.25.19.5.29.76.09.24.18.49.28.73.85,2.06,1.89,4.05,3.12,5.96l-8.85,10.99,17.92,14.42,8.85-10.99c4.76,1.78,9.79,2.53,14.76,2.27l5.1,13.18,21.45-8.31-5.12-13.22c1.86-1.55,3.6-3.3,5.18-5.26,1.61-2.01,2.98-4.13,4.11-6.34l14.05,2.18,3.53-22.73-14.05-2.18c-.4-2.44-1.06-4.88-1.99-7.29ZM1469.29,354.68c-.06.12-.12.24-.18.36-.24.48-.5.94-.77,1.4-.13.21-.26.42-.4.63-.23.36-.47.7-.72,1.05-.2.27-.4.54-.62.8-.21.26-.43.52-.65.77-.28.32-.57.63-.87.93-.17.18-.35.35-.53.52-.39.36-.79.72-1.2,1.05-.1.09-.21.17-.32.25-1.67,1.31-3.56,2.4-5.65,3.21-11.41,4.42-24.24-1.25-28.66-12.66-1.08-2.79-1.55-5.67-1.49-8.49,0-.13,0-.26.01-.4.02-.5.06-.99.12-1.49.04-.31.07-.63.12-.94.05-.31.11-.62.17-.93.1-.49.21-.97.34-1.45.03-.13.07-.26.11-.38.79-2.71,2.11-5.31,3.99-7.64,7.67-9.53,21.61-11.04,31.14-3.37,1.74,1.4,3.21,3.02,4.41,4.77.08.11.15.22.22.34.29.45.57.91.83,1.37.12.22.24.43.35.66.19.38.38.76.55,1.15.13.31.26.62.38.93.12.32.24.63.35.95.13.4.26.8.37,1.21.07.24.13.48.19.72.12.52.23,1.04.31,1.56.02.13.04.27.06.4.3,2.1.3,4.28-.04,6.49-.34,2.21-1.01,4.29-1.93,6.2Z" fill="#ebebf2"/>
          <g>
            <path d="M1595.34,133.64h-199.97c-1.41,0-2.56-1.15-2.56-2.56h0c0-1.41,1.15-2.56,2.56-2.56h199.97c1.41,0,2.56,1.15,2.56,2.56h0c0,1.41-1.15,2.56-2.56,2.56Z" fill="#ebebf2"/>
            <path d="M1595.34,151.97h-199.97c-1.41,0-2.56-1.15-2.56-2.56h0c0-1.41,1.15-2.56,2.56-2.56h199.97c1.41,0,2.56,1.15,2.56,2.56h0c0,1.41-1.15,2.56-2.56,2.56Z" fill="#ebebf2"/>
            <path d="M1595.34,170.31h-199.97c-1.41,0-2.56-1.15-2.56-2.56h0c0-1.41,1.15-2.56,2.56-2.56h199.97c1.41,0,2.56,1.15,2.56,2.56h0c0,1.41-1.15,2.56-2.56,2.56Z" fill="#ebebf2"/>
            <path d="M1395.37,183.53h199.97c1.41,0,2.56,1.15,2.56,2.56h0c0,1.41-1.15,2.56-2.56,2.56h-199.97c-1.41,0-2.56-1.15-2.56-2.56h0c0-1.41,1.15-2.56,2.56-2.56Z" fill="#ebebf2"/>
            <path d="M1595.34,206.98h-199.97c-1.41,0-2.56-1.15-2.56-2.56h0c0-1.41,1.15-2.56,2.56-2.56h199.97c1.41,0,2.56,1.15,2.56,2.56h0c0,1.41-1.15,2.56-2.56,2.56Z" fill="#ebebf2"/>
            <path d="M1595.34,225.32h-199.97c-1.41,0-2.56-1.15-2.56-2.56h0c0-1.41,1.15-2.56,2.56-2.56h199.97c1.41,0,2.56,1.15,2.56,2.56h0c0,1.41-1.15,2.56-2.56,2.56Z" fill="#ebebf2"/>
            <path d="M1595.34,243.66h-199.97c-1.41,0-2.56-1.15-2.56-2.56h0c0-1.41,1.15-2.56,2.56-2.56h199.97c1.41,0,2.56,1.15,2.56,2.56h0c0,1.41-1.15,2.56-2.56,2.56Z" fill="#ebebf2"/>
            <path d="M1595.34,261.99h-199.97c-1.41,0-2.56-1.15-2.56-2.56h0c0-1.41,1.15-2.56,2.56-2.56h199.97c1.41,0,2.56,1.15,2.56,2.56h0c0,1.41-1.15,2.56-2.56,2.56Z" fill="#ebebf2"/>
            <path d="M1595.34,280.33h-199.97c-1.41,0-2.56-1.15-2.56-2.56h0c0-1.41,1.15-2.56,2.56-2.56h199.97c1.41,0,2.56,1.15,2.56,2.56h0c0,1.41-1.15,2.56-2.56,2.56Z" fill="#ebebf2"/>
          </g>
        </g>
        <g>
          <ellipse cx="1595.98" cy="396.46" rx="153.55" ry="14.5" fill="#ebebf2"/>
          <g>
            <polygon points="1640.48 397.22 1551.49 397.22 1566.79 353.1 1625.18 353.1 1640.48 397.22" fill="url(#b)"/>
            <g>
              <path d="M1453.39,218.86h285.18v141.22c0,8.45-6.86,15.3-15.3,15.3h-254.57c-8.45,0-15.3-6.86-15.3-15.3v-141.22h0Z" fill="url(#c)"/>
              <path d="M1468.7,174.98h254.57c8.45,0,15.3,6.86,15.3,15.3v148.88h-285.18v-148.88c0-8.45,6.86-15.3,15.3-15.3Z" fill="#3d3d89"/>
              <rect x="1464.86" y="190.44" width="262.74" height="132.97" fill="#1a73e8"/>
            </g>
            <circle cx="1595.98" cy="355.4" r="8.3" fill="url(#d)" mix-blend-mode="multiply"/>
            <path d="M1663.66,397.22h-135.36c0-4.54,3.68-8.23,8.23-8.23h118.91c4.54,0,8.23,3.68,8.23,8.23h0Z" fill="url(#e)"/>
          </g>
        </g>
        <g>
          <ellipse cx="1724.08" cy="420.52" rx="62.22" ry="8.9" fill="#ebebf2"/>
          <g>
            <g>
              <rect x="1684.06" y="279.7" width="80.04" height="137.37" rx="8.89" ry="8.89" fill="#4b4ba0"/>
              <rect x="1684.06" y="289.27" width="80.04" height="117.68" fill="#1a73e8"/>
              <rect x="1695.26" y="319.57" width="57.63" height="57.63" rx="8.89" ry="8.89" fill="url(#f)" filter="url(#g)"/>
              <g filter="url(#i)">
                <path d="M1724.08,370.45c-12.16,0-22.06-9.9-22.06-22.06s9.9-22.06,22.06-22.06,22.06,9.9,22.06,22.06-9.9,22.06-22.06,22.06ZM1724.08,330.4c-9.92,0-17.98,8.07-17.98,17.99s8.07,17.98,17.98,17.98,17.98-8.07,17.98-17.98-8.07-17.99-17.98-17.99Z" fill="#fff"/>
                <polygon points="1722.48 356.77 1714.77 349.99 1718 346.31 1722.03 349.86 1729.7 341.08 1733.39 344.3 1722.48 356.77" fill="#fff"/>
              </g>
            </g>
            <path d="M1734.11,293.93h-20.06c-3.09,0-5.6-2.51-5.6-5.6h31.26c0,3.09-2.51,5.6-5.6,5.6Z" fill="#4b4ba0"/>
            <path d="M1731.32,289.27h-14.48c-.52,0-.93-.42-.93-.93h0c0-.52.42-.93.93-.93h14.48c.51,0,.93.42.93.93h0c0,.52-.42.93-.93.93Z" fill="#fff" opacity=".15"/>
          </g>
        </g>
        <g>
          <g>
            <rect x="1499.05" y="161.08" width="175.15" height="112.93" rx="8.89" ry="8.89" fill="url(#k)" filter="url(#l)"/>
            <rect x="1507.94" y="169.97" width="157.37" height="95.15" fill="#3d3d89"/>
            <g>
              <rect x="1524.72" y="182.68" width="16.37" height="2.21" fill="#ffc700"/>
              <rect x="1546.27" y="182.68" width="33.5" height="2.21" fill="#ffc700"/>
              <rect x="1531.66" y="191.64" width="16.37" height="2.21" fill="#fff"/>
              <rect x="1553.22" y="191.64" width="95.72" height="2.21" fill="#1e9aff"/>
              <rect x="1531.66" y="199.96" width="16.37" height="2.21" fill="#fff"/>
              <rect x="1553.22" y="199.96" width="95.72" height="2.21" fill="#1e9aff"/>
              <rect x="1531.66" y="208.27" width="16.37" height="2.21" fill="#fff"/>
              <rect x="1553.22" y="208.27" width="95.72" height="2.21" fill="#1e9aff"/>
              <rect x="1531.66" y="216.59" width="16.37" height="2.21" fill="#fff"/>
              <rect x="1524.72" y="225.39" width="16.37" height="2.21" fill="#ffc700"/>
              <rect x="1546.27" y="225.39" width="33.5" height="2.21" fill="#ffc700"/>
              <rect x="1553.22" y="234.35" width="61.72" height="2.21" fill="#fff"/>
              <rect x="1553.22" y="242.67" width="61.72" height="2.21" fill="#fff"/>
              <rect x="1542.6" y="242.67" width="5.43" height="2.21" fill="#1e9aff"/>
              <rect x="1531.66" y="250.98" width="16.37" height="2.21" fill="#1e9aff"/>
              <rect x="1553.22" y="250.98" width="61.72" height="2.21" fill="#fff"/>
              <rect x="1619.38" y="234.35" width="30.25" height="2.21" fill="#fff"/>
              <rect x="1619.38" y="242.67" width="30.25" height="2.21" fill="#fff"/>
              <rect x="1619.38" y="250.98" width="30.25" height="2.21" fill="#fff"/>
              <rect x="1553.22" y="216.59" width="95.72" height="2.21" fill="#1e9aff"/>
            </g>
          </g>
          <g>
            <rect x="1410.89" y="205.52" width="68.49" height="68.49" rx="8.89" ry="8.89" fill="url(#n)" filter="url(#o)"/>
            <path d="M1460.92,239.72c0-1.08-.11-2.14-.32-3.16l5.29-3.06-4.96-8.58-5.28,3.05c-1.6-1.43-3.49-2.54-5.57-3.23v-6.08h-9.91v6.08c-.93.31-1.81.69-2.65,1.16-.1.05-.2.11-.3.17-.1.06-.2.11-.3.17-.82.5-1.6,1.07-2.33,1.72l-5.27-3.04-4.96,8.58,5.27,3.04c-.2.95-.31,1.92-.33,2.88,0,.12,0,.23,0,.35,0,.11,0,.22,0,.34.02.96.13,1.92.33,2.88l-5.27,3.04,4.96,8.58,5.27-3.04c1.64,1.46,3.54,2.54,5.58,3.21v6.09h9.91v-6.11c.99-.33,1.96-.77,2.9-1.31.96-.56,1.84-1.2,2.64-1.91l5.31,3.06,4.96-8.58-5.31-3.06c.22-1.05.33-2.13.33-3.24ZM1451.62,246.71s-.09.08-.13.12c-.17.15-.35.3-.53.44-.08.07-.17.13-.26.19-.15.11-.3.21-.45.31-.12.08-.25.15-.37.23-.13.07-.25.14-.38.21-.16.08-.33.16-.49.24-.1.04-.2.09-.29.13-.21.09-.43.17-.65.24-.06.02-.11.04-.17.05-.88.27-1.8.41-2.77.41-5.27,0-9.55-4.27-9.55-9.55,0-1.29.26-2.52.72-3.64.02-.05.04-.1.07-.16.09-.2.18-.39.28-.58.06-.12.13-.24.2-.36.07-.12.14-.23.21-.35.12-.18.23-.36.36-.53.03-.05.07-.09.1-.14.74-.96,1.68-1.8,2.79-2.45,4.57-2.64,10.4-1.07,13.04,3.49.48.83.82,1.71,1.03,2.6.01.06.02.11.04.17.05.23.09.45.12.68.01.11.03.21.04.32.02.18.03.36.04.55,0,.14,0,.29,0,.43,0,.15,0,.29,0,.44,0,.18-.02.36-.04.54-.01.11-.02.21-.04.32-.03.23-.07.45-.12.68-.01.06-.02.11-.04.17-.21.89-.55,1.77-1.03,2.6-.48.83-1.07,1.57-1.74,2.19Z" fill="#fff" filter="url(#q)"/>
          </g>
          <g>
            <rect x="1472.21" y="289.61" width="86.26" height="59.6" rx="8.89" ry="8.89" fill="url(#s)" filter="url(#t)"/>
            <g filter="url(#v)">
              <polygon points="1502.87 305.35 1486.63 319.41 1502.87 333.46 1502.87 325.84 1495.43 319.41 1502.87 312.97 1502.87 305.35" fill="#fff"/>
              <polygon points="1527.82 333.46 1544.05 319.41 1527.82 305.35 1527.82 312.97 1535.26 319.41 1527.82 325.84 1527.82 333.46" fill="#fff"/>
              <polygon points="1513.77 338.04 1506.9 338.04 1516.91 300.77 1523.79 300.77 1513.77 338.04" fill="#fff"/>
            </g>
          </g>
          <g>
            <rect x="1693.99" y="125.74" width="95.15" height="95.15" rx="8.89" ry="8.89" fill="url(#x)" filter="url(#y)"/>
            <g filter="url(#aa)">
              <path d="M1765.14,155.76c-1.96,0-3.82.44-5.48,1.22-2.28-8.14-9.74-14.11-18.61-14.11s-16.09,5.78-18.5,13.72c-1.42-.54-2.95-.83-4.55-.83-7.12,0-12.89,5.77-12.89,12.89h72.92c0-7.12-5.77-12.89-12.89-12.89Z" fill="#fff"/>
              <polygon points="1728.16 190.35 1741.57 203.76 1754.98 190.35 1745.94 190.35 1745.94 174.52 1737.19 174.52 1737.19 190.35 1728.16 190.35" fill="#fff"/>
            </g>
          </g>
          <g>
            <rect x="1410.89" y="121.44" width="68.49" height="68.49" rx="8.89" ry="8.89" fill="url(#ac)" filter="url(#ad)"/>
            <rect x="1418.98" y="129.53" width="52.31" height="52.31" fill="#3d3d89"/>
            <g>
              <rect x="1427.83" y="139.71" width="4.81" height="2.21" fill="#fff"/>
              <rect x="1435.16" y="139.71" width="24.61" height="2.21" fill="#1e9aff"/>
              <rect x="1427.83" y="147.14" width="7.48" height="2.21" fill="#fff"/>
              <rect x="1437.83" y="147.14" width="24.61" height="2.21" fill="#1e9aff"/>
              <rect x="1427.83" y="161.1" width="4.81" height="2.21" fill="#fff"/>
              <rect x="1435.16" y="161.1" width="24.61" height="2.21" fill="#1e9aff"/>
              <rect x="1427.83" y="168.53" width="7.48" height="2.21" fill="#fff"/>
              <rect x="1437.83" y="168.53" width="24.61" height="2.21" fill="#1e9aff"/>
              <rect x="1423.38" y="154.57" width="7.48" height="2.21" fill="#fff"/>
              <rect x="1433.38" y="154.57" width="33.5" height="2.21" fill="#1e9aff"/>
            </g>
          </g>
        </g>
        <g>
          <rect x="1597.85" y="287.74" width="20.06" height="20.06" fill="#a7c8ff" mix-blend-mode="multiply"/>
          <rect x="1626.99" y="287.74" width="20.06" height="20.06" fill="#a7c8ff" mix-blend-mode="multiply"/>
          <rect x="1656.14" y="287.74" width="20.06" height="20.06" fill="#a7c8ff" mix-blend-mode="multiply"/>
          <g>
            <rect x="1685.89" y="233.24" width="30.25" height="2.21" fill="#a7c8ff" mix-blend-mode="multiply"/>
            <rect x="1685.89" y="241.56" width="30.25" height="2.21" fill="#a7c8ff" mix-blend-mode="multiply"/>
            <rect x="1685.89" y="249.88" width="30.25" height="2.21" fill="#a7c8ff" mix-blend-mode="multiply"/>
          </g>
        </g>
      </g>
      <g>
        <circle cx="954.19" cy="304.2" r="201.28" fill="#f2e6dc"/>
        <g>
          <g>
            <g>
              <rect x="761" y="175.81" width="302.14" height="229.31" transform="translate(1824.14 580.94) rotate(180)" fill="#e6d0be"/>
              <rect x="816.1" y="139.68" width="191.94" height="283.18" transform="translate(1193.34 -630.8) rotate(90)" fill="#f2e6dc"/>
              <path d="M906.38,390.05c0,3.15,2.55,5.69,5.69,5.69s5.69-2.55,5.69-5.69-2.55-5.69-5.69-5.69-5.69,2.55-5.69,5.69Z" fill="#f7f1eb"/>
            </g>
            <path d="M761,411.34c0,13.12,10.63,23.76,23.73,23.76h316.7c13.11,0,23.73-10.64,23.73-23.76h-364.17Z" fill="#e6d0be"/>
            <path d="M840.53,432.86c-10.5,0-19.03-8.55-19.03-19.06,0-.12.1-.22.22-.22s.22.1.22.22c0,10.27,8.34,18.62,18.59,18.62.12,0,.22.1.22.22s-.1.22-.22.22Z" fill="#f2e6dc"/>
            <path d="M996.87,427.27h-35.5c-5.68,0-10.31-4.63-10.31-10.32,0-.12.1-.22.22-.22h55.67c.12,0,.22.1.22.22,0,5.69-4.62,10.32-10.3,10.32ZM951.5,417.17c.12,5.35,4.5,9.66,9.86,9.66h35.5c5.37,0,9.75-4.31,9.86-9.66h-55.23Z" fill="#f2e6dc"/>
          </g>
          <g>
            <rect x="787.28" y="117.34" width="182.23" height="245.41" transform="translate(1756.8 480.09) rotate(180)" fill="#fff"/>
            <path d="M961.98,356.89h-182.23c-.12,0-.22-.1-.22-.22V111.26c0-.12.1-.22.22-.22h182.23c.12,0,.22.1.22.22v245.41c0,.12-.1.22-.22.22ZM779.97,356.45h181.79V111.48h-181.79v244.97Z" fill="#d3bba3"/>
            <path d="M950.65,177.5h-145.42c-.12,0-.22-.1-.22-.22v-38.17c0-.12.1-.22.22-.22h145.42c.12,0,.22.1.22.22v38.17c0,.12-.1.22-.22.22ZM805.46,177.06h144.98v-37.73h-144.98v37.73Z" fill="#d3bba3"/>
            <g>
              <path d="M851.95,152.71h-5.48v15.12h-3.03v-15.12h-5.43v-2.46h13.94v2.46Z" fill="#d3bba3"/>
              <path d="M864.52,159.98h-7.22v5.41h8.44v2.44h-11.49v-17.59h11.4v2.46h-8.35v4.86h7.22v2.42Z" fill="#d3bba3"/>
              <path d="M874.69,161.07h-3.4v6.76h-3.05v-17.59h6.18c2.03,0,3.59.46,4.69,1.37,1.1.91,1.65,2.23,1.65,3.95,0,1.18-.28,2.16-.85,2.96-.57.79-1.36,1.4-2.37,1.83l3.95,7.32v.16h-3.27l-3.52-6.76ZM871.28,158.61h3.14c1.03,0,1.83-.26,2.41-.78.58-.52.87-1.23.87-2.13s-.27-1.67-.8-2.19c-.54-.52-1.33-.78-2.4-.8h-3.22v5.89Z" fill="#d3bba3"/>
              <path d="M887.61,150.25l5.07,13.48,5.06-13.48h3.95v17.59h-3.04v-5.8l.3-7.75-5.19,13.55h-2.18l-5.18-13.54.3,7.74v5.8h-3.04v-17.59h3.96Z" fill="#d3bba3"/>
              <path d="M914.48,163.3c0-.77-.27-1.37-.81-1.79-.54-.42-1.52-.84-2.94-1.27-1.42-.43-2.54-.9-3.38-1.43-1.6-1.01-2.4-2.32-2.4-3.94,0-1.42.58-2.58,1.73-3.5,1.15-.92,2.65-1.38,4.5-1.38,1.22,0,2.31.23,3.27.68.96.45,1.71,1.09,2.26,1.93.55.83.82,1.76.82,2.77h-3.04c0-.92-.29-1.64-.86-2.16-.58-.52-1.4-.78-2.47-.78-1,0-1.77.21-2.32.64-.55.43-.83,1.02-.83,1.79,0,.64.3,1.18.89,1.61.6.43,1.58.85,2.94,1.26,1.37.41,2.47.87,3.29,1.39.83.52,1.44,1.12,1.82,1.79.39.67.58,1.46.58,2.36,0,1.47-.56,2.63-1.68,3.5-1.12.87-2.64,1.3-4.57,1.3-1.27,0-2.44-.24-3.51-.71-1.07-.47-1.89-1.12-2.49-1.95-.59-.83-.89-1.8-.89-2.9h3.05c0,1,.33,1.77.99,2.32.66.55,1.61.82,2.84.82,1.06,0,1.86-.22,2.4-.65.54-.43.8-1,.8-1.71Z" fill="#d3bba3"/>
            </g>
            <path d="M909.28,337.06c-1.63,0-3.14-.62-4.12-1.73-.36-.4-.64-.86-.85-1.37-.24.16-.49.3-.75.42-2.84,1.33-6.52.5-8.57-1.92-.25-.3-.47-.61-.67-.94-.15.13-.29.26-.45.39-1.77,1.43-4.6,2.36-6.92,1.2-2.23-1.12-3.02-3.42-3.22-5.56-2.08-.14-4.26-1.47-4.58-3.68-.02-.12.07-.23.19-.25.12-.02.23.07.25.19.27,1.9,2.22,3.14,4.11,3.29-.09-1.58.11-3.02.24-3.76,1.33-7.37,5-14.32,10.34-19.57,2.18-2.14,5.36-3.86,7.77-2.26,2.65,1.75,1.91,5.73.47,8.61-2.84,5.67-6.99,10.72-12.01,14.61-1.7,1.32-3.75,2.68-6.12,2.81-.07,0-.15,0-.22,0,.2,2.01.93,4.14,2.97,5.16,2.15,1.07,4.79.2,6.45-1.15.17-.14.34-.29.51-.44-1.17-2.3-1.11-5.22.27-7.46.59-.96,1.67-1.69,2.63-1.78.59-.05,1.09.14,1.47.55.71.79.61,2.02-.31,3.67-.95,1.71-2.01,3.61-3.51,5.1.2.34.42.67.68.97,1.92,2.27,5.38,3.05,8.04,1.8.27-.13.54-.28.78-.44-.31-.97-.36-2.05-.12-3.14.4-1.84,1.56-3.33,3.09-4.01.06-.03.13-.02.19,0,.06.03.1.08.12.15.6,2.63-.58,5.54-2.74,7.16.2.49.47.94.81,1.33,1.02,1.15,2.66,1.73,4.39,1.55,1.73-.17,3.23-1.07,4-2.39.06-.1.2-.14.3-.08.11.06.14.2.08.3-.84,1.45-2.47,2.42-4.34,2.61-.22.02-.43.03-.64.03ZM907.04,326.92c-1.28.66-2.24,1.98-2.59,3.58-.21.96-.18,1.92.07,2.77,1.89-1.47,2.94-4.01,2.52-6.35ZM897.18,322.32c-.05,0-.1,0-.15,0-.81.07-1.78.74-2.29,1.57-1.28,2.07-1.36,4.76-.31,6.9,1.4-1.43,2.42-3.26,3.34-4.91.82-1.47.94-2.53.37-3.16-.25-.27-.57-.41-.95-.41ZM899.92,301.33c-1.83,0-3.83,1.28-5.34,2.76-5.28,5.19-8.91,12.05-10.22,19.33-.13.72-.33,2.14-.24,3.69.08,0,.15,0,.23,0,2.25-.13,4.23-1.45,5.87-2.72,4.96-3.84,9.07-8.84,11.89-14.46,1.36-2.71,2.09-6.45-.32-8.05-.58-.38-1.22-.55-1.88-.55Z" fill="#d87355"/>
            <g>
              <g>
                <rect x="843.25" y="269.54" width="55.43" height="3.4" fill="#f2e6dc"/>
                <rect x="851.85" y="278.04" width="68.15" height="3.4" fill="#f2e6dc"/>
                <rect x="843.25" y="286.55" width="65.57" height="3.4" fill="#f2e6dc"/>
              </g>
              <g>
                <rect x="857.92" y="232.09" width="68.57" height="3.4" fill="#f2e6dc"/>
                <rect x="841.4" y="240.6" width="65.57" height="3.4" fill="#f2e6dc"/>
                <rect x="841.4" y="249.1" width="76.99" height="3.4" fill="#f2e6dc"/>
              </g>
              <g>
                <rect x="858.16" y="196.92" width="60.22" height="3.4" fill="#f2e6dc"/>
                <rect x="841.64" y="205.42" width="65.32" height="3.4" fill="#f2e6dc"/>
                <rect x="841.64" y="213.92" width="84.85" height="3.4" fill="#f2e6dc"/>
              </g>
            </g>
            <g>
              <g>
                <path d="M832.75,293.72h-27.52c-.12,0-.22-.1-.22-.22v-27.51c0-.12.1-.22.22-.22h27.52c.12,0,.22.1.22.22v27.51c0,.12-.1.22-.22.22ZM805.46,293.28h27.08v-27.07h-27.08v27.07Z" fill="#f2e6dc"/>
                <polygon points="817.52 289.34 808.9 281.51 811.57 278.23 817.03 282.59 825.6 270.15 829.09 272.55 817.52 289.34" fill="#d87355"/>
              </g>
              <g>
                <path d="M832.75,256.27h-27.52c-.12,0-.22-.1-.22-.22v-27.51c0-.12.1-.22.22-.22h27.52c.12,0,.22.1.22.22v27.51c0,.12-.1.22-.22.22ZM805.46,255.83h27.08v-27.07h-27.08v27.07Z" fill="#f2e6dc"/>
                <polygon points="817.52 251.89 808.9 244.06 811.57 240.78 817.03 245.15 825.6 232.71 829.09 235.11 817.52 251.89" fill="#d87355"/>
              </g>
              <g>
                <path d="M832.75,221.1h-27.52c-.12,0-.22-.1-.22-.22v-27.51c0-.12.1-.22.22-.22h27.52c.12,0,.22.1.22.22v27.51c0,.12-.1.22-.22.22ZM805.46,220.66h27.08v-27.07h-27.08v27.07Z" fill="#f2e6dc"/>
                <polygon points="817.52 216.72 808.9 208.88 811.57 205.6 817.03 209.97 825.6 197.53 829.09 199.93 817.52 216.72" fill="#d87355"/>
              </g>
            </g>
          </g>
        </g>
        <g>
          <path d="M1044.81,465.49l-3.12,39.99h-61.76c2.44-24.3,5.52-79.7,13.46-116.53,24.58-4.51,58.17-9.01,82.75-13.52,10.1,15.62,35.05,93,44.89,130.05h-66.01l-10.22-39.99Z" fill="#363e44"/>
          <g>
            <polygon points="1033.68 425.05 1028.11 457.34 983.85 440.88 986.78 424.76 1033.68 425.05" fill="#fff"/>
            <polygon points="1033.09 426.37 1038.66 456.85 1100.91 433.2 1097.98 417.08 1033.09 426.37" fill="#fff"/>
            <g>
              <path d="M934.67,371.76c-14.81-1.43-48.32-4.71-51.72-5.07-6.37-.68-37.33-3.64-37.82.85-.31,2.87,15.13,4.64,17.8,5.16-3.26.2-20.05-1.41-20.59,1.17-.59,2.8,20.61,6.74,20.76,6.82-2.33-.14-19.36-1.51-19.48.98-.13,2.89,17.43,5.88,20.32,6.2-.26.32-12.63-1.4-13.14,1.4-.45,2.49,13.58,5.03,15.46,5.66,4.97,1.51,14.33,3,24.87,5.22,24.76,5.23,36.52,6.57,48.94,6.99,8.94.3,16.87-9.49,21.62-19.11-7.47-7.43-13.81-10.06-27.01-16.28Z" fill="#84524d"/>
              <path d="M939.28,373.32s-.01,0-.02,0c-1.23-.12-4.15-.58-7.25-1.07-3.17-.5-6.45-1.02-7.85-1.16-.12-.01-.21-.12-.2-.24s.12-.21.24-.2c1.42.14,4.7.66,7.88,1.16,3.09.49,6.01.95,7.22,1.07.12.01.21.12.2.24-.01.11-.11.2-.22.2Z" fill="#363e44"/>
              <path d="M876.94,378.81s0,0-.01,0c-10.18-.51-15.42-1.62-15.57-3.32-.09-.98,1.34-1.99,4.51-3.17,2.04-.77,4.75-1.58,8.05-2.42.12-.03.24.04.27.16.03.12-.04.24-.16.27-11.2,2.85-12.28,4.54-12.23,5.13.12,1.36,5.79,2.45,15.16,2.92.12,0,.21.11.21.23,0,.12-.1.21-.22.21Z" fill="#363e44"/>
            </g>
            <path d="M1035.29,309.94s-21.54-8.75-26.01-6.59c-28.99,14.05-65.64,55.24-72.62,61.91,1.11,1.39-43.38-1.47-43.38-1.47l-1.47,41.03s38.29,9.06,63.6,4.4c18.43-3.4,26.67-21.69,28.14-26.09-.7,22.41.59,36.93,1.47,49.24,25.5,7.91,83.54,2.64,113.43-8.79-.59-9.62-3.16-45.85-3.6-59.33.89.34,9.46,3.93,9.46,3.93l-29.31,27.26,30.78,31.07s52.39-46.92,51.29-68.59c-1.17-23.15-53.65-52.23-100.99-58.76-12-1.66-20.8,10.76-20.8,10.76Z" fill="#8b865c"/>
            <path d="M1009.29,303.35c4.47-2.16,8.75-3.69,12.72-4.34,10.42-1.7,22.09-1.5,34.09.16.05.8.05,1.61-.01,2.43-.84,11.38-12.08,19.83-25.1,18.87-10.98-.81-19.72-8.05-21.69-17.12Z" fill="#fff"/>
            <g>
              <polygon points="940.24 341.84 971.15 351.82 963.48 364.54 940.24 341.84" fill="#fff"/>
              <polygon points="949.9 351.32 940.15 341.81 953.11 345.99 949.9 351.32" fill="#d87355"/>
              <path d="M1121.47,451.19c2.12-3.51.99-8.08-2.52-10.2l-147.8-89.18-7.67,12.72,147.8,89.18c3.51,2.12,8.08.99,10.2-2.52Z" fill="#efbc73"/>
              <path d="M1097.83,434.68s-.08-.01-.11-.03l-129.48-78.13c-.1-.06-.14-.2-.07-.3.06-.1.2-.14.3-.07l129.48,78.13c.1.06.14.2.07.3-.04.07-.11.11-.19.11Z" fill="#363e44"/>
              <path d="M1094.54,440.14s-.08-.01-.11-.03l-129.48-78.13c-.1-.06-.14-.2-.07-.3.06-.1.2-.14.3-.07l129.48,78.13c.1.06.14.2.07.3-.04.07-.11.11-.19.11Z" fill="#363e44"/>
              <path d="M1092.9,442.85s-.08-.01-.11-.03c-.1-.06-.14-.2-.07-.3l7.67-12.72c.06-.1.2-.14.3-.07.1.06.14.2.07.3l-7.67,12.72c-.04.07-.11.11-.19.11Z" fill="#363e44"/>
              <path d="M1100.6,447.5s-.08-.01-.11-.03c-.1-.06-.14-.2-.07-.3l7.67-12.72c.06-.1.2-.14.3-.07.1.06.14.2.07.3l-7.67,12.72c-.04.07-.11.11-.19.11Z" fill="#363e44"/>
            </g>
            <g>
              <path d="M1078.47,393.33s-13.68,10.01-14.93,10.98c-5.76,4.51-18.31,13.79-16.09,18.3.74,1.5,2.47,2.44,4.47,2.56-.61,2.05.04,4.25,1.63,5.55,2.09,1.7,4.67.92,4.86.86-.68,1.51-.56,3.24.35,4.44,1.27,1.66,3.91,2.12,6.05.78.04.47.25,2.13,1.62,3.34,1.52,1.34,3.85,1.58,5.89.6,5.12-4.01,29.94-19.5,29.94-19.5l-23.79-27.92Z" fill="#84524d"/>
              <g>
                <path d="M1057.01,418.28c-.06,0-.12-.02-.16-.07l-2.15-2.4c-.08-.09-.07-.23.02-.31.09-.08.23-.07.31.02l2.15,2.4c.08.09.07.23-.02.31-.04.04-.09.06-.15.06Z" fill="#363e44"/>
                <path d="M1062.45,424.38c-.06,0-.12-.02-.16-.07l-2.15-2.4c-.08-.09-.07-.23.02-.31.09-.08.23-.07.31.02l2.15,2.4c.08.09.07.23-.02.31-.04.04-.09.06-.15.06Z" fill="#363e44"/>
                <path d="M1067.92,430.65c-.06,0-.12-.02-.16-.07l-2.15-2.4c-.08-.09-.07-.23.02-.31.09-.08.23-.07.31.02l2.15,2.4c.08.09.07.23-.02.31-.04.04-.09.06-.15.06Z" fill="#363e44"/>
                <path d="M1073,436.23c-.06,0-.12-.02-.16-.07l-2.15-2.4c-.08-.09-.07-.23.02-.31.09-.08.23-.07.31.02l2.15,2.4c.08.09.07.23-.02.31-.04.04-.09.06-.15.06Z" fill="#363e44"/>
              </g>
            </g>
            <polygon points="1027.13 316.99 1034.56 311.91 1041.59 325.79 1051.56 300.97 1027.13 316.99" fill="#fff"/>
            <path d="M1041.59,326.01c-.08,0-.16-.05-.2-.12l-6.92-13.65-7.22,4.94c-.1.07-.24.04-.31-.06-.07-.1-.04-.24.06-.31l7.43-5.08c.05-.04.12-.05.18-.03.06.02.11.06.14.11l6.82,13.44,9.78-24.37c.05-.11.17-.17.29-.12.11.05.17.17.12.29l-9.97,24.82c-.03.08-.11.13-.19.14,0,0,0,0,0,0Z" fill="#363e44"/>
            <polygon points="1020.34 311.77 1010.81 321.88 1012.57 303.41 1020.34 311.77" fill="#fff"/>
            <path d="M1010.81,322.1s-.06,0-.09-.02c-.09-.04-.14-.13-.13-.22l1.76-18.47c.01-.12.12-.21.24-.2.12.01.21.12.2.24l-1.7,17.83,9.09-9.65c.08-.09.22-.09.31,0,.09.08.09.22,0,.31l-9.53,10.11s-.1.07-.16.07Z" fill="#363e44"/>
          </g>
          <g>
            <polygon points="1046.18 298.8 1022.87 316.79 1022.87 256.27 1046.18 256.27 1046.18 298.8" fill="#84524d"/>
            <g>
              <path d="M1008.92,284.06c3.64,6.02,22.91,2.34,22.91,2.34l16.24-14.08c3.95-9.07-.21-19.62-9.29-23.57-9.08-3.95-19.63.21-23.58,9.28,0,0-9.98,19.89-6.27,26.02Z" fill="#84524d"/>
              <path d="M1015.21,263.18s-6.71,2.82-7.02,4.2c-.37,1.65,4.36,4.81,4.36,4.81,0,0,2.53-9.05,2.66-9.01Z" fill="#84524d"/>
              <g>
                <path d="M1030.34,268.92s-2.11-2.68-5.42-4.12c-.71-.31-1.83,5.92-1.02,5.89,3.56-.12,6.45-1.77,6.45-1.77Z" fill="#fff"/>
                <g clip-path="url(#af)">
                  <path d="M1024.84,264.6c-1.24-3.15-4.8-4.69-7.94-3.45-3.15,1.24-4.69,4.79-3.45,7.94,1.24,3.15,4.8,4.69,7.94,3.45,3.15-1.24,4.69-4.79,3.45-7.94Z" fill="#363e44"/>
                </g>
              </g>
              <path d="M1016.38,277.23c-.9,0-1.77-.45-2.28-1.22-.07-.1-.04-.24.06-.31.1-.07.24-.04.31.06.5.75,1.4,1.14,2.29.99.85-.14,1.57-.77,1.82-1.61.04-.12.16-.18.27-.15.12.04.18.16.15.27-.3.99-1.15,1.75-2.17,1.92-.15.02-.3.04-.45.04Z" fill="#363e44"/>
            </g>
            <path d="M1047.81,281.12c5.18-2.48,6.77-14.69,3.59-22.51-4.1-10.08-16-16.03-25.62-15.22-2.36.2-7.77,1.35-9.56,4.72-1.4,2.62,1.27,8.07,5.77,9.64,6.34,2.2,15.23.74,11.94,7.96-9.95,21.88,8.18,18.14,13.87,15.41Z" fill="#363e44"/>
            <g>
              <path d="M1056.03,217.08c24.42,1.96,21.93-28.31,21.93-28.31l25.13,33.03c-2.18,13.44-13.91,18.32-13.91,18.32,10.13-.26,15.61-7.48,18.23-12.64l7,9.2s-5.12,23.57-29.22,15.01c-24.09-8.56-38.02,12.16-38.02,12.16l-4.35-10.55s-11.21-38.17,13.21-36.21Z" fill="#363e44"/>
              <g>
                <path d="M1049.68,258.93c-.07,0-.13-.03-.18-.09-1.44-1.88-2.92-3.83-3.96-6.01-.59-1.24-.89-2.28-.94-3.26-.06-1.27.33-2.45,1.07-3.24.86-.92,2.21-1.27,3.28-.83.67.27,1.19.83,1.47,1.59.31.84.26,1.8-.13,2.55-.62,1.19-1.99,1.95-3.32,1.83-.12-.01-.21-.12-.2-.24.01-.12.12-.21.24-.2,1.16.1,2.36-.56,2.9-1.6.33-.64.37-1.46.1-2.19-.23-.64-.67-1.11-1.22-1.33-.9-.37-2.05-.07-2.79.73-.66.71-1.01,1.77-.95,2.92.04.92.33,1.91.89,3.09,1.02,2.15,2.49,4.07,3.91,5.93.07.1.06.23-.04.31-.04.03-.09.05-.13.05Z" fill="#fff"/>
                <path d="M1051.23,257.73c-.07,0-.14-.03-.18-.09l-1.94-2.73c-.07-.1-.05-.24.05-.31.1-.07.24-.05.31.05l1.94,2.73c.07.1.05.24-.05.31-.04.03-.08.04-.13.04Z" fill="#fff"/>
              </g>
              <path d="M1048.4,261.63c-.06,0-.11-.02-.16-.07-.09-.09-.08-.23,0-.31,5.62-5.56,13.69-8.72,21.59-8.45,4.37.15,8.68,1.28,12.85,2.38.95.25,1.94.51,2.91.75,4.82,1.21,10.47,2.28,15.76,1.09,4.7-1.06,9.95-4.58,11.06-10.04.02-.12.14-.2.26-.17.12.02.2.14.17.26-1.15,5.65-6.55,9.29-11.4,10.38-5.38,1.22-11.09.13-15.96-1.09-.97-.24-1.96-.5-2.91-.75-4.14-1.09-8.43-2.22-12.75-2.36-7.79-.26-15.73,2.85-21.27,8.32-.04.04-.1.06-.15.06Z" fill="#363e44"/>
              <path d="M1063.11,266.36c-.72,0-1.44-.18-2.07-.55-1.03-.61-1.9-1.9-1.55-3.2.18-.67.76-1.23,1.49-1.44.62-.18,1.22-.05,1.64.34.07.07.09.18.04.27l-.41.68c-.06.1-.2.14-.3.08-.1-.06-.14-.2-.08-.3l.31-.52c-.29-.2-.67-.24-1.08-.13-.57.16-1.05.62-1.19,1.13-.29,1.09.46,2.18,1.35,2.71,1.17.69,2.72.65,3.86-.1,1.14-.75,1.79-2.15,1.62-3.5-.15-1.22-.96-2.45-2.27-3.47-2.14-1.65-5-2.37-7.66-1.92-2.66.44-5.14,2.05-6.62,4.3-.07.1-.2.13-.3.06-.1-.07-.13-.2-.06-.3,1.55-2.35,4.14-4.03,6.92-4.49,2.78-.46,5.77.29,8,2.01,1.41,1.09,2.27,2.42,2.44,3.76.19,1.51-.54,3.09-1.81,3.92-.67.44-1.46.66-2.26.66Z" fill="#363e44"/>
            </g>
          </g>
        </g>
        <g>
          <g>
            <path d="M845.35,440.84c-1.47.49-3.06-.31-3.55-1.78s.31-3.06,1.78-3.55l12.74-4.22c1.84-6.09,1.04-13.8-.55-20.77l-5.39,1.79c-1.47.49-3.06-.31-3.55-1.78-.49-1.47.31-3.06,1.78-3.55l5.73-1.9c-2.15-7.36-4.67-12.86-4.67-12.86,0,0-3.32.97-7.95,2.8l1.11,2.7c.59,1.43-.09,3.07-1.52,3.67-1.43.59-3.07-.09-3.67-1.52l-1.09-2.64c-3.69,1.69-7.69,3.8-11.31,6.28l4.1,9.93c.59,1.43-.09,3.07-1.52,3.67-1.43.59-3.07-.09-3.67-1.52l-3.51-8.5c-2.63,2.35-4.79,4.95-6.1,7.78-5.32,11.61-4.31,23.46,2.26,26.48,3.35,1.54,7.51.47,11.48-2.48.35,4.94,2.26,8.78,5.61,10.32,5.62,2.58,13.48-2.15,18.97-10.83l-7.54,2.5ZM820.07,432.68c-1.52-.7-2.19-2.5-1.5-4.03s2.5-2.19,4.03-1.5c1.52.7,2.19,2.5,1.5,4.03-.7,1.52-2.5,2.19-4.03,1.5ZM845.89,421.83c.7-1.52,2.5-2.19,4.03-1.5,1.52.7,2.19,2.5,1.5,4.03-.7,1.52-2.5,2.19-4.03,1.5-1.52-.7-2.19-2.5-1.5-4.03Z" fill="#8b865c"/>
            <path d="M821.82,466.73s-.02,0-.03,0c-.12-.01-.21-.12-.19-.24,2.67-21.83,11.48-45.85,26.2-71.4.06-.11.2-.14.3-.08.11.06.14.2.08.3-14.69,25.49-23.48,49.46-26.14,71.23-.01.11-.11.19-.22.19Z" fill="#363e44"/>
          </g>
          <g>
            <path d="M771.29,423.31c6.35,8.08,14.65,11.97,19.97,8.84,3.18-1.87,4.68-5.89,4.53-10.84,4.25,2.53,8.49,3.17,11.68,1.3,6.23-3.67,6.03-15.56-.45-26.57-1.58-2.69-4-5.06-6.86-7.12l-2.62,8.82c-.44,1.49-2,2.33-3.49,1.89s-2.33-2-1.89-3.49l3.06-10.3c-3.86-2.1-8.05-3.78-11.89-5.09l-.81,2.73c-.44,1.49-2,2.33-3.49,1.89-1.49-.44-2.33-2-1.89-3.49l.83-2.8c-4.79-1.36-8.19-1.98-8.19-1.98,0,0-1.94,5.73-3.33,13.27l5.9,1.3c1.51.34,2.47,1.83,2.13,3.35-.34,1.51-1.83,2.47-3.35,2.13l-5.54-1.23c-.87,7.09-.88,14.85,1.57,20.71l13.1,2.9c1.51.34,2.47,1.83,2.13,3.35-.34,1.51-1.83,2.47-3.35,2.13l-7.75-1.72ZM801.73,411.99c-.85-1.45-.37-3.31,1.08-4.16,1.45-.85,3.31-.37,4.16,1.08.85,1.45.37,3.31-1.08,4.16-1.45.85-3.31.37-4.16-1.08ZM775.48,410.33c-1.45.85-3.31.37-4.16-1.08-.85-1.45-.37-3.31,1.08-4.16,1.45-.85,3.31-.37,4.16,1.08.85,1.45.37,3.31-1.08,4.16Z" fill="#8b865c"/>
            <path d="M811,480.39c-.12,0-.22-.09-.22-.21-1.74-46.94-35.37-94.85-39.2-100.15-.07-.1-.05-.24.05-.31.1-.07.24-.05.31.05,4.01,5.56,14.34,20.72,23.72,41.47,9.67,21.41,14.91,41.24,15.57,58.93,0,.12-.09.22-.21.23,0,0,0,0,0,0Z" fill="#363e44"/>
          </g>
          <polygon points="827.08 503.82 796.42 503.82 792.92 463.64 830.58 463.64 827.08 503.82" fill="#d87355"/>
        </g>
        <g>
          <g>
            <path d="M1010.48,218.59l-1.42-.93c.33-.78.59-1.57.78-2.37l1.7.1.32-5.75-1.7-.1c-.11-.83-.28-1.65-.51-2.45l1.52-.77-2.6-5.14-1.52.77c-.5-.66-1.06-1.28-1.67-1.86l.93-1.42-4.82-3.16-.93,1.42c-.78-.33-1.57-.59-2.37-.78l.1-1.7-5.75-.32-.1,1.7c-.83.11-1.65.28-2.45.51l-.77-1.52-5.14,2.6.77,1.52c-.66.5-1.28,1.06-1.86,1.67l-1.42-.93-3.16,4.82,1.42.93c-.33.78-.59,1.57-.78,2.37l-1.7-.1-.32,5.75,1.7.1c.11.83.28,1.65.51,2.45l-1.52.77,2.6,5.14,1.52-.77c.5.66,1.06,1.28,1.67,1.86l-.93,1.42,4.82,3.16.93-1.42c.78.33,1.57.59,2.37.78l-.1,1.7,5.75.32.1-1.7c.83-.11,1.65-.28,2.45-.51l.77,1.52,5.14-2.6-.77-1.52c.66-.5,1.28-1.06,1.86-1.67l1.42.93,3.16-4.82ZM1002.64,217.29c-3.01,4.29-8.92,5.53-13.4,2.8-4.94-3.02-6.31-9.57-2.99-14.31,3.01-4.29,8.92-5.53,13.4-2.8,4.94,3.02,6.31,9.57,2.99,14.31Z" fill="#e6d0be"/>
            <path d="M994.45,224.36c-2.43,0-4.88-.69-7.03-2.1-2.87-1.88-4.83-4.76-5.53-8.11-.7-3.35-.05-6.78,1.82-9.64,3.45-5.27,10.35-7.26,16.07-4.64.11.05.16.18.11.29-.05.11-.18.16-.29.11-5.51-2.53-12.18-.61-15.51,4.48-3.74,5.71-2.13,13.4,3.58,17.14,4.72,3.09,10.93,2.6,15.1-1.18.09-.08.23-.08.31.02.08.09.07.23-.02.31-2.42,2.2-5.51,3.32-8.61,3.32Z" fill="#f2e6dc"/>
          </g>
          <g>
            <path d="M1061.72,149.64l-2.64-1.73c.61-1.44,1.09-2.91,1.45-4.4l3.15.18.6-10.66-3.16-.18c-.2-1.53-.51-3.05-.95-4.53l2.82-1.42-4.81-9.53-2.81,1.42c-.93-1.22-1.96-2.38-3.09-3.45l1.73-2.64-8.93-5.85-1.73,2.64c-1.44-.61-2.91-1.09-4.4-1.45l.18-3.15-10.66-.6-.18,3.16c-1.53.2-3.05.51-4.53.95l-1.42-2.82-9.53,4.81,1.42,2.81c-1.22.93-2.38,1.96-3.45,3.09l-2.64-1.73-5.85,8.93,2.64,1.73c-.61,1.44-1.09,2.91-1.45,4.4l-3.15-.18-.6,10.66,3.16.18c.2,1.53.51,3.05.95,4.53l-2.82,1.42,4.81,9.53,2.81-1.42c.93,1.22,1.96,2.38,3.09,3.45l-1.73,2.64,8.93,5.85,1.73-2.64c1.44.61,2.91,1.09,4.4,1.45l-.18,3.15,10.66.6.18-3.16c1.53-.2,3.05-.51,4.53-.95l1.42,2.82,9.53-4.81-1.42-2.81c1.22-.93,2.38-1.96,3.45-3.09l2.64,1.73,5.85-8.93ZM1046.86,147.01c-5.47,7.8-16.2,10.04-24.33,5.08-8.98-5.48-11.46-17.36-5.42-25.97,5.47-7.8,16.2-10.04,24.33-5.08,8.98,5.48,11.46,17.37,5.42,25.97Z" fill="#e6d0be"/>
            <path d="M1032,160.15c-4.48,0-8.97-1.27-12.92-3.86-10.88-7.12-13.93-21.76-6.81-32.64,3.11-4.75,7.83-8.22,13.29-9.77,5.4-1.53,11.18-1.09,16.25,1.24.11.05.16.18.11.29-.05.11-.18.16-.29.11-10.31-4.73-22.77-1.14-28.99,8.37-6.99,10.67-3.99,25.04,6.68,32.03,8.82,5.77,20.42,4.86,28.22-2.21.09-.08.23-.07.31.02.08.09.07.23-.02.31-4.45,4.04-10.13,6.11-15.83,6.11Z" fill="#f2e6dc"/>
          </g>
          <g>
            <path d="M1033.14,145.32c-.06,0-.12-.02-.16-.07-.26-.29-.62-.45-1.01-.45s-.72.15-.98.42c-.08.09-.22.09-.31,0-.09-.08-.09-.22,0-.31.34-.35.8-.55,1.29-.55s.99.22,1.33.6c.08.09.07.23-.02.31-.04.04-.09.06-.15.06Z" fill="#363e44"/>
            <path d="M1035.99,142.47c-.06,0-.11-.02-.16-.07-1.02-1.05-2.4-1.63-3.86-1.63s-2.8.57-3.82,1.59c-.09.09-.23.09-.31,0-.09-.09-.09-.22,0-.31,1.1-1.11,2.57-1.72,4.14-1.72s3.07.63,4.18,1.77c.08.09.08.23,0,.31-.04.04-.1.06-.15.06Z" fill="#363e44"/>
            <path d="M1039.11,139.35c-.06,0-.11-.02-.16-.07-1.86-1.89-4.34-2.93-6.98-2.93s-5.09,1.02-6.94,2.89c-.09.09-.23.09-.31,0-.09-.09-.09-.23,0-.31,1.94-1.94,4.51-3.02,7.26-3.02s5.35,1.09,7.3,3.06c.09.09.08.23,0,.31-.04.04-.1.06-.15.06Z" fill="#363e44"/>
            <path d="M1042.42,136.04c-.06,0-.11-.02-.16-.07-2.74-2.77-6.4-4.3-10.3-4.3s-7.52,1.51-10.26,4.26c-.09.09-.22.09-.31,0-.09-.09-.09-.23,0-.31,2.82-2.83,6.58-4.39,10.57-4.39s7.78,1.57,10.61,4.43c.09.09.08.23,0,.31-.04.04-.1.06-.15.06Z" fill="#363e44"/>
            <path d="M1045.65,132.81c-.06,0-.11-.02-.16-.07-3.61-3.63-8.41-5.64-13.52-5.64s-9.89,1.99-13.49,5.6c-.09.09-.23.09-.31,0-.09-.09-.09-.23,0-.31,3.68-3.69,8.58-5.73,13.8-5.73s10.15,2.05,13.84,5.77c.09.09.09.23,0,.31-.04.04-.1.06-.15.06Z" fill="#363e44"/>
          </g>
          <g>
            <path d="M1139.62,286.75l-1.77-1.16c.41-.97.73-1.96.97-2.96l2.12.12.4-7.17-2.12-.12c-.13-1.03-.34-2.05-.64-3.05l1.9-.96-3.23-6.41-1.89.96c-.62-.82-1.32-1.6-2.08-2.32l1.16-1.77-6-3.93-1.16,1.77c-.97-.41-1.96-.73-2.96-.97l.12-2.12-7.17-.4-.12,2.12c-1.03.13-2.05.34-3.05.64l-.96-1.9-6.41,3.23.96,1.89c-.82.62-1.6,1.32-2.32,2.08l-1.77-1.16-3.93,6,1.77,1.16c-.41.97-.73,1.96-.97,2.96l-2.12-.12-.4,7.17,2.12.12c.13,1.03.34,2.05.64,3.05l-1.9.96,3.23,6.41,1.89-.96c.62.82,1.32,1.6,2.08,2.32l-1.16,1.77,6,3.93,1.16-1.77c.97.41,1.96.73,2.96.97l-.12,2.12,7.17.4.12-2.12c1.03-.13,2.05-.34,3.05-.64l.96,1.9,6.41-3.23-.96-1.89c.82-.62,1.6-1.32,2.32-2.08l1.77,1.16,3.93-6ZM1129.85,285.13c-3.75,5.35-11.12,6.89-16.7,3.48-6.16-3.76-7.86-11.92-3.72-17.83,3.75-5.35,11.12-6.89,16.7-3.48,6.16,3.76,7.86,11.92,3.72,17.83Z" fill="#e6d0be"/>
            <path d="M1119.65,293.88c-3.02,0-6.06-.86-8.72-2.6-7.34-4.81-9.41-14.69-4.6-22.04,2.1-3.21,5.29-5.55,8.97-6.59,3.65-1.03,7.55-.74,10.97.84.11.05.16.18.11.29-.05.11-.18.16-.29.11-6.89-3.17-15.23-.76-19.39,5.6-4.67,7.14-2.67,16.75,4.47,21.43,5.9,3.86,13.66,3.25,18.88-1.48.09-.08.23-.08.31.02.08.09.07.23-.02.31-3.01,2.73-6.84,4.13-10.69,4.13Z" fill="#f2e6dc"/>
          </g>
        </g>
      </g>
      <rect x="5" y="5" width="1900" height="501.45" rx="12" ry="12" fill="none" stroke="#1a73e8" stroke-miterlimit="10" stroke-width="10"/>
    </g>
  </g>
</svg>